<svg width="839" height="383" viewBox="0 0 839 383" fill="none" xmlns="http://www.w3.org/2000/svg">
<path fill-rule="evenodd" clip-rule="evenodd" d="M349.449 332.86C334.315 342.204 318.399 347.683 302.236 346.054C292.029 345.026 283.542 341.554 277.454 335.088C271.432 328.693 268.884 320.559 268.123 312.404C266.657 296.684 271.574 277.08 276.656 258.804C277.603 255.4 278.563 252.019 279.514 248.67C283.919 233.154 288.129 218.327 289.901 205.16C292.122 188.655 289.827 179.291 284.153 174.527C280.04 171.073 276.725 170.529 273.495 171.16C269.619 171.917 264.589 174.657 258.303 180.429C245.688 192.011 231.832 212.13 216.211 236.553C212.614 242.176 208.938 248.003 205.187 253.949C192.968 273.319 179.951 293.953 166.288 312.908C148.469 337.63 128.802 360.598 107.078 374.976C96.1012 382.241 84.6711 384.458 74.2776 378.866C65.0216 373.885 59.2327 363.944 55.2851 354.011C47.2594 333.817 43.4454 304.464 40.3133 280.358L40.2089 279.555C38.6361 267.448 37.2324 256.643 35.5876 248.176C35.2056 246.209 34.8228 244.435 34.4388 242.853C30.8549 249.396 26.242 260.045 20.4004 276.135C18.5156 281.326 12.7793 284.006 7.58805 282.121C2.39677 280.237 -0.28367 274.5 1.60112 269.309C8.73278 249.666 14.6684 236.225 19.865 228.251C22.3223 224.48 25.5105 220.482 29.7593 218.353C32.1474 217.156 35.1234 216.428 38.3883 216.982C41.6028 217.528 44.075 219.142 45.8212 220.819C48.9803 223.853 50.7936 228.076 51.9702 231.497C53.2568 235.237 54.3072 239.659 55.2207 244.362C56.9875 253.458 58.461 264.803 59.9864 276.548L60.1384 277.718C63.3887 302.733 66.9687 329.256 73.8711 346.624C77.391 355.481 80.955 359.747 83.7538 361.253C85.4151 362.147 88.7415 363.128 96.0396 358.298C114.652 345.979 132.602 325.439 150.064 301.213C163.329 282.81 175.88 262.917 188.035 243.65C191.846 237.609 195.619 231.629 199.362 225.777C214.735 201.743 229.92 179.337 244.776 165.697C252.226 158.857 260.539 153.312 269.662 151.531C279.431 149.623 288.77 152.288 297.015 159.211C311.311 171.216 312.05 190.531 309.723 207.827C307.74 222.561 303.028 239.124 298.61 254.654C297.694 257.877 296.79 261.055 295.925 264.163C290.646 283.144 286.972 299.13 288.037 310.546C288.542 315.959 290.04 319.28 292.015 321.378C293.923 323.405 297.382 325.464 304.241 326.155C314.474 327.186 325.955 323.861 338.942 315.842C351.92 307.829 365.641 295.591 379.99 280.124C408.724 249.152 438.49 206.906 468.567 164.205L468.694 164.025C498.475 121.744 528.599 78.9775 557.542 48.1806C572.045 32.7483 586.694 19.8312 601.317 11.4589C615.979 3.06433 631.473 -1.2309 647.036 2.15975C661.622 5.33757 672.743 12.744 680.131 23.6053C687.367 34.242 690.477 47.3777 690.816 61.3191C691.089 72.5528 689.577 84.763 686.617 97.4602C730.678 91.7958 779.809 96.7196 831.868 118.553C836.961 120.689 839.359 126.55 837.223 131.643C835.087 136.736 829.226 139.133 824.133 136.997C772.264 115.243 723.615 111.495 680.547 118.567C676.46 130.624 671.302 142.868 665.337 154.916C649.284 187.345 626.861 219.432 601.885 244.098C577.169 268.507 548.68 286.893 520.411 289.337C506.243 290.562 493.747 287.224 486.513 277.083C479.62 267.418 479.874 254.728 483.137 242.793C489.746 218.614 510.939 188.545 541.826 162.181C573.074 135.508 615.299 111.743 665.022 101.145C669.058 86.7837 671.104 73.3948 670.822 61.8054C670.543 50.3388 668.006 41.3402 663.594 34.8539C659.335 28.5921 652.809 23.8867 642.779 21.7014C633.725 19.7288 623.378 21.8742 611.255 28.8154C599.092 35.7788 586.011 47.0925 572.116 61.8773C544.303 91.471 515.005 133.007 484.918 175.722L484.441 176.4C454.758 218.54 424.335 261.733 394.652 293.727C379.713 309.829 364.591 323.51 349.449 332.86ZM657.441 123.503C616.393 134.328 581.39 154.705 554.811 177.393C525.589 202.336 507.584 229.206 502.429 248.066C499.809 257.651 501.039 263.006 502.796 265.47C504.213 267.457 508.042 270.332 518.688 269.411C540.049 267.565 564.352 253.056 587.831 229.868C611.051 206.935 632.227 176.72 647.413 146.043C651.167 138.461 654.523 130.915 657.441 123.503Z" fill="url(#paint0_linear_12887_258247)"/>
<defs>
<linearGradient id="paint0_linear_12887_258247" x1="623.553" y1="84.9808" x2="-79.7497" y2="261.419" gradientUnits="userSpaceOnUse">
<stop stop-color="#E65FA0"/>
<stop offset="0.65625" stop-color="#8677F0"/>
<stop offset="1" stop-color="#0B0058"/>
</linearGradient>
</defs>
</svg>
