<svg width="366" height="300" viewBox="0 0 366 300" fill="none" xmlns="http://www.w3.org/2000/svg">
<path d="M268.47 182.372C287.885 201.185 315.514 204.096 330.181 188.873L341.143 177.494L338.017 174.466C341.689 159.566 335.823 141.043 321.582 127.244C306.556 112.685 286.613 107.649 271.564 113.172L268.671 111.608L259.871 120.743C245.204 135.966 249.054 163.558 268.47 182.372Z" fill="url(#paint0_linear_16037_1827)"/>
<g style="mix-blend-mode:overlay" opacity="0.5">
<path fill-rule="evenodd" clip-rule="evenodd" d="M265.777 179.515L283.244 161.384L281.677 159.865L264.33 177.87C264.8 178.424 265.283 178.972 265.777 179.515ZM259.096 170.717L275.785 153.394L274.217 151.875L257.936 168.775C258.308 169.426 258.695 170.074 259.096 170.717ZM254.194 160.859L272.135 142.238L270.567 140.718L253.382 158.555C253.633 159.324 253.904 160.093 254.194 160.859ZM251.452 150.332L271.166 129.87L269.599 128.351L251.138 147.512C251.212 148.448 251.317 149.388 251.452 150.332ZM251.398 138.589L267.185 122.203L265.618 120.683L252.201 134.61C251.86 135.91 251.592 137.238 251.398 138.589ZM273.369 186.581C272.798 186.131 272.232 185.67 271.672 185.195L289.124 167.081L290.691 168.601L273.369 186.581ZM282.196 192.364C281.536 192.011 280.88 191.644 280.227 191.262L298.469 172.327L300.037 173.846L282.196 192.364ZM292.503 196.611C291.731 196.383 290.959 196.136 290.188 195.869L310.472 174.814L312.04 176.334L292.503 196.611ZM303.537 198.532C302.606 198.484 301.67 198.407 300.73 198.299L321.691 176.542L323.259 178.061L303.537 198.532ZM316.234 197.152C314.967 197.517 313.67 197.812 312.35 198.037L329.848 179.875L331.416 181.394L316.234 197.152Z" fill="url(#paint1_linear_16037_1827)"/>
</g>
<ellipse rx="48.9518" ry="38.2752" transform="matrix(0.718153 0.695885 -0.693817 0.720151 304.289 145.192)" fill="url(#paint2_linear_16037_1827)"/>
<path fill-rule="evenodd" clip-rule="evenodd" d="M296.712 153.377C291.041 147.882 289.885 139.855 294.129 135.449C298.374 131.043 306.413 131.926 312.084 137.422C317.756 142.917 318.912 150.944 314.667 155.35C310.422 159.756 302.384 158.873 296.712 153.377Z" fill="url(#paint3_radial_16037_1827)"/>
<path d="M275.873 165.066L276.654 144.693C276.528 141.609 277.028 138.639 278.181 135.982C277.766 140.095 278.107 149.975 282.799 156.594C288.664 164.869 306.799 170.488 305.108 182.826L294.352 180.494L275.873 165.066Z" fill="url(#paint4_linear_16037_1827)"/>
<path fill-rule="evenodd" clip-rule="evenodd" d="M319.613 167.771C327.432 159.496 325.332 144.65 314.88 134.521C306.236 126.146 294.575 123.606 286.287 127.569L285.523 126.828L281.47 131.035C273.52 139.286 275.59 154.225 286.092 164.401L286.105 164.414C286.184 164.49 286.262 164.566 286.342 164.642L287.656 165.915C289.599 167.798 291.961 169.075 294.323 170.352L294.323 170.352C295.555 171.018 296.788 171.685 297.962 172.438C298.782 172.964 299.573 173.587 300.314 174.306C302.703 176.62 304.745 180.082 305.108 182.826L319.613 167.771ZM290.217 139.511C285.972 143.917 287.128 151.943 292.8 157.439C298.471 162.934 306.51 163.818 310.755 159.412C315 155.006 313.843 146.979 308.172 141.483C302.5 135.988 294.462 135.105 290.217 139.511Z" fill="url(#paint5_linear_16037_1827)"/>
<path d="M310.755 159.411C314.999 155.005 313.843 146.979 308.172 141.483C302.5 135.988 294.462 135.104 290.217 139.51L289.904 126.295C297.745 124.421 307.432 127.305 314.879 134.521C322.326 141.737 325.534 151.348 323.935 159.271L310.755 159.411Z" fill="url(#paint6_linear_16037_1827)"/>
<path fill-rule="evenodd" clip-rule="evenodd" d="M285.383 126.974C293.332 118.722 308.29 120.283 318.792 130.46C329.245 140.588 331.344 155.435 323.526 163.71L309.021 178.765C308.657 176.02 306.615 172.559 304.227 170.244C303.485 169.526 302.694 168.903 301.874 168.376C300.7 167.624 299.468 166.957 298.235 166.291C295.873 165.014 293.512 163.737 291.568 161.854L290.254 160.581C290.175 160.505 290.096 160.429 290.017 160.353L290.004 160.34C279.502 150.163 277.433 135.225 285.383 126.974ZM296.712 153.378C291.041 147.882 289.885 139.855 294.129 135.449C298.374 131.043 306.413 131.927 312.084 137.422C317.756 142.918 318.912 150.944 314.667 155.35C310.422 159.756 302.384 158.873 296.712 153.378Z" fill="url(#paint7_linear_16037_1827)"/>
<g filter="url(#filter0_f_16037_1827)">
<path fill-rule="evenodd" clip-rule="evenodd" d="M318.792 130.46C308.29 120.283 293.332 118.722 285.383 126.974C285.279 127.081 285.178 127.189 285.078 127.298C293.102 119.405 307.809 121.056 318.175 131.101C328.627 141.229 330.727 156.076 322.908 164.351L323.526 163.71C331.344 155.435 329.245 140.588 318.792 130.46ZM293.829 135.778C289.944 140.245 291.179 148.016 296.712 153.378C302.246 158.739 310.032 159.711 314.35 155.663C314.253 155.775 314.153 155.884 314.05 155.991C309.805 160.397 301.766 159.514 296.095 154.019C290.423 148.523 289.267 140.496 293.512 136.09C293.615 135.983 293.721 135.879 293.829 135.778Z" fill="#9B8EF9"/>
</g>
<g filter="url(#filter1_f_16037_1827)">
<path fill-rule="evenodd" clip-rule="evenodd" d="M285.696 126.657C285.59 126.761 285.486 126.866 285.382 126.974C277.433 135.225 279.502 150.163 290.004 160.34L290.017 160.352L290.018 160.353C290.097 160.429 290.175 160.505 290.254 160.581L291.568 161.854C293.512 163.737 295.873 165.014 298.235 166.291C299.468 166.957 300.7 167.624 301.874 168.376C302.694 168.902 303.485 169.526 304.227 170.244C306.615 172.559 308.657 176.02 309.021 178.765L309.638 178.124C309.275 175.379 307.233 171.918 304.844 169.603C304.103 168.885 303.312 168.261 302.492 167.735C301.318 166.982 300.085 166.316 298.853 165.65C296.491 164.373 294.13 163.096 292.186 161.213L290.872 159.939C290.793 159.864 290.714 159.788 290.635 159.711L290.622 159.699C280.256 149.654 278.106 134.971 285.696 126.657ZM314.968 155.022C318.853 150.555 317.617 142.784 312.084 137.422C306.551 132.06 298.765 131.089 294.446 135.137C294.543 135.025 294.644 134.916 294.747 134.808C298.992 130.402 307.03 131.285 312.702 136.781C318.373 142.276 319.53 150.303 315.285 154.709C315.181 154.817 315.076 154.921 314.968 155.022Z" fill="#9B8EF9"/>
</g>
<path fill-rule="evenodd" clip-rule="evenodd" d="M281.439 168.91C299.669 186.575 323.787 187.812 335.609 175.541C347.432 163.27 345.37 139.139 327.14 121.475C308.91 103.81 284.792 102.573 272.97 114.844C261.147 127.115 263.209 151.246 281.439 168.91ZM277.733 172.756C297.149 191.57 324.778 194.48 339.444 179.257C354.111 164.034 350.261 136.442 330.845 117.629C311.43 98.8151 283.801 95.9045 269.134 111.128C254.468 126.351 258.318 153.943 277.733 172.756Z" fill="url(#paint8_linear_16037_1827)"/>
<g filter="url(#filter2_f_16037_1827)">
<path fill-rule="evenodd" clip-rule="evenodd" d="M273.281 114.526C285.212 102.595 309.069 103.964 327.14 121.475C345.211 138.985 347.395 162.85 335.915 175.218C336.02 175.113 336.124 175.007 336.227 174.9C348.049 162.629 345.987 138.498 327.757 120.834C309.527 103.169 285.41 101.931 273.587 114.203C273.484 114.31 273.382 114.417 273.281 114.526ZM339.751 178.935C325.007 193.798 297.63 190.797 278.351 172.115C259.072 153.434 255.14 126.097 269.446 110.809C269.341 110.915 269.238 111.021 269.134 111.128C254.468 126.351 258.318 153.943 277.733 172.756C297.149 191.57 324.778 194.48 339.444 179.257C339.547 179.15 339.649 179.043 339.751 178.935Z" fill="white"/>
</g>
<path fill-rule="evenodd" clip-rule="evenodd" d="M271.224 116.87C283.601 106.594 306.161 108.583 323.434 125.321C340.708 142.059 343.465 164.602 333.649 177.361C334.335 176.792 334.989 176.185 335.609 175.541C347.431 163.27 345.37 139.139 327.14 121.475C308.91 103.81 284.792 102.572 272.969 114.844C272.349 115.488 271.767 116.164 271.224 116.87Z" fill="url(#paint9_linear_16037_1827)"/>
<path opacity="0.4" d="M323.781 124.961C306.392 108.111 283.543 105.991 270.905 116.485L271.542 117.256C283.658 107.196 305.929 109.054 323.087 125.681L323.781 124.961ZM334.044 177.666C344.067 164.639 341.17 141.81 323.781 124.961L323.087 125.681C340.245 142.307 342.863 164.565 333.254 177.055L334.044 177.666Z" fill="url(#paint10_linear_16037_1827)"/>
<path d="M307.179 78.7734C307.137 78.8912 303.089 90.7894 294.442 105.778C289.353 114.603 283.683 122.77 277.593 130.057C269.927 139.23 261.559 147.033 252.725 153.246C219.785 176.416 203.262 178.132 184.129 180.119C171.246 181.457 156.647 182.973 134.432 191.718C106.192 202.838 91.7334 218.454 74.9905 236.539C64.1222 248.276 52.8809 260.417 36.6722 272.664C15.8884 288.367 -5.42245 297.132 -26.6694 298.725C-29.0255 298.901 -31.3738 298.99 -33.7065 298.988C-45.4368 298.989 -56.819 296.761 -67.6334 292.34C-70.5335 291.155 -73.8111 289.576 -77.2795 287.907C-88.8493 282.338 -104.359 274.869 -121.187 274.871C-122.624 274.871 -124.07 274.926 -125.523 275.039C-148.948 276.885 -211.22 299.771 -211.847 300L-211.976 297.482C-209.389 296.526 -148.324 274.091 -124.211 272.189C-122.65 272.065 -121.104 272.007 -119.568 272.007C-102.039 272.007 -86.248 279.61 -74.4614 285.281C-71.023 286.94 -67.7724 288.503 -64.9283 289.665C-57.1519 292.845 -45.9174 296.032 -32.1435 296.033C-13.6607 296.036 9.395 290.295 34.8046 271.098C50.568 259.187 61.6269 247.244 72.3209 235.695C88.8733 217.817 104.512 200.929 134.178 189.252C157.144 180.21 172.122 178.654 185.336 177.281C204.427 175.299 219.504 173.734 251.045 151.549C270.084 138.157 283.348 119.291 291.125 105.822C299.616 91.116 303.588 79.4601 303.628 79.3447L307.179 78.7734Z" fill="url(#paint11_linear_16037_1827)"/>
<path d="M-211.98 297.475L-234 258.898C-231.413 257.942 -170.348 235.507 -146.235 233.605C-144.674 233.481 -143.127 233.423 -141.592 233.423C-124.063 233.423 -108.272 241.026 -96.4854 246.697C-93.0469 248.356 -89.7963 249.919 -86.9522 251.081C-79.1758 254.261 -67.9413 257.448 -54.1674 257.449C-35.6846 257.452 -12.6289 251.711 12.7807 232.514C28.5441 220.603 39.603 208.66 50.297 197.111C66.8494 179.233 82.4882 162.345 112.154 150.668C135.12 141.626 150.098 140.07 163.312 138.697C182.403 136.715 197.48 135.15 229.021 112.965C248.06 99.5731 261.324 80.7068 269.101 67.2383C277.592 52.532 281.564 40.8761 281.604 40.7607L303.624 79.3384C303.584 79.4537 299.612 91.1096 291.121 105.816C283.347 119.286 270.081 138.151 251.042 151.542C219.499 173.73 204.421 175.297 185.331 177.277C172.117 178.65 157.137 180.205 134.173 189.248C104.506 200.928 88.8683 217.813 72.316 235.691C61.6219 247.24 50.5655 259.184 34.7997 271.094C9.39005 290.291 -13.6681 296.03 -32.1484 296.029C-45.9223 296.028 -57.1568 292.841 -64.9333 289.661C-67.7774 288.499 -71.0265 286.933 -74.4664 285.277C-86.2529 279.606 -102.044 272.003 -119.573 272.003C-121.108 272.003 -122.655 272.062 -124.216 272.185C-148.327 274.085 -209.394 296.522 -211.98 297.475Z" fill="url(#paint12_linear_16037_1827)"/>
<path d="M326.299 0.0341835L330.464 0.000244141L320.919 102.779L316.752 102.812L326.299 0.0341835Z" fill="url(#paint13_linear_16037_1827)"/>
<path d="M326.303 0.0341797L316.756 102.812L267.148 17.4826L326.303 0.0341797Z" fill="url(#paint14_linear_16037_1827)"/>
<path d="M162.509 117.584C170.644 123.025 180.676 122.265 184.917 115.887L188.087 111.119L186.778 110.244C187.123 104.696 183.835 98.4778 177.868 94.4873C171.573 90.2771 164.141 89.7802 159.136 92.7267L158.005 92.3578L155.46 96.1849C151.219 102.563 154.375 112.144 162.509 117.584Z" fill="url(#paint15_linear_16037_1827)"/>
<g style="mix-blend-mode:overlay" opacity="0.5">
<path fill-rule="evenodd" clip-rule="evenodd" d="M161.365 116.741L166.416 109.145L165.759 108.706L160.743 116.249C160.946 116.416 161.154 116.58 161.365 116.741ZM158.415 114.041L163.241 106.784L162.585 106.344L157.876 113.425C158.051 113.632 158.231 113.838 158.415 114.041ZM156.031 110.848L161.219 103.046L160.562 102.606L155.593 110.08C155.732 110.337 155.878 110.593 156.031 110.848ZM154.373 107.275L160.074 98.7021L159.418 98.2628L154.079 106.291C154.166 106.619 154.264 106.948 154.373 107.275ZM153.595 103.095L158.16 96.2291L157.503 95.7898L153.623 101.624C153.586 102.11 153.577 102.601 153.595 103.095ZM164.527 118.765C164.294 118.642 164.063 118.514 163.832 118.382L168.879 110.793L169.536 111.232L164.527 118.765ZM168.046 120.252C167.788 120.169 167.53 120.081 167.273 119.987L172.548 112.054L173.205 112.493L168.046 120.252ZM171.993 121.094C171.703 121.063 171.412 121.025 171.12 120.98L176.986 112.159L177.643 112.599L171.993 121.094ZM176.048 121.061C175.714 121.105 175.375 121.138 175.033 121.161L181.095 112.045L181.752 112.485L176.048 121.061ZM180.483 119.744C180.055 119.956 179.613 120.145 179.157 120.312L184.217 112.702L184.874 113.141L180.483 119.744Z" fill="url(#paint16_linear_16037_1827)"/>
</g>
<ellipse rx="17.7194" ry="13.8687" transform="matrix(0.831226 0.555934 -0.553724 0.8327 172.867 102.007)" fill="url(#paint17_linear_16037_1827)"/>
<path fill-rule="evenodd" clip-rule="evenodd" d="M170.697 105.416C168.321 103.827 167.39 101.042 168.617 99.1964C169.845 97.3505 172.766 97.1423 175.142 98.7315C177.518 100.321 178.45 103.105 177.222 104.951C175.994 106.797 173.073 107.006 170.697 105.416Z" fill="url(#paint18_radial_16037_1827)"/>
<path d="M164.028 110.937L162.988 103.627C162.744 102.536 162.73 101.445 162.969 100.424C163.087 101.916 163.848 105.414 165.948 107.468C168.572 110.034 175.397 110.857 175.593 115.363L171.61 115.232L164.028 110.937Z" fill="url(#paint19_linear_16037_1827)"/>
<path fill-rule="evenodd" clip-rule="evenodd" d="M179.787 109.055C182.038 105.598 180.33 100.445 175.95 97.516C172.329 95.0941 168.01 94.9477 165.313 96.8987L164.993 96.6846L163.821 98.447C161.522 101.904 163.226 107.092 167.626 110.035L167.631 110.039L167.631 110.039C167.664 110.061 167.697 110.083 167.73 110.104L168.281 110.473C169.095 111.017 170.019 111.319 170.943 111.62C171.425 111.777 171.908 111.934 172.375 112.126C172.701 112.26 173.023 112.431 173.334 112.639C174.334 113.308 175.286 114.409 175.593 115.363L179.787 109.055ZM167.486 100.898C166.258 102.744 167.189 105.529 169.565 107.118C171.942 108.707 174.863 108.499 176.09 106.653C177.318 104.807 176.387 102.022 174.011 100.433C171.635 98.8438 168.713 99.052 167.486 100.898Z" fill="url(#paint20_linear_16037_1827)"/>
<path d="M176.09 106.653C177.318 104.807 176.387 102.022 174.01 100.433C171.634 98.844 168.713 99.0522 167.485 100.898L166.519 96.2099C169.192 95.0319 172.83 95.4294 175.95 97.5161C179.07 99.6029 180.834 102.819 180.777 105.746L176.09 106.653Z" fill="url(#paint21_linear_16037_1827)"/>
<path fill-rule="evenodd" clip-rule="evenodd" d="M164.952 96.7456C167.251 93.2885 172.682 92.8717 177.082 95.8145C181.461 98.7436 183.169 103.897 180.919 107.354L176.724 113.662C176.417 112.707 175.466 111.607 174.465 110.937C174.154 110.73 173.832 110.559 173.506 110.425C173.039 110.233 172.557 110.076 172.075 109.918C171.15 109.617 170.226 109.316 169.412 108.771L168.862 108.403C168.828 108.381 168.795 108.359 168.762 108.337L168.757 108.333C164.357 105.391 162.654 100.203 164.952 96.7456ZM170.697 105.416C168.321 103.827 167.39 101.043 168.617 99.1965C169.845 97.3506 172.766 97.1424 175.142 98.7316C177.518 100.321 178.449 103.106 177.222 104.952C175.994 106.797 173.073 107.006 170.697 105.416Z" fill="url(#paint22_linear_16037_1827)"/>
<g filter="url(#filter3_f_16037_1827)">
<path fill-rule="evenodd" clip-rule="evenodd" d="M177.082 95.8145C172.682 92.8717 167.251 93.2885 164.952 96.7456C164.923 96.7904 164.893 96.8356 164.865 96.881C167.213 93.5469 172.56 93.1785 176.903 96.0831C181.283 99.0121 182.991 104.166 180.74 107.622L180.919 107.354C183.169 103.897 181.461 98.7436 177.082 95.8145ZM168.531 99.3331C167.436 101.178 168.379 103.866 170.697 105.416C173.015 106.967 175.852 106.807 177.129 105.084C177.102 105.13 177.073 105.175 177.043 105.22C175.816 107.066 172.894 107.274 170.518 105.685C168.142 104.096 167.211 101.311 168.438 99.4651C168.468 99.4201 168.499 99.3761 168.531 99.3331Z" fill="#9B8EF9"/>
</g>
<g filter="url(#filter4_f_16037_1827)">
<path fill-rule="evenodd" clip-rule="evenodd" d="M165.043 96.6125C165.012 96.6563 164.982 96.7007 164.952 96.7455C162.653 100.203 164.357 105.391 168.757 108.333L168.762 108.337C168.795 108.359 168.828 108.381 168.862 108.403L169.412 108.771C170.226 109.316 171.15 109.617 172.075 109.918C172.557 110.076 173.039 110.233 173.506 110.425C173.832 110.559 174.154 110.73 174.465 110.937C175.466 111.607 176.417 112.707 176.724 113.662L176.903 113.393C176.596 112.439 175.644 111.338 174.644 110.669C174.333 110.461 174.011 110.29 173.684 110.156C173.218 109.964 172.735 109.807 172.253 109.65C171.329 109.349 170.405 109.047 169.591 108.503L169.04 108.134C169.007 108.113 168.974 108.091 168.941 108.069L168.936 108.065C164.593 105.16 162.877 100.068 165.043 96.6125ZM177.308 104.815C178.403 102.971 177.46 100.282 175.142 98.7316C172.824 97.1811 169.987 97.3415 168.71 99.0645C168.737 99.0185 168.766 98.9729 168.796 98.9279C170.023 97.082 172.944 96.8738 175.321 98.463C177.697 100.052 178.628 102.837 177.4 104.683C177.37 104.728 177.34 104.772 177.308 104.815Z" fill="#9B8EF9"/>
</g>
<path fill-rule="evenodd" clip-rule="evenodd" d="M166.259 111.944C173.897 117.053 182.571 115.925 185.989 110.783C189.408 105.642 187.113 97.1784 179.475 92.0701C171.837 86.9619 163.164 88.0897 159.745 93.231C156.326 98.3723 158.622 106.836 166.259 111.944ZM165.188 113.556C173.322 118.996 183.355 118.236 187.596 111.858C191.837 105.48 188.681 95.8992 180.547 90.4587C172.412 85.0183 162.38 85.7783 158.138 92.1564C153.897 98.5344 157.053 108.115 165.188 113.556Z" fill="url(#paint23_linear_16037_1827)"/>
<g filter="url(#filter5_f_16037_1827)">
<path fill-rule="evenodd" clip-rule="evenodd" d="M159.836 93.0975C163.315 88.0705 171.904 87.0063 179.475 92.0701C187.046 97.1338 189.368 105.495 186.077 110.648C186.108 110.604 186.138 110.56 186.168 110.515C189.587 105.373 187.291 96.9098 179.654 91.8015C172.016 86.6932 163.343 87.8211 159.924 92.9624C159.894 93.0072 159.865 93.0522 159.836 93.0975ZM187.684 111.723C183.392 117.978 173.444 118.689 165.366 113.287C157.289 107.885 154.12 98.4002 158.229 92.0227C158.198 92.0669 158.168 92.1115 158.138 92.1563C153.897 98.5343 157.053 108.115 165.188 113.556C173.322 118.996 183.355 118.236 187.596 111.858C187.626 111.813 187.655 111.768 187.684 111.723Z" fill="white"/>
</g>
<path fill-rule="evenodd" clip-rule="evenodd" d="M159.254 94.0667C163 89.5999 171.166 88.8413 178.404 93.6815C185.641 98.5218 188.081 106.375 185.409 111.559C185.616 111.312 185.81 111.053 185.989 110.783C189.408 105.642 187.113 97.1784 179.475 92.0701C171.837 86.9619 163.164 88.0897 159.745 93.231C159.566 93.5007 159.402 93.7796 159.254 94.0667Z" fill="url(#paint24_linear_16037_1827)"/>
<path opacity="0.4" d="M178.68 93.2652C171.309 88.3355 162.835 89.0181 158.872 93.7443L159.636 94.389C163.164 90.1817 171.023 89.3471 178.127 94.0979L178.68 93.2652ZM185.852 111.789C188.68 106.304 186.051 98.1949 178.68 93.2652L178.127 94.0979C185.23 98.8487 187.482 106.446 184.965 111.329L185.852 111.789Z" fill="url(#paint25_linear_16037_1827)"/>
<defs>
<filter id="filter0_f_16037_1827" x="284.078" y="120.677" width="45.1709" height="44.6738" filterUnits="userSpaceOnUse" color-interpolation-filters="sRGB">
<feFlood flood-opacity="0" result="BackgroundImageFix"/>
<feBlend mode="normal" in="SourceGraphic" in2="BackgroundImageFix" result="shape"/>
<feGaussianBlur stdDeviation="0.5" result="effect1_foregroundBlur_16037_1827"/>
</filter>
<filter id="filter1_f_16037_1827" x="279.548" y="125.657" width="39.2954" height="54.1079" filterUnits="userSpaceOnUse" color-interpolation-filters="sRGB">
<feFlood flood-opacity="0" result="BackgroundImageFix"/>
<feBlend mode="normal" in="SourceGraphic" in2="BackgroundImageFix" result="shape"/>
<feGaussianBlur stdDeviation="0.5" result="effect1_foregroundBlur_16037_1827"/>
</filter>
<filter id="filter2_f_16037_1827" x="258.229" y="104.097" width="87.3804" height="86.9163" filterUnits="userSpaceOnUse" color-interpolation-filters="sRGB">
<feFlood flood-opacity="0" result="BackgroundImageFix"/>
<feBlend mode="normal" in="SourceGraphic" in2="BackgroundImageFix" result="shape"/>
<feGaussianBlur stdDeviation="1" result="effect1_foregroundBlur_16037_1827"/>
</filter>
<filter id="filter3_f_16037_1827" x="163.865" y="92.8535" width="19.0454" height="15.7688" filterUnits="userSpaceOnUse" color-interpolation-filters="sRGB">
<feFlood flood-opacity="0" result="BackgroundImageFix"/>
<feBlend mode="normal" in="SourceGraphic" in2="BackgroundImageFix" result="shape"/>
<feGaussianBlur stdDeviation="0.5" result="effect1_foregroundBlur_16037_1827"/>
</filter>
<filter id="filter4_f_16037_1827" x="162.929" y="95.6125" width="16.0127" height="19.0491" filterUnits="userSpaceOnUse" color-interpolation-filters="sRGB">
<feFlood flood-opacity="0" result="BackgroundImageFix"/>
<feBlend mode="normal" in="SourceGraphic" in2="BackgroundImageFix" result="shape"/>
<feGaussianBlur stdDeviation="0.5" result="effect1_foregroundBlur_16037_1827"/>
</filter>
<filter id="filter5_f_16037_1827" x="154.253" y="86.4907" width="35.459" height="32.6958" filterUnits="userSpaceOnUse" color-interpolation-filters="sRGB">
<feFlood flood-opacity="0" result="BackgroundImageFix"/>
<feBlend mode="normal" in="SourceGraphic" in2="BackgroundImageFix" result="shape"/>
<feGaussianBlur stdDeviation="1" result="effect1_foregroundBlur_16037_1827"/>
</filter>
<linearGradient id="paint0_linear_16037_1827" x1="247.614" y1="129.937" x2="322.446" y2="202.032" gradientUnits="userSpaceOnUse">
<stop stop-color="#E0E8FA"/>
<stop offset="0.1875" stop-color="#FCFDFF"/>
<stop offset="0.354167" stop-color="#E7EEFB"/>
<stop offset="0.514867" stop-color="#E7EEFB"/>
<stop offset="0.761741" stop-color="#B4C3E1"/>
<stop offset="0.900004" stop-color="#B4C3E1"/>
<stop offset="1" stop-color="#FCFDFF"/>
</linearGradient>
<linearGradient id="paint1_linear_16037_1827" x1="315.072" y1="202.014" x2="243.134" y2="132.707" gradientUnits="userSpaceOnUse">
<stop stop-color="#0B1359"/>
<stop offset="0.5667" stop-color="#0B1359" stop-opacity="0"/>
<stop offset="0.827277" stop-color="#0B1359"/>
<stop offset="1" stop-color="#0B1359" stop-opacity="0"/>
</linearGradient>
<linearGradient id="paint2_linear_16037_1827" x1="20.9158" y1="65.8689" x2="77.5919" y2="50.0004" gradientUnits="userSpaceOnUse">
<stop stop-color="#EBF2FF"/>
<stop offset="1" stop-color="#CCD8F0"/>
</linearGradient>
<radialGradient id="paint3_radial_16037_1827" cx="0" cy="0" r="1" gradientUnits="userSpaceOnUse" gradientTransform="translate(308.149 141.186) rotate(133.171) scale(16.7163 21.5753)">
<stop stop-color="#A9B8DA"/>
<stop offset="1" stop-color="#A9B8DA" stop-opacity="0"/>
</radialGradient>
<linearGradient id="paint4_linear_16037_1827" x1="296.815" y1="154.038" x2="281.162" y2="170.191" gradientUnits="userSpaceOnUse">
<stop stop-color="#A9B8DA"/>
<stop offset="1" stop-color="#A9B8DA" stop-opacity="0"/>
</linearGradient>
<linearGradient id="paint5_linear_16037_1827" x1="267.076" y1="145.975" x2="305.213" y2="182.718" gradientUnits="userSpaceOnUse">
<stop stop-color="#5849BD"/>
<stop offset="0.211633" stop-color="#9385F4"/>
<stop offset="0.424922" stop-color="#9385F4"/>
<stop offset="0.808843" stop-color="#4E40B0"/>
<stop offset="1" stop-color="#5849BD"/>
</linearGradient>
<linearGradient id="paint6_linear_16037_1827" x1="287.542" y1="136.919" x2="317.584" y2="165.862" gradientUnits="userSpaceOnUse">
<stop stop-color="#9385F4"/>
<stop offset="0.583333" stop-color="#4E40B0"/>
<stop offset="1" stop-color="#5849BD"/>
</linearGradient>
<linearGradient id="paint7_linear_16037_1827" x1="318.792" y1="130.46" x2="289.919" y2="160.257" gradientUnits="userSpaceOnUse">
<stop stop-color="#6C5DD3"/>
<stop offset="1" stop-color="#8F7EFE"/>
</linearGradient>
<linearGradient id="paint8_linear_16037_1827" x1="265.01" y1="145.554" x2="330.214" y2="172.235" gradientUnits="userSpaceOnUse">
<stop stop-color="#DDE8FC"/>
<stop offset="1" stop-color="#DAE5FA"/>
</linearGradient>
<linearGradient id="paint9_linear_16037_1827" x1="336.008" y1="152.998" x2="268.982" y2="131.885" gradientUnits="userSpaceOnUse">
<stop stop-color="#ADBEDF"/>
<stop offset="1" stop-color="#D7E0FA"/>
</linearGradient>
<linearGradient id="paint10_linear_16037_1827" x1="323.434" y1="125.321" x2="302.374" y2="147.055" gradientUnits="userSpaceOnUse">
<stop stop-color="white"/>
<stop offset="1" stop-color="white" stop-opacity="0"/>
</linearGradient>
<linearGradient id="paint11_linear_16037_1827" x1="-167.364" y1="293.348" x2="55.9759" y2="349.281" gradientUnits="userSpaceOnUse">
<stop offset="0.00591728" stop-color="#EBF2FF"/>
<stop offset="1" stop-color="#CCD8F0"/>
</linearGradient>
<linearGradient id="paint12_linear_16037_1827" x1="286.783" y1="40.7608" x2="-192.795" y2="266.436" gradientUnits="userSpaceOnUse">
<stop stop-color="#EBF2FF"/>
<stop offset="0.277845" stop-color="#D9E4FA"/>
<stop offset="0.424337" stop-color="#EBF2FF"/>
<stop offset="0.630401" stop-color="#D9E4FA"/>
<stop offset="0.843734" stop-color="#EBF2FF"/>
<stop offset="1" stop-color="#CCD8F0"/>
</linearGradient>
<linearGradient id="paint13_linear_16037_1827" x1="336.114" y1="29.1651" x2="296.535" y2="109.095" gradientUnits="userSpaceOnUse">
<stop stop-color="#EBF2FF"/>
<stop offset="1" stop-color="#CCD8F0"/>
</linearGradient>
<linearGradient id="paint14_linear_16037_1827" x1="286.744" y1="51.423" x2="373.089" y2="15.8371" gradientUnits="userSpaceOnUse">
<stop stop-color="#EBF2FF"/>
<stop offset="1" stop-color="#CCD8F0"/>
</linearGradient>
<linearGradient id="paint15_linear_16037_1827" x1="151.687" y1="100.258" x2="183.008" y2="121.085" gradientUnits="userSpaceOnUse">
<stop stop-color="#E0E8FA"/>
<stop offset="0.1875" stop-color="#FCFDFF"/>
<stop offset="0.354167" stop-color="#E7EEFB"/>
<stop offset="0.514867" stop-color="#E7EEFB"/>
<stop offset="0.761741" stop-color="#B4C3E1"/>
<stop offset="0.900004" stop-color="#B4C3E1"/>
<stop offset="1" stop-color="#FCFDFF"/>
</linearGradient>
<linearGradient id="paint16_linear_16037_1827" x1="180.384" y1="121.552" x2="150.274" y2="101.53" gradientUnits="userSpaceOnUse">
<stop stop-color="#0B1359"/>
<stop offset="0.5667" stop-color="#0B1359" stop-opacity="0"/>
<stop offset="0.827277" stop-color="#0B1359"/>
<stop offset="1" stop-color="#0B1359" stop-opacity="0"/>
</linearGradient>
<linearGradient id="paint17_linear_16037_1827" x1="7.57102" y1="23.867" x2="28.0895" y2="18.1279" gradientUnits="userSpaceOnUse">
<stop stop-color="#EBF2FF"/>
<stop offset="1" stop-color="#CCD8F0"/>
</linearGradient>
<radialGradient id="paint18_radial_16037_1827" cx="0" cy="0" r="1" gradientUnits="userSpaceOnUse" gradientTransform="translate(173.984 100.329) rotate(122.861) scale(6.05698 7.80981)">
<stop stop-color="#A9B8DA"/>
<stop offset="1" stop-color="#A9B8DA" stop-opacity="0"/>
</radialGradient>
<linearGradient id="paint19_linear_16037_1827" x1="170.776" y1="105.645" x2="166.245" y2="112.42" gradientUnits="userSpaceOnUse">
<stop stop-color="#A9B8DA"/>
<stop offset="1" stop-color="#A9B8DA" stop-opacity="0"/>
</linearGradient>
<linearGradient id="paint20_linear_16037_1827" x1="159.659" y1="104.707" x2="175.621" y2="115.321" gradientUnits="userSpaceOnUse">
<stop stop-color="#5849BD"/>
<stop offset="0.211633" stop-color="#9385F4"/>
<stop offset="0.424922" stop-color="#9385F4"/>
<stop offset="0.808843" stop-color="#4E40B0"/>
<stop offset="1" stop-color="#5849BD"/>
</linearGradient>
<linearGradient id="paint21_linear_16037_1827" x1="166.365" y1="100.149" x2="178.939" y2="108.51" gradientUnits="userSpaceOnUse">
<stop stop-color="#9385F4"/>
<stop offset="0.583333" stop-color="#4E40B0"/>
<stop offset="1" stop-color="#5849BD"/>
</linearGradient>
<linearGradient id="paint22_linear_16037_1827" x1="177.082" y1="95.8145" x2="168.724" y2="108.311" gradientUnits="userSpaceOnUse">
<stop stop-color="#6C5DD3"/>
<stop offset="1" stop-color="#8F7EFE"/>
</linearGradient>
<linearGradient id="paint23_linear_16037_1827" x1="158.895" y1="104.691" x2="183.849" y2="109.978" gradientUnits="userSpaceOnUse">
<stop stop-color="#DDE8FC"/>
<stop offset="1" stop-color="#DAE5FA"/>
</linearGradient>
<linearGradient id="paint24_linear_16037_1827" x1="184.674" y1="102.725" x2="159.429" y2="99.5387" gradientUnits="userSpaceOnUse">
<stop stop-color="#ADBEDF"/>
<stop offset="1" stop-color="#D7E0FA"/>
</linearGradient>
<linearGradient id="paint25_linear_16037_1827" x1="178.403" y1="93.6815" x2="172.307" y2="102.797" gradientUnits="userSpaceOnUse">
<stop stop-color="white"/>
<stop offset="1" stop-color="white" stop-opacity="0"/>
</linearGradient>
</defs>
</svg>
