<svg width="344" height="250" viewBox="0 0 344 250" fill="none" xmlns="http://www.w3.org/2000/svg">
<g opacity="0.8">
<path d="M12.4214 103.519L17.602 103.505L74.6649 202.643L69.4843 202.658L12.4214 103.519Z" fill="url(#paint0_linear_16037_1889)"/>
<path d="M69.4821 202.657L74.6627 202.643L5.91249 222.504L0.729004 222.517L69.4821 202.657Z" fill="url(#paint1_linear_16037_1889)"/>
<path d="M12.4191 103.518L69.4821 202.657L0.729004 222.517L12.4191 103.518Z" fill="url(#paint2_linear_16037_1889)"/>
<path d="M218.004 231.835L192.28 186.849C194.246 190.288 196.838 193.12 200.061 195.367C206.064 199.552 214.404 201.644 225.001 201.644C235.664 201.643 248.613 199.529 263.777 195.293C270.702 193.358 278.89 189.997 287.003 185.647C303.712 176.687 323.321 165.138 354.08 165.143C380.664 165.145 395.09 176.42 406.686 185.478C414.873 191.878 421.949 197.403 431.001 197.404L456.726 242.391C447.677 242.391 440.602 236.863 432.411 230.465C420.815 221.406 406.389 210.132 379.804 210.129C349.047 210.129 329.435 221.676 312.728 230.633C304.615 234.983 296.427 238.344 289.501 240.279C274.338 244.515 261.389 246.629 250.726 246.63C240.128 246.63 231.789 244.538 225.786 240.353C222.562 238.106 219.971 235.274 218.004 231.835Z" fill="url(#paint3_linear_16037_1889)"/>
<path d="M213.926 234.187L188.202 189.201C182.969 180.051 181.972 166.901 185.133 149.418C188.872 128.716 197.913 105.258 205.18 86.4104C207.289 80.9327 209.284 75.754 210.991 71.0698C218.865 49.4398 219.027 31.3771 212.151 19.3486L237.875 64.3349C244.752 76.3633 244.593 94.4277 236.716 116.056C235.009 120.74 233.014 125.919 230.904 131.397C223.638 150.244 214.599 173.699 210.857 194.404C207.697 211.888 208.694 225.038 213.926 234.187Z" fill="url(#paint4_linear_16037_1889)"/>
<path d="M216.256 17.0643C211.908 9.45744 204.933 4.20228 195.744 1.68775C191.634 0.561161 187.187 0.000684415 182.426 0.000244328C176.376 -0.000231939 169.818 0.908767 162.811 2.72341C149.729 6.1148 135.754 12.516 121.272 21.7576C104.976 32.1524 89.2499 45.381 74.5355 61.0685C62.8116 73.5653 51.6951 87.6447 41.4902 102.925C35.2916 112.203 30.1816 120.816 26.166 128.066L52.1336 172.524C55.6412 166.429 62.3824 155.142 67.2121 147.91C77.4153 132.632 88.5318 118.553 100.257 106.053C114.972 90.3655 130.696 77.1399 146.994 66.7422C161.476 57.5006 175.452 51.0965 188.533 47.708C195.539 45.8933 202.097 44.9843 208.147 44.9848C212.909 44.9853 217.355 45.5486 221.466 46.6723C230.655 49.1868 237.627 54.4403 241.978 62.0489L216.256 17.0643Z" fill="url(#paint5_linear_16037_1889)"/>
<path d="M208.149 44.9839C212.911 44.9843 217.357 45.5477 221.468 46.6714C233.386 49.9324 241.579 57.8082 245.151 69.442C248.881 81.5749 247.391 97.4878 240.847 115.461C239.131 120.175 237.128 125.368 235.011 130.865C227.797 149.589 218.814 172.892 215.123 193.33C210.851 216.988 214.338 232.368 225.791 240.348C231.795 244.533 240.134 246.625 250.731 246.625C261.394 246.624 274.344 244.51 289.507 240.274C296.433 238.339 303.629 234.735 311.742 230.385C328.451 221.425 349.052 210.119 379.807 210.122C406.391 210.125 420.818 221.4 432.413 230.458C440.601 236.857 447.677 242.383 456.729 242.384L454.82 245.72C444.667 245.72 437.294 239.958 428.753 233.287C416.859 223.995 403.379 213.46 377.898 213.459C348.611 213.456 329.723 223.846 312.886 232.874C304.718 237.254 296.818 241.235 289.102 243.389C273.384 247.776 259.817 249.999 248.743 250C248.294 250.001 247.846 249.999 247.403 249.989C236.857 249.815 228.382 247.545 222.206 243.24C210.147 234.833 206.431 218.859 210.851 194.397C214.592 173.693 223.632 150.238 230.898 131.39C233.008 125.912 235.003 120.733 236.709 116.049C249.209 81.7185 242.272 56.3637 218.605 49.8863C214.734 48.8248 210.553 48.3027 206.106 48.3004C189.777 48.2998 169.888 55.3712 148.663 68.9145C112.899 91.7318 86.6287 124.613 70.8902 148.176C65.2372 156.64 60.5001 164.538 56.6937 171.325L52.127 172.518C56.113 165.339 61.1047 157.039 67.2054 147.904C77.4087 132.626 88.5251 118.547 100.251 106.047C114.965 90.3596 130.69 77.134 146.987 66.7363C161.469 57.4946 175.446 51.0906 188.526 47.7021C195.541 45.8924 202.099 44.9834 208.149 44.9839Z" fill="url(#paint6_linear_16037_1889)"/>
</g>
<path d="M115.241 121.371C133.347 138.884 159.113 141.593 172.79 127.423L183.013 116.831L180.099 114.012C183.523 100.141 178.052 82.899 164.771 70.0532C150.76 56.5002 132.161 51.8129 118.127 56.9537L115.429 55.4984L107.222 64.0016C93.5448 78.1726 97.1351 103.858 115.241 121.371Z" fill="url(#paint7_linear_16037_1889)"/>
<g style="mix-blend-mode:overlay" opacity="0.5">
<path fill-rule="evenodd" clip-rule="evenodd" d="M112.731 118.711L129.02 101.834L127.558 100.42L111.381 117.181C111.82 117.696 112.27 118.206 112.731 118.711ZM106.5 110.522L122.064 94.3965L120.601 92.9823L105.418 108.714C105.765 109.32 106.126 109.923 106.5 110.522ZM101.928 101.345L118.659 84.0107L117.197 82.5965L101.172 99.2006C101.406 99.9167 101.658 100.632 101.928 101.345ZM99.3717 91.5461L117.756 72.4979L116.294 71.0837L99.0791 88.9202C99.148 89.7916 99.2457 90.6674 99.3717 91.5461ZM99.321 80.6148L114.044 65.3605L112.582 63.9463L100.07 76.91C99.7518 78.12 99.5025 79.3567 99.321 80.6148ZM119.81 125.289C119.278 124.871 118.75 124.441 118.228 124L134.503 107.137L135.965 108.552L119.81 125.289ZM128.042 130.673C127.427 130.344 126.815 130.002 126.206 129.647L143.218 112.021L144.68 113.435L128.042 130.673ZM137.655 134.626C136.934 134.414 136.214 134.184 135.495 133.935L154.411 114.336L155.873 115.75L137.655 134.626ZM147.944 136.414C147.076 136.37 146.203 136.298 145.326 136.197L164.874 115.944L166.336 117.359L147.944 136.414ZM159.785 135.13C158.603 135.47 157.394 135.744 156.162 135.954L172.481 119.047L173.943 120.461L159.785 135.13Z" fill="url(#paint8_linear_16037_1889)"/>
</g>
<ellipse rx="45.6108" ry="35.6607" transform="matrix(0.718778 0.695239 -0.694464 0.719527 148.645 86.7614)" fill="url(#paint9_linear_16037_1889)"/>
<path fill-rule="evenodd" clip-rule="evenodd" d="M141.58 94.3809C136.291 89.2652 135.213 81.7932 139.171 77.6917C143.13 73.5903 150.626 74.4125 155.915 79.5282C161.204 84.6439 162.283 92.1159 158.324 96.2173C154.365 100.319 146.869 99.4966 141.58 94.3809Z" fill="url(#paint10_radial_16037_1889)"/>
<path d="M122.146 105.262L122.874 86.2966C122.757 83.426 123.223 80.6612 124.298 78.1875C123.911 82.0161 124.23 91.2137 128.605 97.3756C134.074 105.078 150.986 110.309 149.409 121.795L139.379 119.623L122.146 105.262Z" fill="url(#paint11_linear_16037_1889)"/>
<path fill-rule="evenodd" clip-rule="evenodd" d="M162.936 107.78C170.227 100.077 168.269 86.2561 158.521 76.8274C150.461 69.0312 139.587 66.6671 131.857 70.3559L131.144 69.6666L127.365 73.5824C119.952 81.2633 121.881 95.1694 131.675 104.643L131.687 104.654C131.761 104.725 131.834 104.796 131.908 104.867L133.134 106.052C134.946 107.805 137.148 108.993 139.351 110.182L139.351 110.182L139.351 110.182C140.5 110.803 141.65 111.423 142.744 112.124C143.509 112.613 144.247 113.194 144.938 113.863C147.166 116.017 149.07 119.239 149.409 121.794L162.936 107.78ZM135.522 81.4722C131.563 85.5737 132.642 93.0457 137.931 98.1614C143.22 103.277 150.716 104.099 154.675 99.9978C158.633 95.8964 157.555 88.4244 152.266 83.3087C146.977 78.193 139.481 77.3708 135.522 81.4722Z" fill="url(#paint12_linear_16037_1889)"/>
<path d="M154.675 99.9979C158.633 95.8964 157.555 88.4244 152.266 83.3087C146.977 78.193 139.481 77.3708 135.522 81.4723L135.231 69.1707C142.542 67.4254 151.577 70.11 158.521 76.8275C165.466 83.5449 168.457 92.4916 166.966 99.867L154.675 99.9979Z" fill="url(#paint13_linear_16037_1889)"/>
<path fill-rule="evenodd" clip-rule="evenodd" d="M131.014 69.8018C138.427 62.1209 152.377 63.5738 162.17 73.0469C171.918 82.4756 173.876 96.2962 166.585 103.999L153.058 118.014C152.719 115.459 150.815 112.237 148.587 110.082C147.896 109.413 147.158 108.833 146.393 108.343C145.299 107.642 144.149 107.022 143 106.402C140.797 105.213 138.595 104.025 136.782 102.271L135.557 101.086C135.483 101.016 135.41 100.945 135.336 100.874L135.324 100.862C125.53 91.3889 123.6 77.4828 131.014 69.8018ZM141.58 94.3809C136.291 89.2652 135.212 81.7932 139.171 77.6917C143.13 73.5903 150.626 74.4125 155.915 79.5282C161.204 84.6439 162.282 92.1159 158.324 96.2173C154.365 100.319 146.869 99.4966 141.58 94.3809Z" fill="url(#paint14_linear_16037_1889)"/>
<g filter="url(#filter0_f_16037_1889)">
<path fill-rule="evenodd" clip-rule="evenodd" d="M162.17 73.0469C152.377 63.5738 138.427 62.1209 131.014 69.8018C130.918 69.9016 130.823 70.0023 130.73 70.1041C138.213 62.7567 151.928 64.2935 161.594 73.6436C171.342 83.0723 173.3 96.893 166.009 104.596L166.585 103.999C173.876 96.2962 171.918 82.4756 162.17 73.0469ZM138.891 77.9974C135.267 82.1559 136.42 89.3898 141.58 94.3809C146.74 99.372 154.001 100.276 158.028 96.5084C157.938 96.6122 157.844 96.7141 157.748 96.814C153.789 100.916 146.293 100.093 141.004 94.9776C135.715 89.8619 134.636 82.3899 138.595 78.2884C138.691 78.1885 138.79 78.0915 138.891 77.9974Z" fill="#9B8EF9"/>
</g>
<g filter="url(#filter1_f_16037_1889)">
<path fill-rule="evenodd" clip-rule="evenodd" d="M131.306 69.5074C131.207 69.604 131.11 69.7022 131.014 69.8019C123.6 77.4828 125.53 91.389 135.324 100.862L135.336 100.874C135.41 100.945 135.483 101.016 135.557 101.086L136.782 102.271C138.595 104.025 140.797 105.213 143 106.402L143 106.402C144.149 107.022 145.299 107.642 146.393 108.343C147.158 108.833 147.895 109.413 148.587 110.082C150.814 112.237 152.719 115.459 153.058 118.014L153.634 117.417C153.295 114.862 151.39 111.64 149.163 109.485C148.471 108.816 147.734 108.236 146.969 107.746C145.875 107.046 144.725 106.425 143.576 105.805L143.576 105.805C141.373 104.616 139.171 103.428 137.358 101.675L136.133 100.489C136.059 100.419 135.986 100.348 135.912 100.278L135.912 100.277L135.9 100.265C126.233 90.9152 124.228 77.2464 131.306 69.5074ZM158.604 95.9117C162.227 91.7532 161.075 84.5193 155.915 79.5282C150.755 74.5372 143.493 73.6329 139.466 77.4008C139.557 77.2969 139.65 77.195 139.747 77.0951C143.705 72.9936 151.202 73.8158 156.491 78.9315C161.78 84.0472 162.858 91.5192 158.9 95.6207C158.803 95.7206 158.705 95.8176 158.604 95.9117Z" fill="#9B8EF9"/>
</g>
<path fill-rule="evenodd" clip-rule="evenodd" d="M127.336 108.84C144.337 125.284 166.828 126.436 177.853 115.013C188.878 103.589 186.956 81.1267 169.955 64.6828C152.954 48.239 130.463 47.0871 119.438 58.5103C108.413 69.9334 110.335 92.3961 127.336 108.84ZM123.88 112.42C141.987 129.933 167.752 132.643 181.43 118.472C195.107 104.301 191.517 78.6157 173.411 61.1025C155.304 43.5893 129.539 40.8799 115.861 55.0509C102.184 69.2219 105.774 94.907 123.88 112.42Z" fill="url(#paint15_linear_16037_1889)"/>
<g filter="url(#filter2_f_16037_1889)">
<path fill-rule="evenodd" clip-rule="evenodd" d="M119.728 58.2146C130.854 47.1084 153.102 48.3823 169.955 64.6829C186.807 80.9835 188.843 103.198 178.138 114.712C178.236 114.614 178.333 114.515 178.429 114.416C189.454 102.993 187.531 80.53 170.531 64.0862C153.53 47.6423 131.039 46.4904 120.014 57.9136C119.917 58.0131 119.822 58.1135 119.728 58.2146ZM181.715 118.171C167.966 132.007 142.435 129.214 124.456 111.824C106.477 94.4334 102.811 68.9859 116.151 54.7547C116.054 54.8527 115.957 54.9514 115.861 55.051C102.184 69.222 105.774 94.9071 123.88 112.42C141.986 129.933 167.752 132.643 181.429 118.472C181.525 118.372 181.621 118.272 181.715 118.171Z" fill="white"/>
</g>
<path fill-rule="evenodd" clip-rule="evenodd" d="M117.81 60.3968C129.353 50.8303 150.391 52.682 166.5 68.2631C182.608 83.8442 185.18 104.829 176.026 116.706C176.665 116.176 177.275 115.612 177.853 115.012C188.879 103.589 186.956 81.1266 169.955 64.6828C152.955 48.2389 130.463 47.087 119.438 58.5102C118.86 59.1095 118.317 59.7392 117.81 60.3968Z" fill="url(#paint16_linear_16037_1889)"/>
<path opacity="0.4" d="M166.847 67.9033C150.623 52.2106 129.295 50.2286 117.491 60.0114L118.129 60.7821C129.41 51.4319 150.159 53.1532 166.152 68.6228L166.847 67.9033ZM176.421 117.012C185.782 104.866 183.071 83.5959 166.847 67.9033L166.152 68.6228C182.146 84.0924 184.577 104.792 175.63 116.4L176.421 117.012Z" fill="url(#paint17_linear_16037_1889)"/>
<defs>
<filter id="filter0_f_16037_1889" x="129.73" y="63.8713" width="42.2598" height="41.7244" filterUnits="userSpaceOnUse" color-interpolation-filters="sRGB">
<feFlood flood-opacity="0" result="BackgroundImageFix"/>
<feBlend mode="normal" in="SourceGraphic" in2="BackgroundImageFix" result="shape"/>
<feGaussianBlur stdDeviation="0.5" result="effect1_foregroundBlur_16037_1889"/>
</filter>
<filter id="filter1_f_16037_1889" x="125.505" y="68.5073" width="36.7808" height="50.5066" filterUnits="userSpaceOnUse" color-interpolation-filters="sRGB">
<feFlood flood-opacity="0" result="BackgroundImageFix"/>
<feBlend mode="normal" in="SourceGraphic" in2="BackgroundImageFix" result="shape"/>
<feGaussianBlur stdDeviation="0.5" result="effect1_foregroundBlur_16037_1889"/>
</filter>
<filter id="filter2_f_16037_1889" x="105.556" y="48.3684" width="81.7573" height="81.1855" filterUnits="userSpaceOnUse" color-interpolation-filters="sRGB">
<feFlood flood-opacity="0" result="BackgroundImageFix"/>
<feBlend mode="normal" in="SourceGraphic" in2="BackgroundImageFix" result="shape"/>
<feGaussianBlur stdDeviation="1" result="effect1_foregroundBlur_16037_1889"/>
</filter>
<linearGradient id="paint0_linear_16037_1889" x1="34.0092" y1="125.798" x2="74.739" y2="220.984" gradientUnits="userSpaceOnUse">
<stop stop-color="#EBF2FF"/>
<stop offset="1" stop-color="#CCD8F0"/>
</linearGradient>
<linearGradient id="paint1_linear_16037_1889" x1="16.5239" y1="219.744" x2="44.2738" y2="197.144" gradientUnits="userSpaceOnUse">
<stop stop-color="#EBF2FF"/>
<stop offset="1" stop-color="#CCD8F0"/>
</linearGradient>
<linearGradient id="paint2_linear_16037_1889" x1="-28.45" y1="187.046" x2="29.6437" y2="142.649" gradientUnits="userSpaceOnUse">
<stop stop-color="#EBF2FF"/>
<stop offset="1" stop-color="#CCD8F0"/>
</linearGradient>
<linearGradient id="paint3_linear_16037_1889" x1="236.439" y1="218.615" x2="397.998" y2="191.717" gradientUnits="userSpaceOnUse">
<stop stop-color="#EBF2FF"/>
<stop offset="1" stop-color="#CCD8F0"/>
</linearGradient>
<linearGradient id="paint4_linear_16037_1889" x1="183.335" y1="164.707" x2="230.365" y2="70.7939" gradientUnits="userSpaceOnUse">
<stop stop-color="#EBF2FF"/>
<stop offset="1" stop-color="#CCD8F0"/>
</linearGradient>
<linearGradient id="paint5_linear_16037_1889" x1="152.133" y1="38.2588" x2="16.0412" y2="88.6228" gradientUnits="userSpaceOnUse">
<stop stop-color="#EBF2FF"/>
<stop offset="1" stop-color="#CCD8F0"/>
</linearGradient>
<linearGradient id="paint6_linear_16037_1889" x1="138.565" y1="221.393" x2="169.032" y2="104.853" gradientUnits="userSpaceOnUse">
<stop stop-color="#EBF2FF"/>
<stop offset="1" stop-color="#CCD8F0"/>
</linearGradient>
<linearGradient id="paint7_linear_16037_1889" x1="95.7922" y1="72.5603" x2="165.456" y2="139.798" gradientUnits="userSpaceOnUse">
<stop stop-color="#E0E8FA"/>
<stop offset="0.1875" stop-color="#FCFDFF"/>
<stop offset="0.354167" stop-color="#E7EEFB"/>
<stop offset="0.514867" stop-color="#E7EEFB"/>
<stop offset="0.761741" stop-color="#B4C3E1"/>
<stop offset="0.900004" stop-color="#B4C3E1"/>
<stop offset="1" stop-color="#FCFDFF"/>
</linearGradient>
<linearGradient id="paint8_linear_16037_1889" x1="158.702" y1="139.656" x2="91.7311" y2="75.0184" gradientUnits="userSpaceOnUse">
<stop stop-color="#0B1359"/>
<stop offset="0.5667" stop-color="#0B1359" stop-opacity="0"/>
<stop offset="0.827277" stop-color="#0B1359"/>
<stop offset="1" stop-color="#0B1359" stop-opacity="0"/>
</linearGradient>
<linearGradient id="paint9_linear_16037_1889" x1="19.4883" y1="61.3696" x2="72.2958" y2="46.5833" gradientUnits="userSpaceOnUse">
<stop stop-color="#EBF2FF"/>
<stop offset="1" stop-color="#CCD8F0"/>
</linearGradient>
<radialGradient id="paint10_radial_16037_1889" cx="0" cy="0" r="1" gradientUnits="userSpaceOnUse" gradientTransform="translate(152.245 83.032) rotate(133.222) scale(15.5741 20.1034)">
<stop stop-color="#A9B8DA"/>
<stop offset="1" stop-color="#A9B8DA" stop-opacity="0"/>
</radialGradient>
<linearGradient id="paint11_linear_16037_1889" x1="141.675" y1="94.9955" x2="127.105" y2="110.059" gradientUnits="userSpaceOnUse">
<stop stop-color="#A9B8DA"/>
<stop offset="1" stop-color="#A9B8DA" stop-opacity="0"/>
</linearGradient>
<linearGradient id="paint12_linear_16037_1889" x1="113.942" y1="87.4902" x2="149.445" y2="121.757" gradientUnits="userSpaceOnUse">
<stop stop-color="#5849BD"/>
<stop offset="0.211633" stop-color="#9385F4"/>
<stop offset="0.424922" stop-color="#9385F4"/>
<stop offset="0.808843" stop-color="#4E40B0"/>
<stop offset="1" stop-color="#5849BD"/>
</linearGradient>
<linearGradient id="paint13_linear_16037_1889" x1="133.028" y1="79.0599" x2="160.995" y2="106.053" gradientUnits="userSpaceOnUse">
<stop stop-color="#9385F4"/>
<stop offset="0.583333" stop-color="#4E40B0"/>
<stop offset="1" stop-color="#5849BD"/>
</linearGradient>
<linearGradient id="paint14_linear_16037_1889" x1="162.17" y1="73.0469" x2="135.294" y2="100.833" gradientUnits="userSpaceOnUse">
<stop stop-color="#6C5DD3"/>
<stop offset="1" stop-color="#8F7EFE"/>
</linearGradient>
<linearGradient id="paint15_linear_16037_1889" x1="112.015" y1="87.0982" x2="172.791" y2="112.012" gradientUnits="userSpaceOnUse">
<stop stop-color="#DDE8FC"/>
<stop offset="1" stop-color="#DAE5FA"/>
</linearGradient>
<linearGradient id="paint16_linear_16037_1889" x1="178.226" y1="94.0276" x2="115.74" y2="74.3094" gradientUnits="userSpaceOnUse">
<stop stop-color="#ADBEDF"/>
<stop offset="1" stop-color="#D7E0FA"/>
</linearGradient>
<linearGradient id="paint17_linear_16037_1889" x1="166.5" y1="68.2631" x2="146.896" y2="88.5303" gradientUnits="userSpaceOnUse">
<stop stop-color="white"/>
<stop offset="1" stop-color="white" stop-opacity="0"/>
</linearGradient>
</defs>
</svg>
