<svg width="1920" height="914" viewBox="0 0 1920 914" fill="none" xmlns="http://www.w3.org/2000/svg">
<rect width="1920" height="914" fill="#0B1359"/>
<mask id="mask0_20893_365622" style="mask-type:alpha" maskUnits="userSpaceOnUse" x="0" y="0" width="1920" height="914">
<rect width="1920" height="914" fill="#0B1359"/>
</mask>
<g mask="url(#mask0_20893_365622)">
<g opacity="0.4">
<path style="mix-blend-mode:screen" opacity="0.5" fill-rule="evenodd" clip-rule="evenodd" d="M530.827 -9.87698C530.827 -9.87698 642.58 73.5256 694.12 95.4833C694.12 95.4833 758.576 90.6858 767.31 95.4833C776.043 100.281 814.299 124.084 818.235 133.31C822.171 142.536 824.816 162.341 832.75 171.567C840.684 180.793 911.967 215.113 936.999 219.111C962.093 223.047 1022.8 234.918 1034.67 242.852C1046.54 250.787 1042.6 269.239 1049.18 278.465C1055.76 287.691 1095.37 303.559 1111.24 314.077C1127.11 324.594 1176.56 322.011 1191.44 328.592C1206.32 335.173 1238 354.978 1238 354.978L1249.87 365.558C1249.87 365.558 1243.23 388.007 1249.87 394.589C1256.51 401.17 1284.19 406.459 1284.19 406.459C1284.19 406.459 1263.09 385.363 1263.09 372.139C1263.09 358.915 1249.87 348.397 1249.87 348.397C1249.87 348.397 1183.88 318.013 1174.65 310.14C1165.42 302.206 1082.27 233.565 1075.69 221.694C1069.11 209.824 1054.59 176.795 1046.66 167.569C1038.73 158.343 963.507 138.538 945.056 130.603C926.605 122.669 902.803 98.9277 891.609 79.1227C880.415 59.3176 859.258 4.51549 852.677 -2.74225C846.096 -10 831.581 -10 831.581 -10H530.95L530.827 -9.87698Z" fill="url(#paint0_linear_20893_365622)"/>
<path style="mix-blend-mode:screen" opacity="0.3" fill-rule="evenodd" clip-rule="evenodd" d="M1010.93 398.586C1010.93 398.586 1070.83 437.766 1087.56 452.097C1104.29 466.428 1159.27 472.825 1170.1 476.822C1180.86 480.82 1206.69 516.679 1206.69 516.679C1206.69 516.679 1221.58 543.188 1225.14 562.255C1228.71 581.26 1276.5 602.787 1276.5 602.787L1321.83 621.916C1321.83 621.916 1251.59 543.003 1243.78 523.813C1235.91 504.685 1245.56 487.156 1225.21 476.761C1204.85 466.366 1155.34 449.637 1150.23 430.508C1145.07 411.38 1064.56 344.399 1039.03 332.406C1013.51 320.473 937.859 291.75 937.859 291.75C937.859 291.75 987.001 372.2 1011.05 398.525L1010.93 398.586Z" fill="url(#paint1_linear_20893_365622)"/>
<path style="mix-blend-mode:screen" opacity="0.3" fill-rule="evenodd" clip-rule="evenodd" d="M1806.85 145.18C1806.85 145.18 1886.43 216.466 1933.73 244.144C1981.03 271.883 2006.98 260.013 2006.98 260.013C2006.98 260.013 2048.74 272.191 2074.27 291.812C2099.79 311.432 2095.86 347.106 2111.72 366.911C2127.59 386.716 2192.91 372.877 2192.91 372.877L2290.82 481.005L2355.52 549.092C2355.52 549.092 2285.66 458.002 2273.97 438.197C2262.22 418.392 2181.04 303.559 2165.23 283.754C2149.36 263.949 2127.59 267.886 2111.78 240.208C2095.92 212.468 2078.14 180.793 2052.37 157.051C2026.66 133.31 1973.22 97.6361 1944.49 81.829C1915.77 65.9603 1870.2 50.1532 1870.2 50.1532L1790.98 32.3164L1713.79 -9.87695H1359.41C1359.41 -9.87695 1533.22 109.568 1612.25 139.276C1642.14 150.532 1806.91 145.242 1806.91 145.242L1806.85 145.18Z" fill="url(#paint2_linear_20893_365622)"/>
<path style="mix-blend-mode:screen" opacity="0.5" fill-rule="evenodd" clip-rule="evenodd" d="M-51 401.539C-51 401.539 41.8094 468.642 60.3836 484.818C78.9577 500.994 129.022 499.764 145.628 516.679C162.173 533.593 191.879 541.035 212.667 564.038C233.456 587.042 302.34 604.018 325.773 631.142C349.267 658.328 389.183 669.399 409.295 681.7C429.407 693.94 491.772 723.647 491.772 723.647C491.772 723.647 415.63 688.035 403.206 652.361C390.783 616.749 397.855 572.342 397.855 572.342C397.855 572.342 413.785 568.836 397.855 539.313C381.926 509.79 395.211 491.03 375.222 466.243C355.172 441.518 345.639 396.926 359.293 376.137C373.008 355.348 404.928 294.333 397.855 258.045C390.783 221.756 452.778 195.001 452.778 195.001C452.778 195.001 546.449 203.919 557.766 218.742C569.021 233.565 651.498 258.045 651.498 258.045C651.498 258.045 717.368 261.673 726.348 258.045C735.327 254.416 763.558 278.157 786.56 298.946C809.563 319.735 814.052 307.065 845.973 329.33C877.893 351.596 884.044 385.178 902.372 401.477C902.372 401.477 881.83 365.619 875.433 329.33C875.433 329.33 908.276 332.959 932.017 338.864C955.757 344.83 967.136 343.477 983.557 356.024C999.979 368.571 1018.06 376.506 1018.06 376.506C1018.06 376.506 990.261 351.411 983.557 337.572C976.853 323.733 971.564 309.833 963.015 304.543C954.466 299.254 857.351 274.774 832.503 263.273C807.656 251.771 786.56 213.822 786.56 213.822C786.56 213.822 729.669 133.863 693.751 132.633C657.832 131.403 594.914 114.12 571.973 98.0051C549.032 81.8289 473.444 -9.93848 473.444 -9.93848H-38.3917L-51 401.477V401.539Z" fill="url(#paint3_linear_20893_365622)"/>
<g opacity="0.4">
<path fill-rule="evenodd" clip-rule="evenodd" d="M1726.83 443.065C1621.51 521.897 1495.25 531.373 1444.8 464.289C1394.36 397.143 1438.79 278.831 1544.11 199.935C1649.42 121.103 1775.69 111.627 1826.2 178.711C1876.64 245.857 1832.21 364.169 1726.89 443.065H1726.83Z" fill="url(#paint4_radial_20893_365622)" style="mix-blend-mode:screen"/>
</g>
<path fill-rule="evenodd" clip-rule="evenodd" d="M1331.76 -123.071C1330.03 -121.836 1328.55 -120.601 1326.82 -119.367C1310.76 -107.02 1297.18 -92.6971 1286.06 -77.1398C1254.69 -32.9374 1242.58 22.1305 1252.22 74.729C1257.41 103.374 1269.02 131.032 1287.05 156.22C1306.31 182.889 1331.02 203.138 1358.44 217.214C1400.68 238.698 1449.58 244.624 1496.02 233.512C1499.98 232.524 1503.93 231.537 1507.88 230.302C1528.38 224.128 1548.39 214.251 1566.67 200.916C1650.9 139.921 1673.38 25.5877 1621.75 -62.3234C1619.28 -66.7683 1616.57 -70.9663 1613.6 -75.1643C1612.86 -76.399 1612.12 -77.3868 1611.13 -78.6215C1602.24 -90.7216 1592.36 -101.587 1581.49 -111.218C1574.82 -117.144 1567.66 -122.577 1560.25 -127.516C1523.69 -151.963 1479.97 -163.322 1436.49 -160.606C1399.93 -158.383 1363.62 -146.036 1331.76 -123.071Z" fill="url(#paint5_radial_20893_365622)"/>
<path opacity="0.3" fill-rule="evenodd" clip-rule="evenodd" d="M1436.49 -160.606C1436.99 -160.359 1437.48 -160.359 1437.97 -160.112C1440.69 -159.371 1443.66 -158.136 1445.88 -156.655C1448.1 -155.42 1449.58 -153.691 1451.31 -152.457C1454.52 -150.234 1458.23 -148.753 1461.69 -147.271C1466.13 -145.542 1469.59 -143.073 1474.04 -141.097C1485.4 -136.406 1498.49 -138.381 1510.35 -138.628C1513.31 -138.628 1515.04 -138.628 1517.76 -139.122C1519.74 -139.369 1521.22 -139.122 1523.19 -138.628C1527.15 -137.887 1531.59 -136.653 1534.56 -133.689C1536.29 -131.714 1536.53 -129.244 1537.03 -126.775C1537.77 -123.318 1538.26 -122.083 1534.56 -121.836C1528.38 -121.342 1521.22 -122.33 1519.24 -114.675C1518.01 -109.736 1516.52 -105.291 1515.78 -100.352C1515.29 -94.9195 1512.82 -88.499 1515.04 -83.0663C1516.77 -79.1152 1521.71 -77.6336 1525.17 -75.1642C1528.38 -73.1886 1531.84 -71.4601 1534.31 -68.4968C1536.29 -66.2743 1536.78 -63.5579 1538.26 -61.0885C1540.24 -57.1375 1543.94 -53.6803 1548.39 -54.4211C1550.12 -54.6681 1550.12 -55.4089 1552.1 -54.6681C1553.82 -54.1742 1555.8 -52.1986 1557.04 -51.2109C1560.99 -47.7537 1563.95 -42.8149 1568.15 -39.3577C1570.87 -37.1352 1574.33 -35.1597 1577.29 -33.1842C1579.27 -31.9495 1581 -29.727 1582.97 -28.9862C1584.21 -28.4923 1585.69 -28.2454 1586.92 -27.7515C1590.63 -26.5168 1592.85 -25.0351 1595.08 -21.8249C1599.77 -15.1575 1603.97 -5.03288 1605.2 3.11618C1605.94 8.30194 1603.72 10.0305 1599.28 11.2652C1595.32 12.5 1589.39 12.4999 1586.68 15.7102C1584.21 18.4265 1583.71 22.3776 1581.74 25.0939C1579.76 28.0572 1578.03 30.7736 1574.57 31.5144C1568.65 32.7491 1562.22 31.2675 1556.05 31.7614C1549.38 32.5022 1540.24 36.7002 1540.24 44.3553C1540.24 48.0595 1539 51.2697 1537.77 54.7269C1537.03 57.1963 1535.05 60.1596 1537.52 62.1351C1539 63.6168 1542.21 63.3698 1543.94 64.6045C1545.92 66.0862 1546.41 68.0617 1546.41 70.5311C1546.66 73.9883 1547.65 78.1863 1546.91 81.6435C1545.67 87.817 1537.27 93.4966 1531.35 94.4844C1524.18 95.7191 1517.02 97.4477 1510.35 93.9905C1506.15 91.7681 1502.94 87.3231 1497.5 88.0639C1494.29 88.5578 1492.07 90.5333 1489.35 92.015C1486.39 93.2497 1483.67 93.7436 1480.71 95.4722C1477.99 96.9538 1475.52 98.1885 1472.56 99.4232C1468.6 100.905 1464.4 102.633 1460.45 103.621C1455.51 104.609 1450.82 103.621 1445.88 103.868C1441.43 103.868 1438.22 102.387 1434.02 101.893C1429.33 101.399 1424.63 99.6702 1419.94 100.411C1416.48 100.905 1413.03 102.14 1409.32 102.387C1399.44 103.621 1398.7 92.7558 1398.45 85.3476C1398.2 80.1618 1397.96 75.4699 1399.19 70.2842C1400.18 66.3331 1401.17 62.3821 1401.17 58.1841C1401.17 54.233 1401.42 50.035 1400.92 46.0839C1400.67 44.6023 1400.18 42.8737 1400.43 41.3921C1400.92 38.9226 1402.65 36.7002 1404.87 34.9716C1409.57 31.5144 1415 26.0817 1420.44 23.8592C1426.36 21.3898 1429.82 27.3164 1432.79 31.2675C1434.52 33.4899 1436.99 36.2063 1439.95 35.7124C1442.67 35.2185 1444.64 33.243 1447.61 33.243C1450.82 32.996 1453.29 34.7246 1454.52 37.6879C1455.02 38.9226 1455.02 40.1573 1455.76 41.3921C1456.5 42.6268 1457.74 43.1207 1457.49 44.8492C1456.99 48.3064 1451.81 47.0717 1449.34 46.8248C1444.89 46.5778 1444.15 46.8248 1442.17 50.7758C1440.94 52.9983 1439.46 56.7024 1442.17 58.431C1444.15 59.6657 1448.84 58.1841 1450.82 58.1841C1459.96 58.6779 1469.1 59.1718 1472.56 48.8003C1473.54 45.5901 1472.31 44.1084 1472.31 41.1451C1472.31 37.9349 1474.53 34.9716 1474.29 31.5144C1474.04 27.0695 1469.59 23.1184 1467.12 19.6612C1464.16 15.4632 1460.21 11.2652 1456.5 7.80806C1453.78 5.33865 1451.56 4.59782 1448.35 3.11618C1445.14 1.63454 1444.4 -1.57571 1441.93 -3.79819C1437.48 -7.74924 1432.54 -7.25536 1426.86 -7.99619C1421.42 -8.737 1417.97 -7.00842 1413.03 -5.03288C1402.65 -0.834885 1392.28 4.10394 1383.14 10.5244C1375.48 16.2041 1367.82 22.6245 1358.93 26.5756C1354.73 28.5511 1350.53 29.7858 1346.08 30.7736C1344.6 31.0205 1344.6 30.5266 1343.37 31.7614C1342.63 32.5022 1340.9 35.7124 1340.65 36.9471C1339.66 39.9104 1340.16 44.1084 1339.91 47.3186C1339.41 50.2819 1340.16 53.2452 1340.16 56.2085C1340.4 60.6535 1340.65 64.8515 1340.9 69.0495C1341.39 75.9638 1334.97 80.6557 1333.98 87.57C1332.74 97.4477 1336.7 105.103 1339.41 114.487C1341.64 121.895 1344.11 129.056 1345.34 136.711C1346.08 141.403 1345.84 145.848 1346.82 150.787C1348.31 156.714 1351.27 162.393 1353.49 168.073C1355.22 172.518 1357.69 176.963 1360.9 180.667C1363.13 183.136 1365.35 184.371 1367.33 187.087C1370.79 192.026 1374.24 196.965 1377.95 201.657C1379.92 204.126 1382.64 205.608 1385.36 207.336C1388.08 209.065 1391.04 210.794 1393.76 212.522C1400.92 217.214 1408.83 225.61 1417.72 225.61C1420.44 225.61 1423.15 225.116 1425.62 225.363C1427.85 225.61 1429.58 226.598 1431.8 227.092C1433.53 227.586 1435.01 227.833 1436.74 228.573C1439.46 229.561 1441.43 229.808 1444.4 230.055C1446.62 230.302 1449.09 231.043 1451.07 232.031C1452.05 232.524 1453.78 234.006 1455.02 234.006C1456.5 234.253 1456.75 233.265 1457.98 232.771C1459.46 232.031 1460.95 231.784 1462.43 231.29C1466.38 229.561 1472.06 228.573 1476.51 230.549C1478.98 231.537 1480.21 232.771 1482.68 233.265C1487.62 234.5 1490.09 234.5 1495.03 232.771C1495.03 233.018 1494.79 233.018 1494.79 233.018C1448.35 244.131 1399.44 238.204 1357.2 216.72C1356.95 215.239 1356.46 213.757 1356.21 212.275C1355.47 207.83 1353.25 204.867 1350.53 201.163C1347.07 196.471 1344.11 191.532 1341.64 186.346C1339.41 181.655 1336.45 177.704 1333.49 173.506C1329.53 168.32 1327.06 162.393 1323.11 157.207C1319.41 152.269 1314.47 148.811 1310.02 144.613C1303.35 138.687 1299.89 130.044 1296.43 122.142C1294.7 118.685 1294.46 114.487 1292.73 111.029C1291.49 108.807 1290.26 107.078 1289.27 104.856C1286.8 99.6702 1282.85 93.2497 1278.65 89.0517C1275.93 86.0884 1272.47 86.8292 1269.26 85.5945C1265.8 84.3598 1264.57 79.9149 1262.35 77.4454C1259.63 74.4822 1254.93 73.9883 1251.23 74.7291C1241.6 21.8837 1253.7 -33.1842 1285.07 -77.1397C1288.28 -72.6948 1289.52 -63.311 1291.74 -60.8416C1292.98 -59.3599 1294.95 -58.6191 1296.19 -56.8905C1297.42 -55.1619 1297.67 -53.6803 1298.66 -51.9517C1299.89 -49.2354 1301.37 -46.0251 1304.58 -46.2721C1307.8 -46.7659 1310.27 -51.9517 1313.23 -48.7415C1314.71 -47.2598 1314.47 -44.5435 1316.44 -43.0618C1317.92 -41.5802 1319.16 -40.5924 1320.39 -38.8638C1322.37 -35.9005 1323.36 -33.1842 1325.09 -30.2209C1325.83 -28.7392 1327.06 -27.9984 1328.3 -27.0107C1329.29 -26.2698 1330.77 -24.0473 1331.76 -23.5535C1335.71 -21.5779 1336.94 -26.7637 1337.93 -29.2331C1338.43 -30.4678 1338.92 -32.4434 1339.41 -33.6781C1340.16 -35.1597 1341.14 -35.4066 1342.13 -36.3944C1344.85 -39.3577 1345.59 -43.3088 1346.08 -47.2598C1346.58 -52.9395 1347.32 -59.113 1349.29 -64.5457C1350.28 -67.0151 1350.53 -68.7437 1352.26 -70.4723C1353.49 -71.9539 1354.98 -73.1886 1356.21 -74.6703C1357.69 -76.3989 1358.93 -77.8805 1360.16 -79.856C1361.89 -82.3255 1364.36 -84.301 1366.09 -86.7704C1367.57 -88.9929 1370.04 -94.1786 1369.8 -96.895C1369.55 -98.1297 1368.81 -99.1175 1368.81 -100.599C1368.81 -102.081 1369.55 -102.822 1369.3 -104.303C1368.56 -107.513 1362.88 -110.724 1360.41 -112.205C1356.71 -114.675 1351.52 -116.65 1347.07 -117.391C1342.13 -118.132 1338.18 -117.885 1333.24 -117.885C1331.51 -117.885 1328.05 -118.132 1325.83 -119.367C1327.31 -120.601 1329.04 -121.836 1330.77 -123.071C1363.62 -146.036 1399.93 -158.383 1436.49 -160.606ZM1422.16 -22.8127C1421.42 -21.5779 1422.41 -19.1085 1423.15 -18.1208C1424.88 -16.1452 1428.59 -16.3922 1431.06 -15.6514C1433.77 -14.9105 1436.24 -15.1575 1438.71 -16.3922L1436.49 -17.133C1439.7 -17.133 1443.41 -16.1452 1444.89 -20.0963C1445.63 -22.3188 1444.64 -23.8004 1442.67 -24.7882C1439.7 -26.5168 1436.24 -28.4923 1432.79 -28.7392C1430.32 -28.7392 1428.59 -27.5045 1426.61 -26.0229C1425.62 -25.2821 1422.91 -24.0474 1422.16 -22.8127ZM1489.11 -123.318C1488.12 -121.095 1488.12 -118.379 1488.61 -115.909C1489.11 -114.181 1490.34 -111.465 1491.33 -109.983C1493.8 -106.526 1498.99 -105.291 1502.69 -104.303C1504.92 -103.562 1510.6 -102.822 1505.9 -106.526C1507.63 -107.02 1509.11 -107.02 1510.35 -108.254C1511.09 -108.995 1512.08 -110.23 1512.82 -110.971C1514.55 -112.946 1515.29 -115.416 1517.02 -117.638C1518.25 -119.12 1519.74 -121.095 1521.22 -122.33C1522.7 -123.565 1524.18 -124.059 1524.18 -126.034C1524.18 -127.269 1523.69 -128.01 1522.7 -128.503C1521.47 -128.997 1519.49 -128.75 1518.25 -128.75C1516.77 -128.997 1515.29 -128.997 1513.81 -128.997C1509.61 -129.244 1505.16 -127.763 1500.96 -127.763C1498.49 -127.763 1496.76 -128.01 1494.29 -127.269C1492.07 -126.528 1490.09 -125.54 1489.11 -123.318ZM1363.87 -127.022C1362.14 -123.318 1364.61 -118.379 1366.34 -114.922C1369.06 -109.983 1374.24 -105.538 1378.44 -102.081C1380.17 -100.599 1381.9 -99.6113 1384.12 -99.1175C1386.35 -98.3766 1388.57 -96.895 1386.35 -99.3644C1389.56 -100.352 1392.28 -101.587 1395.24 -102.822C1398.95 -104.55 1402.9 -105.291 1406.6 -106.773C1412.78 -108.995 1420.44 -111.465 1424.88 -116.897C1427.85 -120.354 1429.58 -126.034 1428.09 -130.232C1427.11 -133.195 1424.88 -136.406 1422.16 -138.381C1418.95 -140.851 1415 -141.838 1411.05 -142.826C1407.34 -143.814 1403.14 -143.814 1399.44 -142.579C1396.72 -141.591 1394.25 -140.11 1391.53 -139.369C1390.05 -138.875 1388.82 -138.628 1387.58 -138.134C1385.85 -137.393 1384.12 -137.64 1382.4 -137.64C1379.68 -137.64 1377.7 -137.64 1375.48 -136.159C1373.26 -134.677 1371.28 -133.195 1369.3 -131.714C1367.08 -130.479 1364.86 -129.244 1363.87 -127.022Z" fill="url(#paint6_linear_20893_365622)"/>
<path opacity="0.3" fill-rule="evenodd" clip-rule="evenodd" d="M1514.3 82.6307C1512.33 82.8776 1511.34 83.1245 1509.61 82.6307C1508.13 82.3837 1506.64 81.8898 1505.16 81.396C1502.69 80.6551 1499.48 79.4204 1497.01 79.4204C1494.29 79.1735 1493.3 80.6552 1491.33 81.8899C1490.09 82.6307 1488.86 83.1246 1487.38 83.6184C1486.64 83.8654 1485.89 84.1123 1485.15 84.6062C1484.41 85.1001 1483.67 85.8409 1482.93 86.0878C1481.2 86.8287 1479.22 86.5817 1477.25 87.3226C1475.77 87.8164 1474.53 88.8042 1473.05 88.8042C1471.81 88.8042 1470.83 88.0634 1469.84 87.8165C1468.36 87.3226 1466.87 87.3226 1465.39 87.3226C1460.45 87.3226 1456.01 90.0389 1451.31 90.2859C1446.87 90.5328 1443.9 84.8531 1441.18 82.3837C1440.69 81.8898 1439.95 81.8898 1439.7 81.149C1439.46 80.6551 1439.46 79.6674 1439.21 78.9265C1438.96 77.6918 1438.22 76.7041 1437.48 75.9633C1436.99 75.4694 1436.74 76.2102 1436.24 74.9755C1436 74.4816 1436.49 73 1436.74 72.5061C1437.48 70.5305 1438.96 69.7897 1440.69 69.2959C1442.67 68.555 1444.4 67.8142 1446.37 67.3203C1448.1 66.5795 1449.83 66.5795 1451.56 65.5917C1453.29 64.8509 1454.52 63.3693 1456.01 62.6284C1459.96 60.6529 1463.17 61.3937 1467.37 62.1346C1471.32 62.8754 1475.77 65.0979 1479.22 62.1346C1480.71 60.8999 1480.21 60.406 1480.71 58.9243C1481.2 57.4427 1482.44 55.7141 1482.68 53.9855C1482.68 53.2447 1482.19 51.5161 1481.94 50.7753C1481.45 49.2936 1480.95 47.812 1480.71 46.3303C1480.46 44.6017 1481.45 43.8609 1481.7 42.3793C1481.94 41.3915 1481.45 41.6385 1481.45 40.8976C1481.2 39.6629 1481.45 39.416 1481.7 38.1813C1482.19 36.2057 1482.44 34.7241 1483.42 32.9955C1484.17 31.5139 1484.91 30.5261 1485.15 28.7975C1485.4 26.822 1485.65 24.8465 1485.65 22.8709C1485.65 20.8954 1485.15 18.6729 1484.41 16.9443C1483.92 15.9566 1483.18 15.4627 1482.68 14.4749C1480.95 12.0055 1480.71 9.04221 1480.21 6.07891C1479.22 1.88091 1479.72 -5.52731 1474.04 -6.02119C1472.31 -6.26814 1470.83 -5.03343 1469.1 -5.52731C1465.39 -6.51508 1464.9 -10.4661 1464.16 -13.6764C1462.92 -18.8621 1463.42 -24.2948 1463.91 -29.7275C1464.4 -33.1847 1464.65 -36.148 1467.62 -38.3705C1473.05 -42.8154 1480.21 -40.8399 1486.39 -44.0501C1492.07 -47.0134 1496.02 -53.4339 1500.72 -58.1258C1502.94 -60.3482 1506.64 -62.8177 1510.1 -62.8177C1511.09 -62.8177 1512.82 -62.5707 1514.05 -62.3238C1516.77 -61.336 1517.02 -59.6074 1518.5 -57.8788C1519.74 -56.6441 1520.72 -56.6441 1521.96 -56.3972C1525.91 -55.4094 1528.13 -49.9767 1530.11 -47.2604C1533.32 -43.0624 1537.27 -38.6174 1541.97 -36.395C1547.65 -33.6786 1553.33 -31.4561 1559.51 -29.4806C1563.95 -27.999 1568.4 -26.5173 1572.6 -24.5418C1575.56 -23.0601 1577.78 -20.5907 1579.76 -18.1213C1582.48 -14.6641 1583.96 -10.7131 1582.97 -6.02119C1581.98 -1.8232 1579.51 -1.8232 1575.81 -0.58849C1574.57 -0.0946083 1572.1 0.399277 1571.36 1.88092C1570.37 3.85645 1573.09 6.57281 1574.08 8.05445C1575.07 9.28915 1577.78 11.7586 1576.55 13.7341C1575.81 15.2158 1572.84 16.4505 1571.61 17.4382C1570.37 18.426 1569.14 19.6607 1567.66 19.6607C1566.42 19.6607 1565.68 18.6729 1564.69 18.179C1562.96 17.1913 1561.23 17.9321 1559.26 17.9321C1557.78 17.9321 1556.54 17.4382 1555.06 17.1913C1553.33 16.9443 1551.35 16.9443 1549.62 16.2035C1546.91 14.9688 1545.92 12.2524 1542.71 11.7586C1541.72 11.5116 1540.24 11.7586 1539.25 11.2647C1538.51 11.0178 1537.77 10.2769 1537.03 9.78303C1535.3 8.54832 1532.33 6.81975 1530.11 8.05445C1527.89 9.28915 1528.38 13.2402 1529.12 15.2157C1529.86 16.9443 1531.35 19.4137 1529.86 20.8954C1528.63 22.377 1526.65 22.377 1525.91 24.3526C1523.69 30.5261 1531.35 33.7363 1534.31 37.9343C1538.51 44.1079 1535.79 51.2691 1533.57 57.4427C1533.32 57.9366 1533.32 58.6774 1533.32 59.4182C1532.83 60.406 1532.33 60.6529 1531.84 61.3937C1531.1 62.6284 1531.35 64.1101 1531.59 65.3448C1531.84 67.0734 1532.09 68.3081 1533.07 69.7897C1534.06 71.5183 1535.79 73 1536.53 74.7286C1538.26 78.1857 1535.54 81.8899 1532.33 83.1246C1530.11 83.8654 1527.15 82.6307 1524.92 83.1246C1523.19 83.3715 1521.22 83.8654 1519.49 83.8654C1518.5 83.8654 1517.27 83.3715 1516.28 83.1246C1514.55 82.8776 1513.07 83.3715 1514.3 82.6307Z" fill="url(#paint7_linear_20893_365622)"/>
<path opacity="0.3" fill-rule="evenodd" clip-rule="evenodd" d="M1412.78 -19.108C1411.3 -17.6264 1410.31 -16.3917 1408.58 -15.4039C1407.1 -14.6631 1405.62 -13.9222 1404.38 -12.9345C1400.68 -10.4651 1397.71 -7.25483 1394.01 -4.53848C1391.78 -3.05683 1389.81 -2.31602 1387.34 -1.32825C1384.37 0.153397 1382.4 2.86975 1379.93 4.84528C1376.22 7.31469 1372.52 10.0311 1367.82 10.0311C1366.09 10.0311 1364.61 9.53716 1363.38 8.05552C1362.39 6.82082 1362.14 5.09222 1361.15 3.61057C1360.16 2.37586 1358.93 2.37588 1357.45 1.63506C1355.72 0.647285 1354.24 -0.340485 1352.75 -1.32825C1351.27 -2.31602 1350.28 -2.56295 1348.55 -2.8099C1347.07 -3.05684 1345.59 -4.0446 1344.11 -3.55071C1342.38 -2.80989 1342.63 -0.834358 1342.38 0.647285C1341.64 3.61058 1340.9 6.57387 1341.39 9.7841C1341.89 11.7596 1342.38 12.5005 1343.86 13.7352C1345.34 14.7229 1346.83 15.7107 1346.83 17.9332C1347.07 20.6495 1346.58 23.6128 1345.34 26.0822C1345.1 26.3292 1344.36 27.5639 1344.36 27.5639C1343.37 28.3047 1344.11 27.8108 1342.87 28.0578C1341.64 28.0578 1340.65 28.0578 1339.66 28.7986C1338.18 30.0333 1336.45 32.5027 1335.71 34.2313C1335.22 35.466 1334.72 36.9476 1334.72 38.1823C1334.72 39.9109 1334.23 41.1456 1334.23 42.8742C1334.47 46.0845 1333.49 48.8008 1333.98 52.258C1334.47 55.9621 1334.47 59.9132 1334.47 63.8642C1334.23 72.0133 1335.46 79.6685 1332 87.3236C1331.26 89.2991 1328.55 92.2624 1326.32 92.2624C1325.34 92.2624 1324.1 91.7686 1323.36 91.7686C1321.63 91.5216 1320.39 92.2625 1318.67 92.7563C1316.94 93.2502 1314.22 93.991 1312.24 93.4971C1310.27 93.0033 1308.29 91.0277 1307.06 89.5461C1306.31 88.5583 1305.82 87.8175 1305.08 86.8298C1304.59 86.0889 1303.84 85.842 1303.35 85.1012C1301.37 82.6317 1299.65 80.1623 1296.43 78.9276C1295.2 78.4337 1294.21 78.4337 1292.98 78.1868C1291.49 78.1868 1289.76 78.6807 1288.53 78.4337C1285.81 77.9399 1284.58 73.248 1284.08 71.0255C1283.34 67.8153 1282.85 63.8642 1280.38 61.6417C1278.9 60.1601 1276.67 59.9132 1274.94 58.6785C1272.47 56.9499 1270.74 55.9621 1268.03 54.7274C1266.79 54.2335 1266.3 54.2335 1265.56 53.2458C1263.09 50.2825 1262.59 45.8375 1262.35 42.1334C1261.85 37.6885 1261.85 33.2435 1261.36 28.7986C1260.86 23.8598 1260.86 20.1556 1261.6 15.4638C1262.35 11.0188 1261.85 6.82082 1261.85 2.62282C1261.85 -0.58741 1262.1 -4.0446 1262.35 -7.25483C1262.59 -10.712 1263.33 -13.9222 1264.08 -17.1325C1264.57 -19.8488 1264.82 -22.3182 1265.8 -24.7877C1266.79 -27.504 1268.27 -30.4673 1269.02 -33.1837C1269.76 -36.3939 1270.74 -38.8633 1272.23 -41.8266C1273.46 -44.5429 1276.18 -49.2348 1280.13 -47.5062C1282.85 -46.2715 1284.58 -42.5674 1286.31 -40.098C1289.02 -36.3939 1293.47 -35.4061 1297.92 -34.9122C1301.37 -34.6653 1305.08 -34.9122 1308.54 -34.4184C1310.27 -34.1714 1312.74 -34.1714 1314.22 -33.1837C1315.21 -32.4428 1316.44 -30.7142 1316.94 -29.4795C1318.17 -26.5162 1320.15 -23.7999 1322.37 -21.5774C1324.59 -19.6019 1327.56 -16.8855 1330.52 -16.3917C1332.5 -16.1447 1334.47 -16.3917 1336.45 -16.3917C1339.17 -16.3917 1342.13 -19.108 1343.61 -21.3305C1346.83 -26.0224 1351.02 -29.9734 1353.99 -34.9122C1355.72 -38.1225 1352.51 -41.0858 1352.01 -44.296C1351.77 -46.7654 1352.75 -48.7409 1353.25 -51.2104C1353.74 -53.1859 1353.25 -55.6553 1353.25 -57.8778C1353.25 -65.0391 1358.19 -69.7309 1365.6 -68.9901C1369.8 -68.7432 1373.26 -66.0268 1374.74 -62.0758C1375.23 -60.3472 1375.97 -58.6186 1376.47 -56.6431C1376.96 -54.1736 1376.96 -51.9512 1378.2 -49.7287C1382.64 -41.0858 1391.54 -37.6286 1399.69 -33.9245C1403.39 -32.1959 1407.34 -29.7265 1410.31 -26.7632C1412.04 -25.0346 1412.53 -24.7877 1412.78 -22.3182C1413.03 -20.5896 1413.52 -19.6019 1414.01 -17.8733C1413.77 -17.1325 1413.27 -15.4039 1412.78 -19.108Z" fill="url(#paint8_linear_20893_365622)"/>
<path opacity="0.3" fill-rule="evenodd" clip-rule="evenodd" d="M1581.74 -110.97C1581.98 -110.723 1581.98 -110.476 1582.23 -110.229C1583.71 -106.278 1586.18 -102.821 1588.9 -99.1167C1589.39 -98.3759 1590.13 -97.1411 1590.88 -96.4003C1591.37 -95.9064 1591.86 -95.9064 1592.61 -95.4126C1593.84 -94.1779 1595.08 -92.9431 1596.31 -91.7084C1598.53 -89.7329 1600.51 -86.7696 1602.24 -84.0533C1604.46 -81.09 1608.17 -78.8675 1609.9 -75.6573C1611.87 -72.2001 1612.86 -68.0021 1615.33 -64.7919L1617.06 -62.5694C1618.54 -60.5939 1618.05 -58.8653 1618.54 -56.1489C1617.55 -54.6673 1615.33 -52.4448 1615.33 -50.7162C1615.33 -49.9754 1615.33 -49.2346 1615.58 -48.7407C1616.07 -47.0121 1616.32 -45.2835 1617.06 -43.5549C1618.29 -40.3447 1619.53 -36.8875 1621.51 -34.1712C1623.24 -31.7017 1625.21 -29.9732 1626.94 -27.7507C1630.65 -23.5527 1634.35 -19.6016 1635.59 -13.922C1636.33 -10.7118 1636.82 -7.50152 1637.32 -4.29128C1637.81 -2.5627 1638.3 -0.340218 1638.3 1.38837C1638.3 2.87002 1638.06 4.35165 1638.06 5.58636C1638.06 7.31495 1639.04 8.7966 1639.54 10.5252C1640.03 12.5007 1639.79 14.2293 1639.04 16.2048C1638.3 18.9212 1635.83 20.1559 1634.84 22.3784C1634.35 23.86 1634.6 25.0947 1634.84 26.5764C1635.59 33.2438 1631.63 38.1826 1630.4 44.6031C1629.41 49.2949 1631.39 53.7399 1630.65 58.6787C1630.15 63.3706 1628.67 68.0625 1627.68 72.5074C1626.94 75.7176 1627.19 77.4462 1627.93 80.4095C1628.42 83.3728 1628.92 86.83 1628.18 89.7933C1627.43 93.0035 1626.69 95.9668 1626.2 98.9301C1625.95 101.4 1626.45 103.869 1625.95 106.338C1625.46 108.561 1624.22 110.536 1623.48 112.759C1621.51 117.451 1618.79 121.402 1616.57 126.094C1614.84 129.798 1614.59 134.737 1611.13 137.453C1609.9 138.441 1609.16 138.688 1607.67 139.182C1605.7 139.922 1604.21 141.651 1602.49 142.886C1601.5 143.626 1600.51 143.626 1599.27 144.12C1597.79 144.614 1596.56 145.602 1595.08 145.849C1592.61 146.343 1590.13 145.355 1587.66 145.602C1584.95 145.849 1582.72 147.331 1581.24 149.553C1579.51 151.776 1578.03 154.245 1576.55 156.714C1574.33 160.418 1573.58 165.357 1570.62 168.567C1569.39 169.802 1567.9 170.296 1566.42 170.79C1564.69 171.531 1562.96 172.519 1561.23 173.506C1559.5 174.494 1558.27 175.976 1557.03 177.457C1556.29 178.445 1555.8 179.68 1555.31 181.162C1555.06 181.655 1555.06 182.396 1555.06 183.137C1554.56 184.125 1553.82 184.866 1553.33 185.853C1552.84 186.841 1551.35 189.064 1551.6 190.298C1552.09 192.768 1556.29 190.792 1556.05 192.768C1555.8 194.249 1553.33 194.99 1552.59 195.978C1551.35 196.966 1550.12 198.941 1549.38 200.423C1547.65 203.386 1547.65 204.868 1544.44 206.103C1541.72 207.09 1539.25 207.584 1536.29 207.831C1532.83 208.078 1530.85 210.301 1527.89 211.535C1526.4 212.276 1525.17 213.511 1523.69 214.499C1522.21 215.486 1520.72 215.486 1519.24 216.227C1518.25 216.721 1516.52 217.709 1515.78 218.697C1515.29 219.437 1515.54 220.672 1515.54 221.413C1515.29 223.141 1514.05 223.882 1513.07 225.117C1511.58 227.093 1510.1 228.327 1508.13 229.809C1528.63 223.635 1548.64 213.758 1566.92 200.423C1651.15 139.428 1673.63 25.0947 1622 -62.8163C1619.53 -67.2613 1616.81 -71.4593 1613.85 -75.6573C1613.11 -76.892 1612.37 -77.8797 1611.38 -79.1144C1602.49 -90.7207 1592.36 -101.586 1581.74 -110.97Z" fill="url(#paint9_linear_20893_365622)"/>
<path fill-rule="evenodd" clip-rule="evenodd" d="M243.818 -99.6284C242.707 -98.835 241.755 -98.0416 240.644 -97.2483C230.327 -89.3146 221.597 -80.1115 214.455 -70.115C194.297 -41.7124 186.52 -6.32816 192.71 27.4694C196.043 45.8755 203.503 63.647 215.09 79.8317C227.47 96.9685 243.342 109.98 260.96 119.024C288.102 132.829 319.529 136.637 349.369 129.497C351.908 128.862 354.448 128.227 356.987 127.434C370.161 123.467 383.018 117.12 394.763 108.552C448.887 69.3593 463.331 -4.10674 430.158 -60.5946C428.571 -63.4507 426.825 -66.1482 424.92 -68.8457C424.444 -69.639 423.968 -70.2737 423.333 -71.0671C417.619 -78.8421 411.27 -85.8238 404.286 -92.012C400.001 -95.8202 395.398 -99.311 390.636 -102.485C367.145 -118.193 339.052 -125.492 311.117 -123.747C287.626 -122.319 264.294 -114.385 243.818 -99.6284Z" fill="url(#paint10_radial_20893_365622)"/>
<path opacity="0.3" fill-rule="evenodd" clip-rule="evenodd" d="M311.117 -123.747C311.434 -123.588 311.752 -123.588 312.069 -123.429C313.815 -122.953 315.72 -122.16 317.148 -121.208C318.577 -120.415 319.529 -119.304 320.64 -118.51C322.703 -117.082 325.084 -116.13 327.306 -115.178C330.163 -114.068 332.385 -112.481 335.242 -111.211C342.544 -108.197 350.956 -109.466 358.575 -109.625C360.479 -109.625 361.59 -109.625 363.336 -109.942C364.606 -110.101 365.558 -109.942 366.828 -109.625C369.368 -109.149 372.225 -108.355 374.129 -106.451C375.24 -105.182 375.399 -103.595 375.717 -102.008C376.193 -99.787 376.51 -98.9936 374.129 -98.8349C370.161 -98.5176 365.558 -99.1523 364.289 -94.2334C363.495 -91.0599 362.543 -88.2038 362.066 -85.0303C361.749 -81.5395 360.162 -77.4139 361.59 -73.9231C362.701 -71.3843 365.876 -70.4323 368.098 -68.8456C370.161 -67.5762 372.383 -66.4655 373.971 -64.5614C375.24 -63.1333 375.558 -61.3879 376.51 -59.8012C377.78 -57.2624 380.161 -55.0409 383.018 -55.517C384.129 -55.6756 384.129 -56.1517 385.399 -55.6756C386.51 -55.3583 387.779 -54.0889 388.573 -53.4542C391.113 -51.2328 393.017 -48.0593 395.716 -45.8379C397.461 -44.4098 399.684 -43.1404 401.588 -41.871C402.858 -41.0776 403.969 -39.6496 405.239 -39.1736C406.032 -38.8562 406.985 -38.6975 407.778 -38.3802C410.159 -37.5868 411.588 -36.6348 413.016 -34.572C416.032 -30.2878 418.73 -23.7822 419.524 -18.546C420 -15.2138 418.572 -14.1031 415.715 -13.3097C413.175 -12.5163 409.366 -12.5163 407.62 -10.4536C406.032 -8.70818 405.715 -6.1694 404.445 -4.42398C403.175 -2.5199 402.064 -0.77449 399.842 -0.298462C396.033 0.494904 391.906 -0.457138 387.938 -0.139793C383.653 0.336227 377.78 3.03368 377.78 7.95258C377.78 10.3327 376.986 12.3954 376.193 14.6169C375.717 16.2036 374.447 18.1077 376.034 19.3771C376.986 20.3291 379.05 20.1705 380.161 20.9638C381.431 21.9159 381.748 23.1853 381.748 24.772C381.907 26.9934 382.542 29.6909 382.065 31.9123C381.272 35.8792 375.875 39.5287 372.066 40.1634C367.463 40.9567 362.86 42.0674 358.575 39.846C355.876 38.418 353.813 35.5618 350.321 36.0378C348.258 36.3552 346.829 37.6246 345.083 38.5766C343.179 39.37 341.433 39.6873 339.528 40.798C337.782 41.7501 336.195 42.5435 334.29 43.3368C331.751 44.2889 329.052 45.3996 326.513 46.0343C323.338 46.669 320.323 46.0343 317.148 46.193C314.291 46.193 312.228 45.2409 309.529 44.9236C306.514 44.6062 303.498 43.4955 300.482 43.9715C298.26 44.2889 296.038 45.0822 293.657 45.2409C287.308 46.0343 286.832 39.0526 286.673 34.2924C286.515 30.9603 286.356 27.9455 287.15 24.6133C287.785 22.0745 288.419 19.5358 288.419 16.8383C288.419 14.2995 288.578 11.6021 288.261 9.06329C288.102 8.11125 287.785 7.00053 287.943 6.04849C288.261 4.46175 289.372 3.03369 290.8 1.92297C293.816 -0.298462 297.308 -3.78928 300.8 -5.21735C304.609 -6.80409 306.831 -2.99592 308.736 -0.457138C309.847 0.970924 311.434 2.71633 313.339 2.39899C315.085 2.08163 316.354 0.812248 318.259 0.812248C320.323 0.653572 321.91 1.7643 322.703 3.66838C323.021 4.46175 323.021 5.25511 323.497 6.04849C323.973 6.84186 324.767 7.15921 324.608 8.26993C324.291 10.4914 320.957 9.69798 319.37 9.53931C316.513 9.38063 316.037 9.53932 314.767 12.0781C313.974 13.5062 313.021 15.8863 314.767 16.997C316.037 17.7904 319.053 16.8383 320.323 16.8383C326.195 17.1557 332.068 17.473 334.29 10.8087C334.925 8.74594 334.131 7.7939 334.131 5.88982C334.131 3.82706 335.56 1.92297 335.401 -0.298462C335.242 -3.15459 332.385 -5.69338 330.798 -7.91481C328.894 -10.6123 326.354 -13.3097 323.973 -15.5312C322.227 -17.1179 320.799 -17.5939 318.735 -18.546C316.672 -19.498 316.196 -21.5608 314.609 -22.9888C311.752 -25.5276 308.577 -25.2103 304.927 -25.6863C301.435 -26.1623 299.213 -25.0516 296.038 -23.7822C289.372 -21.0847 282.705 -17.9113 276.833 -13.7857C271.912 -10.1362 266.992 -6.01072 261.278 -3.47194C258.58 -2.20255 255.881 -1.40919 253.024 -0.77449C252.072 -0.615814 252.072 -0.933167 251.278 -0.139793C250.802 0.336227 249.691 2.39899 249.533 3.19235C248.898 5.09644 249.215 7.7939 249.056 9.85666C248.739 11.7607 249.215 13.6648 249.215 15.5689C249.374 18.425 249.533 21.1225 249.691 23.8199C250.009 28.2628 245.882 31.2776 245.247 35.7205C244.453 42.0674 246.993 46.9863 248.739 53.0159C250.167 57.7762 251.755 62.3777 252.548 67.2966C253.024 70.3114 252.866 73.1675 253.501 76.341C254.453 80.1492 256.358 83.7987 257.786 87.4482C258.897 90.3043 260.484 93.1604 262.548 95.5405C263.976 97.1273 265.405 97.9206 266.674 99.666C268.897 102.84 271.119 106.013 273.5 109.028C274.769 110.615 276.515 111.567 278.261 112.677C280.007 113.788 281.912 114.899 283.658 116.009C288.261 119.024 293.34 124.419 299.054 124.419C300.8 124.419 302.546 124.102 304.133 124.26C305.561 124.419 306.672 125.054 308.101 125.371C309.212 125.689 310.164 125.847 311.275 126.323C313.021 126.958 314.291 127.117 316.196 127.275C317.624 127.434 319.211 127.91 320.481 128.545C321.116 128.862 322.227 129.814 323.021 129.814C323.973 129.973 324.132 129.338 324.925 129.021C325.878 128.545 326.83 128.386 327.782 128.069C330.322 126.958 333.973 126.323 336.83 127.593C338.417 128.227 339.21 129.021 340.798 129.338C343.972 130.131 345.559 130.131 348.734 129.021C348.734 129.179 348.575 129.179 348.575 129.179C318.735 136.32 287.308 132.512 260.167 118.707C260.008 117.755 259.691 116.803 259.532 115.851C259.056 112.995 257.627 111.091 255.881 108.71C253.659 105.696 251.755 102.522 250.167 99.19C248.739 96.1752 246.834 93.6364 244.93 90.939C242.39 87.6068 240.803 83.7986 238.263 80.4665C235.882 77.293 232.708 75.0716 229.851 72.3741C225.565 68.566 223.343 63.0124 221.121 57.9348C220.01 55.7134 219.851 53.0159 218.74 50.7945C217.947 49.3664 217.153 48.2557 216.518 46.8277C214.931 43.4955 212.392 39.37 209.693 36.6725C207.947 34.7684 205.725 35.2445 203.662 34.4511C201.44 33.6577 200.646 30.8016 199.218 29.2149C197.472 27.3108 194.456 26.9934 192.075 27.4695C185.885 -6.48674 193.662 -41.871 213.82 -70.115C215.883 -67.2588 216.677 -61.2292 218.106 -59.6425C218.899 -58.6904 220.169 -58.2144 220.963 -57.1037C221.756 -55.993 221.915 -55.0409 222.55 -53.9302C223.343 -52.1848 224.296 -50.1221 226.359 -50.2807C228.422 -50.5981 230.01 -53.9302 231.914 -51.8675C232.867 -50.9154 232.708 -49.17 233.978 -48.218C234.93 -47.2659 235.724 -46.6312 236.517 -45.5205C237.787 -43.6164 238.422 -41.871 239.533 -39.9669C240.009 -39.0149 240.803 -38.5389 241.596 -37.9042C242.231 -37.4281 243.184 -36.0001 243.819 -35.6827C246.358 -34.4133 247.152 -37.7455 247.787 -39.3322C248.104 -40.1256 248.421 -41.395 248.739 -42.1884C249.215 -43.1404 249.85 -43.2991 250.485 -43.9338C252.231 -45.8379 252.707 -48.3766 253.024 -50.9154C253.342 -54.5649 253.818 -58.5318 255.088 -62.0226C255.723 -63.6093 255.881 -64.72 256.992 -65.8308C257.786 -66.7828 258.738 -67.5762 259.532 -68.5282C260.484 -69.6389 261.278 -70.591 262.072 -71.8604C263.183 -73.4471 264.77 -74.7165 265.881 -76.3032C266.833 -77.7313 268.42 -81.0634 268.262 -82.8089C268.103 -83.6022 267.627 -84.2369 267.627 -85.189C267.627 -86.141 268.103 -86.617 267.944 -87.5691C267.468 -89.6318 263.818 -91.6946 262.23 -92.6466C259.849 -94.2334 256.516 -95.5028 253.659 -95.9788C250.485 -96.4548 247.945 -96.2961 244.771 -96.2961C243.66 -96.2961 241.438 -96.4548 240.009 -97.2482C240.962 -98.0415 242.073 -98.8349 243.184 -99.6283C264.294 -114.385 287.626 -122.319 311.117 -123.747ZM301.911 -35.2067C301.435 -34.4133 302.07 -32.8266 302.546 -32.1919C303.657 -30.9225 306.038 -31.0812 307.625 -30.6052C309.371 -30.1292 310.958 -30.2878 312.545 -31.0812L311.117 -31.5572C313.18 -31.5572 315.561 -30.9225 316.513 -33.4613C316.989 -34.8894 316.354 -35.8414 315.085 -36.4761C313.18 -37.5868 310.958 -38.8562 308.736 -39.0149C307.149 -39.0149 306.038 -38.2215 304.768 -37.2695C304.133 -36.7934 302.387 -36.0001 301.911 -35.2067ZM344.924 -99.787C344.29 -98.3589 344.29 -96.6135 344.607 -95.0267C344.924 -93.916 345.718 -92.1706 346.353 -91.2186C347.94 -88.9971 351.273 -88.2038 353.654 -87.5691C355.083 -87.0931 358.733 -86.617 355.718 -88.9971C356.829 -89.3145 357.781 -89.3145 358.575 -90.1079C359.051 -90.5839 359.686 -91.3772 360.162 -91.8533C361.273 -93.1227 361.749 -94.7094 362.86 -96.1375C363.654 -97.0895 364.606 -98.3589 365.558 -99.1523C366.511 -99.9456 367.463 -100.263 367.463 -101.532C367.463 -102.326 367.146 -102.802 366.511 -103.119C365.717 -103.436 364.447 -103.278 363.654 -103.278C362.701 -103.436 361.749 -103.436 360.797 -103.436C358.098 -103.595 355.241 -102.643 352.543 -102.643C350.956 -102.643 349.845 -102.802 348.258 -102.326C346.829 -101.85 345.559 -101.215 344.924 -99.787ZM264.452 -102.167C263.341 -99.787 264.929 -96.6135 266.04 -94.392C267.786 -91.2186 271.119 -88.3624 273.817 -86.141C274.928 -85.189 276.039 -84.5543 277.468 -84.2369C278.896 -83.7609 280.325 -82.8089 278.896 -84.3956C280.959 -85.0303 282.705 -85.8237 284.61 -86.617C286.991 -87.7277 289.53 -88.2038 291.911 -89.1558C295.879 -90.5839 300.8 -92.1706 303.657 -95.6614C305.561 -97.8829 306.672 -101.532 305.72 -104.23C305.085 -106.134 303.657 -108.197 301.911 -109.466C299.847 -111.053 297.308 -111.687 294.768 -112.322C292.387 -112.957 289.689 -112.957 287.308 -112.164C285.562 -111.529 283.975 -110.577 282.229 -110.101C281.277 -109.783 280.483 -109.625 279.69 -109.307C278.579 -108.831 277.468 -108.99 276.357 -108.99C274.611 -108.99 273.341 -108.99 271.912 -108.038C270.484 -107.086 269.214 -106.134 267.944 -105.182C266.516 -104.388 265.087 -103.595 264.452 -102.167Z" fill="url(#paint11_linear_20893_365622)"/>
<path opacity="0.3" fill-rule="evenodd" clip-rule="evenodd" d="M361.113 32.5467C359.844 32.7053 359.209 32.864 358.098 32.5467C357.145 32.388 356.193 32.0706 355.241 31.7533C353.654 31.2773 351.59 30.4839 350.003 30.4839C348.257 30.3252 347.622 31.2773 346.352 32.0706C345.559 32.5467 344.765 32.864 343.813 33.1814C343.337 33.34 342.86 33.4987 342.384 33.816C341.908 34.1334 341.432 34.6094 340.956 34.7681C339.845 35.2441 338.575 35.0854 337.305 35.5615C336.353 35.8788 335.559 36.5135 334.607 36.5135C333.813 36.5135 333.178 36.0375 332.544 35.8788C331.591 35.5615 330.639 35.5615 329.687 35.5615C326.512 35.5615 323.655 37.3069 320.639 37.4656C317.782 37.6242 315.878 33.9747 314.132 32.388C313.814 32.0706 313.338 32.0706 313.179 31.5946C313.021 31.2773 313.021 30.6426 312.862 30.1665C312.703 29.3732 312.227 28.7385 311.751 28.2625C311.433 27.9451 311.275 28.4211 310.957 27.6278C310.799 27.3104 311.116 26.3584 311.275 26.041C311.751 24.7716 312.703 24.2956 313.814 23.9783C315.084 23.5023 316.195 23.0262 317.465 22.7089C318.576 22.2329 319.687 22.2329 320.798 21.5982C321.909 21.1221 322.703 20.1701 323.655 19.6941C326.195 18.4247 328.258 18.9007 330.956 19.3767C333.496 19.8528 336.353 21.2808 338.575 19.3767C339.527 18.5834 339.21 18.266 339.527 17.314C339.845 16.3619 340.638 15.2512 340.797 14.1405C340.797 13.6645 340.48 12.5538 340.321 12.0777C340.003 11.1257 339.686 10.1737 339.527 9.2216C339.369 8.11089 340.003 7.63487 340.162 6.68283C340.321 6.04813 340.003 6.20681 340.003 5.73079C339.845 4.93742 340.003 4.77873 340.162 3.98537C340.48 2.71598 340.638 1.76394 341.273 0.653217C341.749 -0.298824 342.226 -0.933514 342.384 -2.04423C342.543 -3.31362 342.702 -4.58302 342.702 -5.85241C342.702 -7.1218 342.384 -8.54986 341.908 -9.66058C341.591 -10.2953 341.115 -10.6126 340.797 -11.2473C339.686 -12.8341 339.527 -14.7381 339.21 -16.6422C338.575 -19.3397 338.892 -24.0999 335.242 -24.4172C334.131 -24.5759 333.178 -23.7825 332.067 -24.0999C329.687 -24.7346 329.369 -27.2734 328.893 -29.3361C328.099 -32.6683 328.417 -36.1591 328.734 -39.6499C329.052 -41.8714 329.21 -43.7754 331.115 -45.2035C334.607 -48.0596 339.21 -46.7902 343.178 -48.853C346.829 -50.7571 349.368 -54.8826 352.384 -57.8974C353.812 -59.3255 356.193 -60.9122 358.415 -60.9122C359.05 -60.9122 360.161 -60.7535 360.955 -60.5949C362.701 -59.9602 362.859 -58.8495 363.812 -57.7387C364.605 -56.9454 365.24 -56.9454 366.034 -56.7867C368.573 -56.152 370.002 -52.6612 371.272 -50.9158C373.335 -48.2183 375.875 -45.3622 378.89 -43.9341C382.541 -42.1887 386.192 -40.7606 390.16 -39.4913C393.017 -38.5392 395.874 -37.5872 398.572 -36.3178C400.477 -35.3657 401.905 -33.779 403.175 -32.1923C404.921 -29.9708 405.873 -27.432 405.238 -24.4172C404.603 -21.7198 403.016 -21.7198 400.635 -20.9264C399.842 -20.6091 398.254 -20.2917 397.778 -19.3397C397.143 -18.0703 398.889 -16.3249 399.524 -15.3728C400.159 -14.5795 401.905 -12.9927 401.111 -11.7233C400.635 -10.7713 398.731 -9.97792 397.937 -9.34322C397.143 -8.70853 396.35 -7.91517 395.397 -7.91517C394.604 -7.91517 394.128 -8.54986 393.493 -8.86721C392.382 -9.50191 391.271 -9.02588 390.001 -9.02588C389.049 -9.02588 388.255 -9.34324 387.303 -9.50191C386.192 -9.66058 384.922 -9.66057 383.811 -10.1366C382.065 -10.93 381.43 -12.6754 379.367 -12.9927C378.732 -13.1514 377.779 -12.9927 377.144 -13.3101C376.668 -13.4687 376.192 -13.9448 375.716 -14.2621C374.605 -15.0555 372.7 -16.1662 371.272 -15.3728C369.843 -14.5795 370.161 -12.0407 370.637 -10.7713C371.113 -9.66058 372.065 -8.07384 371.113 -7.1218C370.319 -6.16976 369.05 -6.16976 368.573 -4.90036C367.145 -0.933521 372.065 1.12924 373.97 3.8267C376.668 7.79354 374.922 12.3951 373.494 16.3619C373.335 16.6793 373.335 17.1553 373.335 17.6313C373.018 18.266 372.7 18.4247 372.383 18.9007C371.907 19.6941 372.065 20.6461 372.224 21.4395C372.383 22.5502 372.541 23.3436 373.176 24.2956C373.811 25.4063 374.922 26.3584 375.398 27.4691C376.51 29.6905 374.764 32.0706 372.7 32.864C371.272 33.34 369.367 32.5467 367.939 32.864C366.827 33.0227 365.558 33.34 364.447 33.34C363.812 33.34 363.018 33.0227 362.383 32.864C361.272 32.7053 360.32 33.0227 361.113 32.5467Z" fill="url(#paint12_linear_20893_365622)"/>
<path opacity="0.3" fill-rule="evenodd" clip-rule="evenodd" d="M295.88 -32.8263C294.928 -31.8742 294.293 -31.0808 293.182 -30.4461C292.23 -29.9701 291.277 -29.4941 290.484 -28.8594C288.103 -27.2727 286.198 -25.2099 283.817 -23.4645C282.389 -22.5125 281.119 -22.0364 279.532 -21.4017C277.627 -20.4497 276.357 -18.7043 274.77 -17.4349C272.389 -15.8482 270.008 -14.1027 266.993 -14.1027C265.882 -14.1027 264.929 -14.4201 264.136 -15.3721C263.501 -16.1655 263.342 -17.2762 262.707 -18.2283C262.072 -19.0216 261.279 -19.0216 260.326 -19.4977C259.215 -20.1323 258.263 -20.7671 257.311 -21.4017C256.358 -22.0364 255.723 -22.1951 254.612 -22.3538C253.66 -22.5125 252.708 -23.1472 251.755 -22.8298C250.644 -22.3538 250.803 -21.0844 250.644 -20.1324C250.168 -18.2283 249.692 -16.3242 250.009 -14.2614C250.327 -12.992 250.644 -12.516 251.597 -11.7226C252.549 -11.0879 253.501 -10.4532 253.501 -9.02518C253.66 -7.27977 253.343 -5.37568 252.549 -3.78894C252.39 -3.63026 251.914 -2.8369 251.914 -2.8369C251.279 -2.36088 251.755 -2.67823 250.962 -2.51955C250.168 -2.51955 249.533 -2.51955 248.898 -2.04353C247.946 -1.25016 246.835 0.336571 246.359 1.44729C246.041 2.24066 245.724 3.1927 245.724 3.98607C245.724 5.09679 245.407 5.89016 245.407 7.00088C245.565 9.06364 244.93 10.8091 245.248 13.0305C245.565 15.4106 245.565 17.9494 245.565 20.4882C245.407 25.7244 246.2 30.6433 243.978 35.5622C243.502 36.8316 241.756 38.7356 240.327 38.7356C239.693 38.7356 238.899 38.4183 238.423 38.4183C237.312 38.2596 236.518 38.7356 235.407 39.053C234.296 39.3703 232.55 39.8464 231.28 39.529C230.011 39.2117 228.741 37.9423 227.947 36.9902C227.471 36.3555 227.154 35.8795 226.677 35.2448C226.36 34.7688 225.884 34.6101 225.566 34.1341C224.297 32.5474 223.185 30.9606 221.122 30.1673C220.328 29.8499 219.694 29.8499 218.9 29.6912C217.948 29.6912 216.837 30.0086 216.043 29.8499C214.297 29.5326 213.503 26.5178 213.186 25.0897C212.71 23.0269 212.392 20.4881 210.805 19.0601C209.853 18.108 208.424 17.9494 207.313 17.156C205.726 16.0453 204.615 15.4106 202.869 14.6172C202.075 14.2999 201.758 14.2999 201.282 13.6652C199.695 11.7611 199.377 8.90497 199.218 6.52486C198.901 3.66873 198.901 0.812599 198.584 -2.04353C198.266 -5.21701 198.266 -7.59711 198.742 -10.6119C199.218 -13.468 198.901 -16.1655 198.901 -18.863C198.901 -20.9257 199.06 -23.1472 199.218 -25.2099C199.377 -27.4313 199.853 -29.4941 200.329 -31.5569C200.647 -33.3023 200.806 -34.889 201.441 -36.4758C202.075 -38.2212 203.028 -40.1253 203.504 -41.8707C203.98 -43.9334 204.615 -45.5202 205.567 -47.4242C206.361 -49.1697 208.107 -52.1845 210.646 -51.0737C212.392 -50.2804 213.503 -47.9003 214.614 -46.3135C216.36 -43.9334 219.217 -43.2987 222.074 -42.9814C224.297 -42.8227 226.677 -42.9814 228.899 -42.664C230.011 -42.5054 231.598 -42.5054 232.55 -41.8707C233.185 -41.3946 233.979 -40.2839 234.296 -39.4906C235.09 -37.5865 236.359 -35.8411 237.788 -34.413C239.216 -33.1436 241.121 -31.3982 243.026 -31.0808C244.295 -30.9222 245.565 -31.0808 246.835 -31.0808C248.581 -31.0808 250.486 -32.8263 251.438 -34.2543C253.501 -37.2691 256.2 -39.8079 258.104 -42.9814C259.215 -45.0441 257.152 -46.9482 256.835 -49.011C256.676 -50.5977 257.311 -51.8671 257.628 -53.4539C257.946 -54.7232 257.628 -56.31 257.628 -57.738C257.628 -62.3396 260.803 -65.3544 265.564 -64.8784C268.263 -64.7197 270.485 -62.9743 271.437 -60.4355C271.754 -59.3248 272.231 -58.2141 272.548 -56.9447C272.865 -55.3579 272.865 -53.9299 273.659 -52.5018C276.516 -46.9482 282.23 -44.7268 287.468 -42.3467C289.849 -41.236 292.388 -39.6492 294.293 -37.7451C295.404 -36.6344 295.721 -36.4758 295.88 -34.889C296.039 -33.7783 296.356 -33.1436 296.674 -32.0329C296.515 -31.5569 296.198 -30.4461 295.88 -32.8263Z" fill="url(#paint13_linear_20893_365622)"/>
<path opacity="0.3" fill-rule="evenodd" clip-rule="evenodd" d="M404.445 -91.8528C404.603 -91.6941 404.603 -91.5354 404.762 -91.3767C405.714 -88.838 407.302 -86.6165 409.048 -84.2364C409.365 -83.7604 409.841 -82.967 410.317 -82.491C410.635 -82.1737 410.952 -82.1737 411.428 -81.8563C412.222 -81.0629 413.016 -80.2696 413.809 -79.4762C415.238 -78.2068 416.508 -76.3027 417.619 -74.5573C419.047 -72.6532 421.428 -71.2252 422.539 -69.1624C423.809 -66.941 424.444 -64.2435 426.031 -62.1808L427.142 -60.7527C428.094 -59.4833 427.777 -58.3726 428.094 -56.6272C427.459 -55.6751 426.031 -54.2471 426.031 -53.1363C426.031 -52.6603 426.031 -52.1843 426.19 -51.867C426.507 -50.7562 426.666 -49.6455 427.142 -48.5348C427.936 -46.4721 428.729 -44.2506 429.999 -42.5052C431.11 -40.9185 432.38 -39.8078 433.491 -38.3797C435.872 -35.6822 438.252 -33.1435 439.046 -29.494C439.522 -27.4312 439.84 -25.3684 440.157 -23.3057C440.475 -22.195 440.792 -20.7669 440.792 -19.6562C440.792 -18.7041 440.633 -17.7521 440.633 -16.9587C440.633 -15.848 441.268 -14.896 441.586 -13.7852C441.903 -12.5159 441.744 -11.4051 441.268 -10.1357C440.792 -8.39032 439.205 -7.59696 438.57 -6.1689C438.253 -5.21685 438.411 -4.42349 438.57 -3.47145C439.046 0.812748 436.507 3.98623 435.713 8.11175C435.078 11.1266 436.348 13.9827 435.872 17.1561C435.554 20.1709 434.602 23.1858 433.967 26.0419C433.491 28.1046 433.65 29.2154 434.126 31.1194C434.443 33.0235 434.761 35.245 434.284 37.1491C433.808 39.2118 433.332 41.1159 433.015 43.02C432.856 44.6067 433.173 46.1935 432.856 47.7802C432.538 49.2083 431.745 50.4777 431.269 51.9057C429.999 54.9205 428.253 57.4593 426.824 60.4741C425.713 62.8542 425.555 66.0277 423.333 67.7731C422.539 68.4078 422.063 68.5665 421.11 68.8838C419.841 69.3599 418.888 70.4706 417.777 71.2639C417.142 71.7399 416.508 71.7399 415.714 72.0573C414.762 72.3747 413.968 73.0093 413.016 73.168C411.428 73.4854 409.841 72.8507 408.254 73.0093C406.508 73.168 405.08 74.1201 404.127 75.5481C403.016 76.9762 402.064 78.5629 401.112 80.1496C399.683 82.5298 399.207 85.7032 397.302 87.766C396.509 88.5594 395.556 88.8767 394.604 89.194C393.493 89.6701 392.382 90.3048 391.271 90.9395C390.16 91.5742 389.366 92.5262 388.572 93.4783C388.096 94.113 387.779 94.9063 387.461 95.8584C387.303 96.1757 387.303 96.6517 387.303 97.1278C386.985 97.7624 386.509 98.2385 386.192 98.8732C385.874 99.5079 384.922 100.936 385.081 101.729C385.398 103.316 388.096 102.047 387.938 103.316C387.779 104.268 386.192 104.744 385.715 105.379C384.922 106.013 384.128 107.283 383.652 108.235C382.541 110.139 382.541 111.091 380.478 111.884C378.732 112.519 377.145 112.836 375.24 112.995C373.018 113.154 371.748 114.582 369.843 115.375C368.891 115.851 368.097 116.645 367.145 117.279C366.193 117.914 365.24 117.914 364.288 118.39C363.653 118.707 362.542 119.342 362.066 119.977C361.748 120.453 361.907 121.246 361.907 121.722C361.748 122.833 360.955 123.309 360.32 124.102C359.368 125.372 358.415 126.165 357.146 127.117C370.319 123.15 383.176 116.803 394.921 108.235C449.046 69.0425 463.489 -4.42349 430.316 -60.9114C428.729 -63.7675 426.983 -66.465 425.079 -69.1624C424.602 -69.9558 424.126 -70.5905 423.491 -71.3838C417.777 -78.8415 411.27 -85.8232 404.445 -91.8528Z" fill="url(#paint14_linear_20893_365622)"/>
<path fill-rule="evenodd" clip-rule="evenodd" d="M1553.82 457.401L1548.41 520.527L1549.27 530.562C1538.88 583.725 1518.88 633.543 1518.88 633.543C1508.7 643.293 1466.64 662.295 1466.64 662.295L1441.52 712.896C1426.72 727.201 1393.84 732.753 1393.84 732.753L1393.56 742.004C1372.85 739.3 1341.6 726.774 1341.6 726.774L1333.49 699.445C1323.6 694.179 1287.73 669.199 1287.73 669.199L1279.9 636.959C1279.9 636.959 1253.43 612.62 1251.72 601.517C1251.51 600.236 1251.08 597.247 1250.37 592.977C1244.96 560.168 1226.67 451.28 1226.67 451.28C1226.67 451.28 1222.54 441.459 1223.04 432.776C1223.61 424.023 1226.32 397.05 1226.32 397.05C1226.32 397.05 1351.64 364.668 1373.06 362.96C1394.48 361.323 1481.73 362.462 1481.73 362.462L1483.79 299.691L1514.18 265.245C1520.37 272.362 1524.5 281.614 1527.28 290.226C1527.49 290.866 1527.63 291.435 1527.85 292.076C1529.55 297.912 1530.62 303.249 1531.33 307.164L1531.4 307.662C1531.97 311.22 1532.19 313.498 1532.19 313.498L1530.48 282.326L1542.43 263.324C1546.63 239.909 1545.92 193.792 1545.92 193.792L1554.89 186.889L1557.31 145.753L1571.97 142.764L1580.72 196.283L1587.91 209.805C1587.91 209.805 1586.13 271.508 1584.28 297.414C1582.43 323.39 1588.91 400.608 1588.91 400.608C1575.95 436.264 1553.75 457.33 1553.75 457.33L1553.82 457.401Z" fill="url(#paint15_linear_20893_365622)"/>
<path fill-rule="evenodd" clip-rule="evenodd" d="M1226.39 397.05L1260.76 412.351C1260.76 412.351 1297.13 403.028 1300.68 399.897C1304.24 396.836 1330.08 378.688 1330.08 378.688L1394.48 373.635L1398.39 391.285C1398.39 391.285 1417.04 389.577 1437.11 386.801C1457.11 384.026 1469.99 385.805 1477.46 380.467C1484.93 375.201 1482.58 371.643 1492.12 370.86C1501.66 370.006 1511.19 369.436 1511.19 369.436L1481.87 362.319C1481.87 362.319 1399.18 364.17 1373.2 362.818C1347.23 361.465 1240.05 388.083 1226.46 396.907L1226.39 397.05Z" fill="url(#paint16_linear_20893_365622)"/>
<path fill-rule="evenodd" clip-rule="evenodd" d="M1288.23 533.338L1270.15 552.482C1270.15 552.482 1318.26 558.959 1333.14 560.026C1348.01 561.094 1383.59 558.816 1383.59 558.816C1383.59 558.816 1440.17 548.639 1456.82 546.931C1473.47 545.223 1534.53 532.911 1534.53 532.911L1546.85 528.854L1534.89 522.663C1534.89 522.663 1502.37 521.808 1489.56 526.933C1476.75 532.128 1431.56 540.882 1416.04 545.01C1400.53 549.066 1370.64 549.564 1370.64 549.564C1370.64 549.564 1302.68 532.697 1288.23 533.338Z" fill="url(#paint17_linear_20893_365622)"/>
<path fill-rule="evenodd" clip-rule="evenodd" d="M1483.94 299.762L1503.93 308.231C1503.93 308.231 1515.32 305.456 1519.73 301.257C1524.14 297.058 1527.56 290.154 1527.56 290.154C1527.56 290.154 1520.44 272.505 1514.4 265.317C1514.4 265.317 1493.76 284.034 1484.01 299.762H1483.94Z" fill="url(#paint18_linear_20893_365622)"/>
<path fill-rule="evenodd" clip-rule="evenodd" d="M1530.55 282.397C1530.55 282.397 1545.92 280.048 1555.03 279.764C1564.14 279.479 1576.95 272.789 1576.95 272.789L1577.23 263.68L1542.43 263.395C1542.43 263.395 1533.61 274.64 1530.48 282.397H1530.55Z" fill="url(#paint19_linear_20893_365622)"/>
<path fill-rule="evenodd" clip-rule="evenodd" d="M1546.06 193.792L1557.38 211.228L1574.96 218.132L1584.85 221.121L1567.27 210.517L1560.65 194.29L1555.03 186.889L1546.06 193.792Z" fill="url(#paint20_linear_20893_365622)"/>
<path fill-rule="evenodd" clip-rule="evenodd" d="M1557.45 145.753L1562.08 170.093L1570.4 177.352L1572.89 164.399L1572.04 142.764L1557.45 145.753Z" fill="url(#paint21_linear_20893_365622)"/>
<path fill-rule="evenodd" clip-rule="evenodd" d="M1550.48 377.905L1535.96 392.922L1514.39 398.331L1498.88 397.833L1519.87 387.727L1528.91 376.197L1534.75 367.301L1550.48 377.905Z" fill="url(#paint22_linear_20893_365622)"/>
<path fill-rule="evenodd" clip-rule="evenodd" d="M1553.82 457.401L1548.41 520.528L1549.27 530.562C1538.88 583.725 1518.88 633.543 1518.88 633.543C1508.7 643.294 1466.64 662.296 1466.64 662.296L1441.52 712.896C1426.72 727.201 1393.84 732.753 1393.84 732.753L1393.55 742.004C1372.85 739.3 1341.6 726.774 1341.6 726.774L1333.49 699.446C1323.6 694.179 1287.73 669.199 1287.73 669.199L1279.9 636.96C1279.9 636.96 1253.43 612.62 1251.72 601.518C1251.51 600.237 1251.08 597.247 1250.37 592.977L1268.45 603.581L1276.56 589.632L1274.35 552.625L1285.6 613.047L1287.09 653.044L1295.63 663.648L1324.03 680.586L1348.51 702.221L1368.08 690.051L1371.56 583.797L1365.87 569.065L1374.41 577.961L1382.88 652.545L1387.72 694.108L1420.1 695.176L1441.38 666.068L1464.51 641.799L1493.9 610.983L1510.98 576.11L1528.06 535.046L1546.85 528.712L1534.89 522.52L1498.1 524.584L1467.57 533.053C1467.57 533.053 1426.58 542.305 1411.42 545.864C1396.33 549.422 1370.64 549.351 1370.64 549.351L1316.13 537.039L1312.78 520.883L1303.25 495.334L1301.75 435.694L1300.68 399.754L1330.08 378.546L1394.41 373.564L1398.32 391.214L1397.4 500.529L1413.98 540.455L1440.38 532.057L1469.84 498.821L1475.54 434.983L1477.32 380.396C1486.43 369.65 1491.98 370.717 1491.98 370.717L1491.55 383.812L1496.25 476.332L1503.65 451.138L1502.15 399.754L1514.39 398.117L1535.96 392.709L1547.99 382.816L1532.76 373.635L1517.17 388.865L1511.12 369.436L1508.99 343.816L1503.86 308.018L1519.59 301.043L1527.28 290.083V289.941L1527.85 291.934L1531.33 307.021V307.235V307.448L1534.61 367.088L1550.33 377.692L1550.69 407.868L1568.91 395.84L1571.33 384.595C1571.33 384.595 1565.21 361.252 1566.92 341.894C1568.55 322.536 1576.24 292.574 1576.24 292.574L1577.23 263.395L1576.81 220.552L1584.78 220.836L1578.8 215.926L1579.16 205.677C1579.16 205.677 1574.67 202.119 1572.68 197.351C1570.69 192.582 1570.33 177.067 1570.33 177.067L1572.82 164.115L1571.97 142.48L1580.72 195.998L1587.91 209.52C1587.91 209.52 1586.13 271.224 1584.28 297.129C1582.43 323.106 1588.91 400.324 1588.91 400.324C1575.95 435.979 1553.75 457.045 1553.75 457.045L1553.82 457.401Z" fill="url(#paint23_radial_20893_365622)"/>
<path fill-rule="evenodd" clip-rule="evenodd" d="M1605.2 8.3264C1605.2 8.3264 1603.07 52.024 1595.31 83.1247L1584.49 97.2161C1584.49 97.2161 1580.58 123.904 1577.73 130.737C1574.89 137.569 1561.29 130.167 1561.29 130.167C1561.29 130.167 1555.46 108.461 1551.76 81.2031C1549.19 61.6318 1547.7 39.2136 1550.48 20.0692C1550.48 20.0692 1566.84 4.55446 1580.86 2.34823C1588.05 1.2807 1594.24 2.84641 1598.58 4.62563H1598.73C1602.28 6.19134 1604.56 7.82822 1605.06 8.18406H1605.13L1605.2 8.3264Z" fill="url(#paint24_linear_20893_365622)"/>
<path fill-rule="evenodd" clip-rule="evenodd" d="M1605.2 8.32627C1605.2 8.32627 1603.07 52.0238 1595.31 83.1245L1584.49 97.216C1584.49 97.216 1580.58 123.904 1577.73 130.736C1574.89 137.569 1561.29 130.167 1561.29 130.167C1561.29 130.167 1555.46 108.461 1551.76 81.203L1558.59 108.888L1576.24 103.408L1578.37 89.0316L1585.13 28.2535L1583.57 76.5059L1593.1 65.9017L1593.74 46.4727L1598.73 4.55431H1598.87L1605.2 8.11274H1605.27L1605.2 8.32627Z" fill="url(#paint25_linear_20893_365622)"/>
<path fill-rule="evenodd" clip-rule="evenodd" d="M1652.81 602.158L1641.21 614.47L1621.93 633.543C1621.93 633.543 1620.36 648.631 1613.24 655.321C1606.13 662.011 1598.3 662.723 1598.3 662.723L1593.74 644.148C1593.74 644.148 1578.8 638.098 1573.25 633.686C1572.47 633.045 1571.9 632.476 1571.54 631.907C1569.05 627.921 1562.15 563.442 1564.28 545.792C1564.5 544.084 1564.78 542.875 1565.14 542.092C1579.65 514.051 1624.42 521.524 1624.42 521.524L1633.46 541.095C1633.46 541.095 1641.21 540.668 1647.9 543.017C1650.82 544.013 1653.6 545.579 1655.3 547.928C1656.09 548.995 1656.73 550.276 1657.01 551.771C1659.5 563.585 1652.81 602.229 1652.81 602.229V602.158Z" fill="url(#paint26_linear_20893_365622)"/>
<path fill-rule="evenodd" clip-rule="evenodd" d="M1657.01 551.699C1648.9 550.134 1627.98 551.913 1627.98 551.913L1625.56 555.4C1607.76 557.606 1566.99 546.504 1564.28 545.721C1564.5 544.013 1564.78 542.803 1565.14 542.021C1579.65 513.98 1624.42 521.453 1624.42 521.453L1633.46 541.024C1633.46 541.024 1654.59 539.957 1657.01 551.699Z" fill="url(#paint27_linear_20893_365622)"/>
<path fill-rule="evenodd" clip-rule="evenodd" d="M1652.81 602.158L1649.11 573.121L1635.24 580.309L1623.28 622.726L1614.81 631.622L1604.42 633.188L1593.67 644.076C1593.67 644.076 1578.73 638.027 1573.18 633.615L1571.47 631.835L1592.96 632.405L1608.19 619.95L1616.66 595.539L1625.41 555.4L1622.85 547.643L1647.83 542.946L1655.23 547.856C1656.02 548.924 1656.66 550.205 1656.94 551.699C1659.43 563.513 1652.74 602.158 1652.74 602.158H1652.81Z" fill="url(#paint28_linear_20893_365622)"/>
<g opacity="0.5">
<path fill-rule="evenodd" clip-rule="evenodd" d="M1390.77 524.49C1390.77 524.49 1470.36 595.776 1517.66 623.515C1564.95 651.254 1590.91 639.322 1590.91 639.322C1590.91 639.322 1632.67 651.5 1658.19 671.182C1683.72 690.803 1687.9 705.749 1703.77 725.554C1719.64 745.359 1768.04 739.946 1768.04 739.946L1878.38 797.209L1990.56 859.576C1990.56 859.576 1879.61 794.564 1867.86 774.759C1856.11 754.954 1764.96 682.93 1749.16 663.125C1733.29 643.32 1711.52 647.256 1695.71 619.579C1679.84 591.839 1662.07 560.163 1636.3 536.422C1610.53 512.681 1557.14 477.007 1528.42 461.2C1499.7 445.331 1454.12 429.524 1454.12 429.524L1374.91 411.687L1297.72 369.494H943.334C943.334 369.494 1117.14 488.939 1196.18 518.647C1226.07 529.902 1390.84 524.613 1390.84 524.613L1390.77 524.49Z" fill="url(#paint29_linear_20893_365622)" style="mix-blend-mode:screen"/>
</g>
<path fill-rule="evenodd" clip-rule="evenodd" d="M253.089 826.517C253.089 826.517 250.26 870.617 253.089 888.885C253.089 888.885 256.78 899.525 273.017 904.2V939.32C273.017 939.32 300.816 945.593 310.227 935.322C319.575 925.05 359.676 817.23 359.676 817.23L311.334 822.519L253.089 826.517Z" fill="url(#paint30_linear_20893_365622)"/>
<path fill-rule="evenodd" clip-rule="evenodd" d="M253.09 826.517C253.09 826.517 287.286 823.688 292.944 820.244L304.63 814.523L359.676 817.168C359.676 817.168 352.173 822.458 344.792 826.456C337.412 830.454 302.662 832.729 287.84 831.561C273.017 830.392 253.09 826.456 253.09 826.456V826.517Z" fill="url(#paint31_linear_20893_365622)"/>
<path fill-rule="evenodd" clip-rule="evenodd" d="M253.09 888.885L270.68 892.206L280.09 888.885L286.056 852.104V888.7L288.639 902.539L305.799 909.059C305.799 909.059 317.546 903.769 319.637 895.958C321.667 888.147 336.551 828.793 336.551 828.793L359.738 817.107C359.738 817.107 329.416 905.122 315.885 925.542L305.799 941.042L274.678 946.639L270.741 935.137L273.079 904.015C273.079 904.015 254.074 898.787 253.151 888.7L253.09 888.885Z" fill="url(#paint32_linear_20893_365622)"/>
<path fill-rule="evenodd" clip-rule="evenodd" d="M292.944 820.244C292.944 820.244 308.751 822.396 314.717 822.15C320.683 821.904 333.537 820.244 333.537 820.244C333.537 820.244 313.671 813.847 304.692 814.524C304.692 814.524 294.789 816.861 293.006 820.244H292.944Z" fill="url(#paint33_linear_20893_365622)"/>
<path fill-rule="evenodd" clip-rule="evenodd" d="M1228.05 693.397C1228.05 693.397 1234.06 705.782 1238.89 712.925C1243.72 720.069 1248.04 724.591 1248.04 724.591L1243.46 731.477L1076.46 739.083L917 753.009C917 753.009 926.25 766.216 930.104 770.019C933.906 773.822 939.148 777.162 939.148 777.162C939.148 777.162 942.488 793.35 943.67 800.031C944.852 806.711 941.82 812.878 941.82 812.878L948.86 835.746L1175.68 883.333H1320.91L1615.51 911.391L1922.29 926.808V767.347L1644.08 727.212L1228.1 693.397H1228.05Z" fill="url(#paint34_linear_20893_365622)"/>
<path fill-rule="evenodd" clip-rule="evenodd" d="M1291.05 732.556C1291.05 732.556 1277.17 725.927 1268.23 724.848C1259.29 723.768 1031.9 732.042 1018.34 732.556L988.017 730.192C988.017 730.192 981.902 723.563 975.839 724.745C969.775 725.927 964.739 728.599 964.739 728.599C964.739 728.599 962.529 735.588 960.628 737.335C958.727 739.134 950.505 740.521 950.505 740.521L944.235 745.506L934.472 739.083L923.783 745.506L917 753.009C917 753.009 933.444 755.167 938.429 756.555C943.413 757.994 1020.91 753.369 1043.72 756.555C1066.59 759.792 1092.28 759.792 1094.03 761.54C1095.83 763.338 1119.47 768.169 1128.15 767.141C1136.84 766.165 1224.76 752.958 1224.76 752.958L1275.38 742.474L1291.05 732.505V732.556Z" fill="url(#paint35_linear_20893_365622)"/>
<path fill-rule="evenodd" clip-rule="evenodd" d="M1922.75 675H1520.91C1520.91 675 1510.78 679.368 1503.64 679.933C1496.5 680.55 1412.58 681.578 1400.76 681.783C1388.94 681.989 1356.98 680.19 1336.78 681.783C1316.59 683.377 1290.84 684.353 1282.78 685.792C1274.71 687.231 1251.79 689.595 1243.52 691.033C1235.24 692.472 1226.2 691.034 1228.1 693.397C1230 695.761 1249.07 696.275 1255.69 699.564C1262.38 702.904 1292.39 705.268 1299.53 707.17C1306.67 709.071 1345.21 714.313 1354 717.191C1362.79 720.069 1369.93 722.432 1369.93 722.432C1369.93 722.432 1294.08 731.014 1284.63 733.841C1275.22 736.719 1266.64 739.083 1266.64 739.083C1266.64 739.083 1152.46 752.392 1141.25 756.709C1130.05 760.974 1123.01 762.876 1124.35 765.754C1125.74 768.632 1166.74 771.458 1176.25 772.434C1185.71 773.411 1227.59 762.465 1234.73 766.268C1241.87 770.07 1249.58 772.434 1253.59 775.775C1257.6 779.115 1270.03 776.237 1280.93 779.115C1291.82 781.993 1467.46 784.357 1476.97 786.258C1486.48 788.159 1495.06 797.204 1505.54 799.568C1516.02 801.932 1922.24 802.446 1922.24 802.446L1922.75 675.051V675Z" fill="url(#paint36_linear_20893_365622)"/>
<path fill-rule="evenodd" clip-rule="evenodd" d="M1869.26 802.96L1878.15 920.436L1774.66 922.903L1637.14 911.648L1620.34 854.812L1607.29 802.96L1605.75 859.025L1607.29 896.231L1584.01 920.436L1526.56 908.205L1505.49 799.568L1476.92 786.258L1466.59 846.692L1454.72 851.934L1458.98 882.151L1392.33 884.001L1294.75 887.29L1280.87 779.115L1272.34 777.83L1282.36 838.316L1257.54 777.214L1255.9 859.385L1246.09 815.293L1225.68 814.831L1227.38 765.497L1176.2 772.434L1179.8 807.533L1140.95 812.878L1119.06 807.533L1091.36 760.82L1045.52 758.559L1059.09 786.669L1062.38 802.394L1070.65 842.375L1033.03 834.359L1009.03 778.395L1006.98 765.6L999.528 755.579L938.429 756.555L917 753.009C917 753.009 927.175 767.398 930.104 770.019C932.982 772.64 939.148 777.162 939.148 777.162L959.24 778.652L973.064 787.491L983.393 802.394L962.17 807.533L954.05 813.34L942.642 814.779L947.987 831.07L982.211 846.743L1241.51 903.837L1547.88 929.737L1878.15 932.204L1922.24 926.757V802.343L1869.26 802.908V802.96Z" fill="url(#paint37_linear_20893_365622)"/>
<path fill-rule="evenodd" clip-rule="evenodd" d="M1100.5 812.878L1112.02 879.684C1112.02 879.684 1148.14 893.456 1162.48 896.232C1176.81 899.007 1193.36 889.602 1193.36 889.602L1219.83 887.238L1238.02 874.905L1246.14 815.242L1200.97 814.779L1100.45 812.878H1100.5Z" fill="url(#paint38_linear_20893_365622)"/>
<path fill-rule="evenodd" clip-rule="evenodd" d="M1100.5 812.878C1100.5 812.878 1144.29 796.228 1150.25 796.69C1156.21 797.153 1176.2 796.69 1176.2 796.69C1176.2 796.69 1192.39 803.833 1202.35 804.81C1212.32 805.786 1246.14 815.293 1246.14 815.293C1246.14 815.293 1222.91 819.096 1215.46 819.096L1218.49 823.875C1218.49 823.875 1202.3 826.753 1177.59 823.875C1177.59 823.875 1157.13 819.61 1100.5 812.929V812.878Z" fill="url(#paint39_linear_20893_365622)"/>
<path fill-rule="evenodd" clip-rule="evenodd" d="M943.67 806.505L960.679 804.45L970.546 805.478L962.17 807.482L954.051 813.289L942.642 814.728C942.642 814.728 940.381 810.617 943.722 806.454L943.67 806.505Z" fill="url(#paint40_linear_20893_365622)"/>
<path fill-rule="evenodd" clip-rule="evenodd" d="M1362.73 720.069L1463.81 719.246L1523.47 720.069L1594.34 726.698L1735.6 737.078H1559.96L1485.04 734.458L1378.61 724.334L1362.73 720.069Z" fill="#0B1359"/>
<path fill-rule="evenodd" clip-rule="evenodd" d="M1115.82 769.094L1176.2 772.434C1176.2 772.434 1196.39 771.972 1227.38 765.497L1257.54 777.214L1280.87 779.064L1285.5 784.408L1476.97 786.207L1550.2 775.826L1586.58 769.043L1735.6 737.078L1564.84 731.837L1535.45 737.078L1476.1 733.584L1369.83 722.432C1369.83 722.432 1297.47 730.809 1284.52 733.841C1271.57 736.873 1184.11 749.001 1184.11 749.001L1100.4 763.75C1100.4 763.75 1099.84 767.038 1115.77 769.094H1115.82Z" fill="url(#paint41_linear_20893_365622)"/>
<path fill-rule="evenodd" clip-rule="evenodd" d="M964.842 728.548L970.597 732.916L979.95 730.757L984.266 728.599L981.8 724.334C981.8 724.334 969.878 724.642 964.893 728.599L964.842 728.548Z" fill="url(#paint42_linear_20893_365622)"/>
<path fill-rule="evenodd" clip-rule="evenodd" d="M948.347 742.269H956.209L961.862 737.746C961.862 737.746 955.901 735.896 948.347 742.269Z" fill="url(#paint43_linear_20893_365622)"/>
<path fill-rule="evenodd" clip-rule="evenodd" d="M934.523 739.083L925.53 745.969L927.586 749.001H937.452L944.287 745.506L934.523 739.083Z" fill="url(#paint44_linear_20893_365622)"/>
<path fill-rule="evenodd" clip-rule="evenodd" d="M1779.49 737.49L1922.24 732.916L1922.75 749.001L1779.49 737.49Z" fill="url(#paint45_linear_20893_365622)"/>
<path fill-rule="evenodd" clip-rule="evenodd" d="M1045.52 758.559L1062.94 756.761L1075.32 754.345L1095.21 756.452L1124.14 758.559L1158.06 753.009L1100.5 763.75L1092.18 762.311L1088.58 763.75L1045.52 758.559Z" fill="url(#paint46_linear_20893_365622)"/>
<path fill-rule="evenodd" clip-rule="evenodd" d="M1476.97 786.207L1509.86 781.53L1550.2 775.826L1594.65 767.347L1537.97 773.873L1456.67 785.128L1471.73 812.878L1476.97 786.207Z" fill="url(#paint47_linear_20893_365622)"/>
<g opacity="0.5">
<path fill-rule="evenodd" clip-rule="evenodd" d="M453.286 719.714C606.366 872.794 660.258 1067.1 573.681 1153.68C487.103 1240.26 292.794 1186.37 139.714 1033.29C-13.3657 880.206 -67.2576 685.897 19.3194 599.319C105.897 512.742 300.206 566.634 453.286 719.714Z" fill="url(#paint48_radial_20893_365622)" style="mix-blend-mode:screen"/>
</g>
<g opacity="0.5">
<path fill-rule="evenodd" clip-rule="evenodd" d="M1893.69 802.984C2148.93 845.116 2340.89 969.728 2322.5 1081.3C2304.11 1192.87 2082.26 1249.15 1827.02 1207.02C1571.78 1164.89 1379.83 1040.28 1398.22 928.703C1416.61 817.131 1638.45 760.852 1893.69 802.984Z" fill="url(#paint49_radial_20893_365622)" style="mix-blend-mode:screen"/>
</g>
<g opacity="0.5">
<path fill-rule="evenodd" clip-rule="evenodd" d="M1267.98 589.03C1507.42 686.948 1666.84 851.17 1624.03 955.853C1581.22 1060.54 1352.43 1065.95 1112.99 968.032C873.56 870.114 714.142 705.892 756.948 601.208C799.755 496.524 1028.55 491.112 1267.98 589.03Z" fill="url(#paint50_radial_20893_365622)" style="mix-blend-mode:screen"/>
</g>
</g>
<rect y="721" width="1920" height="193" fill="url(#paint51_linear_20893_365622)"/>
</g>
<defs>
<linearGradient id="paint0_linear_20893_365622" x1="663.674" y1="19.7472" x2="1155.69" y2="221.893" gradientUnits="userSpaceOnUse">
<stop stop-color="#212C94" stop-opacity="0"/>
<stop offset="1" stop-color="#0B1359"/>
</linearGradient>
<linearGradient id="paint1_linear_20893_365622" x1="1005.57" y1="315.333" x2="1279.55" y2="387.701" gradientUnits="userSpaceOnUse">
<stop stop-color="#212C94" stop-opacity="0"/>
<stop offset="1" stop-color="#0B1359"/>
</linearGradient>
<linearGradient id="paint2_linear_20893_365622" x1="1535.06" y1="30.0496" x2="2188.41" y2="294.485" gradientUnits="userSpaceOnUse">
<stop stop-color="#212C94" stop-opacity="0"/>
<stop offset="1" stop-color="#0B1359"/>
</linearGradient>
<linearGradient id="paint3_linear_20893_365622" x1="137.517" y1="42.4607" x2="873.001" y2="285.893" gradientUnits="userSpaceOnUse">
<stop stop-color="#212C94" stop-opacity="0"/>
<stop offset="1" stop-color="#0B1359"/>
</linearGradient>
<radialGradient id="paint4_radial_20893_365622" cx="0" cy="0" r="1" gradientUnits="userSpaceOnUse" gradientTransform="translate(1635.5 321.5) rotate(142.729) scale(158.446 132.346)">
<stop stop-color="#7A89FF"/>
<stop offset="1" stop-color="#7A89FF" stop-opacity="0"/>
</radialGradient>
<radialGradient id="paint5_radial_20893_365622" cx="0" cy="0" r="1" gradientUnits="userSpaceOnUse" gradientTransform="translate(1388 -104.999) rotate(64.6538) scale(358.323 358.357)">
<stop stop-color="#5865D7"/>
<stop offset="0.470954" stop-color="#303DA8"/>
<stop offset="0.794818" stop-color="#1D2881"/>
<stop offset="1" stop-color="#0B1359"/>
</radialGradient>
<linearGradient id="paint6_linear_20893_365622" x1="1526.79" y1="-150.044" x2="1299.13" y2="151.873" gradientUnits="userSpaceOnUse">
<stop stop-color="#7480ED"/>
<stop offset="1" stop-color="#7480ED" stop-opacity="0"/>
</linearGradient>
<linearGradient id="paint7_linear_20893_365622" x1="1550.94" y1="-58.7658" x2="1465.48" y2="62.8565" gradientUnits="userSpaceOnUse">
<stop stop-color="#7480ED"/>
<stop offset="1" stop-color="#7480ED" stop-opacity="0"/>
</linearGradient>
<linearGradient id="paint8_linear_20893_365622" x1="1380.38" y1="-64.7605" x2="1288.9" y2="62.641" gradientUnits="userSpaceOnUse">
<stop stop-color="#7480ED"/>
<stop offset="1" stop-color="#7480ED" stop-opacity="0"/>
</linearGradient>
<linearGradient id="paint9_linear_20893_365622" x1="1618.44" y1="-101.952" x2="1438.06" y2="8.90728" gradientUnits="userSpaceOnUse">
<stop stop-color="#7480ED"/>
<stop offset="1" stop-color="#7480ED" stop-opacity="0"/>
</linearGradient>
<radialGradient id="paint10_radial_20893_365622" cx="0" cy="0" r="1" gradientUnits="userSpaceOnUse" gradientTransform="translate(279.958 -88.0164) rotate(64.6538) scale(230.243 230.265)">
<stop stop-color="#5865D7"/>
<stop offset="0.470954" stop-color="#303DA8"/>
<stop offset="0.794818" stop-color="#1D2881"/>
<stop offset="1" stop-color="#0B1359"/>
</radialGradient>
<linearGradient id="paint11_linear_20893_365622" x1="369.136" y1="-116.96" x2="222.855" y2="77.0387" gradientUnits="userSpaceOnUse">
<stop stop-color="#7480ED"/>
<stop offset="1" stop-color="#7480ED" stop-opacity="0"/>
</linearGradient>
<linearGradient id="paint12_linear_20893_365622" x1="384.656" y1="-58.3087" x2="329.741" y2="19.8406" gradientUnits="userSpaceOnUse">
<stop stop-color="#7480ED"/>
<stop offset="1" stop-color="#7480ED" stop-opacity="0"/>
</linearGradient>
<linearGradient id="paint13_linear_20893_365622" x1="275.061" y1="-62.1606" x2="216.28" y2="19.7022" gradientUnits="userSpaceOnUse">
<stop stop-color="#7480ED"/>
<stop offset="1" stop-color="#7480ED" stop-opacity="0"/>
</linearGradient>
<linearGradient id="paint14_linear_20893_365622" x1="428.027" y1="-86.058" x2="312.122" y2="-14.8248" gradientUnits="userSpaceOnUse">
<stop stop-color="#7480ED"/>
<stop offset="1" stop-color="#7480ED" stop-opacity="0"/>
</linearGradient>
<linearGradient id="paint15_linear_20893_365622" x1="1344.5" y1="332.929" x2="1487.97" y2="650.552" gradientUnits="userSpaceOnUse">
<stop stop-color="#5865D7"/>
<stop offset="1" stop-color="#1D2881"/>
</linearGradient>
<linearGradient id="paint16_linear_20893_365622" x1="1320.95" y1="378.197" x2="2072.06" y2="-256.596" gradientUnits="userSpaceOnUse">
<stop stop-color="#6877F3"/>
<stop offset="1" stop-color="#1D2881"/>
</linearGradient>
<linearGradient id="paint17_linear_20893_365622" x1="1362.03" y1="534.574" x2="1933.96" y2="-88.5919" gradientUnits="userSpaceOnUse">
<stop stop-color="#6877F3"/>
<stop offset="1" stop-color="#1D2881"/>
</linearGradient>
<linearGradient id="paint18_linear_20893_365622" x1="1498.42" y1="278.935" x2="1691.26" y2="249.833" gradientUnits="userSpaceOnUse">
<stop stop-color="#6877F3"/>
<stop offset="1" stop-color="#1D2881"/>
</linearGradient>
<linearGradient id="paint19_linear_20893_365622" x1="1546" y1="269.425" x2="1732.5" y2="201.297" gradientUnits="userSpaceOnUse">
<stop stop-color="#6877F3"/>
<stop offset="1" stop-color="#1D2881"/>
</linearGradient>
<linearGradient id="paint20_linear_20893_365622" x1="1558.94" y1="197.752" x2="1729.46" y2="169.068" gradientUnits="userSpaceOnUse">
<stop stop-color="#6877F3"/>
<stop offset="1" stop-color="#1D2881"/>
</linearGradient>
<linearGradient id="paint21_linear_20893_365622" x1="1562.58" y1="153.74" x2="1632.09" y2="149.132" gradientUnits="userSpaceOnUse">
<stop stop-color="#6877F3"/>
<stop offset="1" stop-color="#1D2881"/>
</linearGradient>
<linearGradient id="paint22_linear_20893_365622" x1="1516.01" y1="377.148" x2="1735.87" y2="322.872" gradientUnits="userSpaceOnUse">
<stop stop-color="#6877F3"/>
<stop offset="1" stop-color="#1D2881"/>
</linearGradient>
<radialGradient id="paint23_radial_20893_365622" cx="0" cy="0" r="1" gradientUnits="userSpaceOnUse" gradientTransform="translate(1419.71 221.848) rotate(80.9585) scale(496.09 225.584)">
<stop stop-color="#5865D7"/>
<stop offset="0.470954" stop-color="#303DA8"/>
<stop offset="0.794818" stop-color="#1D2881"/>
<stop offset="1" stop-color="#0B1359"/>
</radialGradient>
<linearGradient id="paint24_linear_20893_365622" x1="1590.96" y1="25.1419" x2="1657.54" y2="-78.148" gradientUnits="userSpaceOnUse">
<stop stop-color="#5865D7"/>
<stop offset="1" stop-color="#1D2881"/>
</linearGradient>
<linearGradient id="paint25_linear_20893_365622" x1="1569.53" y1="45.5164" x2="1607.52" y2="102.62" gradientUnits="userSpaceOnUse">
<stop stop-color="#5865D7"/>
<stop offset="1" stop-color="#1D2881"/>
</linearGradient>
<linearGradient id="paint26_linear_20893_365622" x1="1594.99" y1="565.716" x2="1627.28" y2="642.897" gradientUnits="userSpaceOnUse">
<stop stop-color="#5865D7"/>
<stop offset="1" stop-color="#1D2881"/>
</linearGradient>
<linearGradient id="paint27_linear_20893_365622" x1="1595.07" y1="531.701" x2="1958.51" y2="389.314" gradientUnits="userSpaceOnUse">
<stop stop-color="#6877F3"/>
<stop offset="1" stop-color="#1D2881"/>
</linearGradient>
<linearGradient id="paint28_linear_20893_365622" x1="1600.03" y1="575.039" x2="1982.85" y2="526.693" gradientUnits="userSpaceOnUse">
<stop stop-color="#6877F3"/>
<stop offset="1" stop-color="#1D2881"/>
</linearGradient>
<linearGradient id="paint29_linear_20893_365622" x1="1128" y1="404.5" x2="1775" y2="718.5" gradientUnits="userSpaceOnUse">
<stop stop-color="#212C94" stop-opacity="0"/>
<stop offset="1" stop-color="#0B1359"/>
</linearGradient>
<linearGradient id="paint30_linear_20893_365622" x1="247" y1="858.5" x2="234.5" y2="924.5" gradientUnits="userSpaceOnUse">
<stop stop-color="#6877F3"/>
<stop offset="1" stop-color="#1D2881"/>
</linearGradient>
<linearGradient id="paint31_linear_20893_365622" x1="336.501" y1="839.5" x2="220.501" y2="832" gradientUnits="userSpaceOnUse">
<stop stop-color="#6877F3"/>
<stop offset="1" stop-color="#1D2881"/>
</linearGradient>
<linearGradient id="paint32_linear_20893_365622" x1="306.198" y1="1063.65" x2="306.198" y2="862.859" gradientUnits="userSpaceOnUse">
<stop stop-color="#6877F3"/>
<stop offset="1" stop-color="#1D2881"/>
</linearGradient>
<linearGradient id="paint33_linear_20893_365622" x1="306.423" y1="816.916" x2="420.188" y2="727.835" gradientUnits="userSpaceOnUse">
<stop stop-color="#9DA8FF"/>
<stop offset="1" stop-color="#1D2881"/>
</linearGradient>
<linearGradient id="paint34_linear_20893_365622" x1="1250.8" y1="767.469" x2="1520" y2="1196.5" gradientUnits="userSpaceOnUse">
<stop stop-color="#6877F3"/>
<stop offset="1" stop-color="#1D2881"/>
</linearGradient>
<linearGradient id="paint35_linear_20893_365622" x1="1041.2" y1="738.148" x2="1669.14" y2="-78.9059" gradientUnits="userSpaceOnUse">
<stop stop-color="#6877F3"/>
<stop offset="1" stop-color="#1D2881"/>
</linearGradient>
<linearGradient id="paint36_linear_20893_365622" x1="1389.34" y1="715.444" x2="3324.74" y2="-1085" gradientUnits="userSpaceOnUse">
<stop stop-color="#6877F3"/>
<stop offset="1" stop-color="#1D2881"/>
</linearGradient>
<linearGradient id="paint37_linear_20893_365622" x1="1435" y1="1139.5" x2="1435" y2="882" gradientUnits="userSpaceOnUse">
<stop stop-color="#6877F3"/>
<stop offset="1" stop-color="#1D2881"/>
</linearGradient>
<linearGradient id="paint38_linear_20893_365622" x1="1173" y1="972.5" x2="1173" y2="842.5" gradientUnits="userSpaceOnUse">
<stop stop-color="#6877F3"/>
<stop offset="1" stop-color="#1D2881"/>
</linearGradient>
<linearGradient id="paint39_linear_20893_365622" x1="1148.86" y1="805.717" x2="1566.46" y2="488.61" gradientUnits="userSpaceOnUse">
<stop stop-color="#9DA8FF"/>
<stop offset="1" stop-color="#1D2881"/>
</linearGradient>
<linearGradient id="paint40_linear_20893_365622" x1="951.408" y1="807.712" x2="1062" y2="761.942" gradientUnits="userSpaceOnUse">
<stop stop-color="#9DA8FF"/>
<stop offset="1" stop-color="#1D2881"/>
</linearGradient>
<linearGradient id="paint41_linear_20893_365622" x1="1311.31" y1="742.671" x2="1722.5" y2="850" gradientUnits="userSpaceOnUse">
<stop stop-color="#6877F3"/>
<stop offset="1" stop-color="#1D2881"/>
</linearGradient>
<linearGradient id="paint42_linear_20893_365622" x1="971.291" y1="727.057" x2="1050.2" y2="700.542" gradientUnits="userSpaceOnUse">
<stop stop-color="#9DA8FF"/>
<stop offset="1" stop-color="#1D2881"/>
</linearGradient>
<linearGradient id="paint43_linear_20893_365622" x1="952.834" y1="739.011" x2="1004.75" y2="717.179" gradientUnits="userSpaceOnUse">
<stop stop-color="#9DA8FF"/>
<stop offset="1" stop-color="#1D2881"/>
</linearGradient>
<linearGradient id="paint44_linear_20893_365622" x1="931.758" y1="742.23" x2="1010.36" y2="720.161" gradientUnits="userSpaceOnUse">
<stop stop-color="#9DA8FF"/>
<stop offset="1" stop-color="#1D2881"/>
</linearGradient>
<linearGradient id="paint45_linear_20893_365622" x1="1779.49" y1="740.984" x2="1922.75" y2="740.984" gradientUnits="userSpaceOnUse">
<stop stop-color="#0059A2"/>
<stop offset="1" stop-color="#000E77"/>
</linearGradient>
<linearGradient id="paint46_linear_20893_365622" x1="1082.89" y1="756.418" x2="1231.65" y2="524.99" gradientUnits="userSpaceOnUse">
<stop stop-color="#9DA8FF"/>
<stop offset="1" stop-color="#1D2881"/>
</linearGradient>
<linearGradient id="paint47_linear_20893_365622" x1="1525.63" y1="812.878" x2="1525.63" y2="767.347" gradientUnits="userSpaceOnUse">
<stop stop-color="#0059A2"/>
<stop offset="1" stop-color="#000E77"/>
</linearGradient>
<radialGradient id="paint48_radial_20893_365622" cx="0" cy="0" r="1" gradientUnits="userSpaceOnUse" gradientTransform="translate(266 906.5) rotate(140.157) scale(207.576 177.814)">
<stop stop-color="#7A89FF"/>
<stop offset="1" stop-color="#7A89FF" stop-opacity="0"/>
</radialGradient>
<radialGradient id="paint49_radial_20893_365622" cx="0" cy="0" r="1" gradientUnits="userSpaceOnUse" gradientTransform="translate(1815.99 1025.35) rotate(158.745) scale(248.789 146.375)">
<stop stop-color="#7A89FF"/>
<stop offset="1" stop-color="#7A89FF" stop-opacity="0"/>
</radialGradient>
<radialGradient id="paint50_radial_20893_365622" cx="0" cy="0" r="1" gradientUnits="userSpaceOnUse" gradientTransform="translate(1148.31 802.976) rotate(153.819) scale(245.62 169.35)">
<stop stop-color="#7A89FF"/>
<stop offset="1" stop-color="#7A89FF" stop-opacity="0"/>
</radialGradient>
<linearGradient id="paint51_linear_20893_365622" x1="960" y1="721" x2="960" y2="914" gradientUnits="userSpaceOnUse">
<stop stop-color="#0B1359" stop-opacity="0"/>
<stop offset="0.8125" stop-color="#0B1359"/>
</linearGradient>
</defs>
</svg>
