<svg width="384" height="300" viewBox="0 0 384 300" fill="none" xmlns="http://www.w3.org/2000/svg">
<path d="M0 38.4C0 24.9587 0 18.2381 2.61584 13.1042C4.9168 8.58834 8.58834 4.9168 13.1042 2.61584C18.2381 0 24.9587 0 38.4 0H345.6C359.041 0 365.762 0 370.896 2.61584C375.412 4.9168 379.083 8.58834 381.384 13.1042C384 18.2381 384 24.9587 384 38.4V261.6C384 275.041 384 281.762 381.384 286.896C379.083 291.412 375.412 295.083 370.896 297.384C365.762 300 359.041 300 345.6 300H38.4C24.9587 300 18.2381 300 13.1042 297.384C8.58834 295.083 4.9168 291.412 2.61584 286.896C0 281.762 0 275.041 0 261.6V38.4Z" fill="#CB0003"/>
<g opacity="0.6">
<mask id="mask0_15013_11273" style="mask-type:alpha" maskUnits="userSpaceOnUse" x="0" y="0" width="384" height="300">
<path d="M0 38.4C0 24.9587 0 18.2381 2.61584 13.1042C4.9168 8.58834 8.58834 4.9168 13.1042 2.61584C18.2381 0 24.9587 0 38.4 0H345.6C359.041 0 365.762 0 370.896 2.61584C375.412 4.9168 379.083 8.58834 381.384 13.1042C384 18.2381 384 24.9587 384 38.4V261.6C384 275.041 384 281.762 381.384 286.896C379.083 291.412 375.412 295.083 370.896 297.384C365.762 300 359.041 300 345.6 300H38.4C24.9587 300 18.2381 300 13.1042 297.384C8.58834 295.083 4.9168 291.412 2.61584 286.896C0 281.762 0 275.041 0 261.6V38.4Z" fill="#0B0058"/>
</mask>
<g mask="url(#mask0_15013_11273)">
<path d="M505.694 134.814V134.518L457.498 33.3953L356.375 -14.8006L308.179 -115.924L206.761 -164.12V-164.415L158.565 -265.538L159.747 -266.425L207.944 -165.302L309.066 -117.106L309.362 -116.811L357.558 -15.6877L458.681 32.5083L506.877 133.631L608 181.827L607.113 183.01L505.694 134.814Z" fill="url(#paint0_linear_15013_11273)"/>
<path d="M497.12 143.389V143.093L448.924 41.9701L347.801 -6.22592L299.605 -107.349L198.186 -155.545V-155.841L149.99 -256.963L151.173 -257.85L199.369 -156.728L300.492 -108.532L300.787 -108.236L348.983 -7.11295L450.106 41.0831L498.302 142.206L599.425 190.402L598.538 191.585L497.12 143.389Z" fill="url(#paint1_linear_15013_11273)"/>
<path d="M488.545 151.963V151.668L440.349 50.5449L339.226 2.34882L291.03 -98.7741L189.611 -146.97V-147.266L141.415 -248.389L142.598 -249.276L190.794 -148.153L291.917 -99.9568L292.213 -99.6611L340.409 1.46179L441.531 49.6578L489.728 150.781L590.851 198.977L589.963 200.16L488.545 151.963Z" fill="url(#paint2_linear_15013_11273)"/>
<path d="M479.97 160.538V160.243L431.774 59.1196L330.651 10.9236L282.455 -90.1993L181.036 -138.395V-138.691L132.841 -239.814L134.023 -240.701L182.219 -139.578L283.342 -91.382L283.638 -91.0864L331.834 10.0366L432.957 58.2326L481.153 159.356L582.276 207.552L581.389 208.734L479.97 160.538Z" fill="url(#paint3_linear_15013_11273)"/>
<path d="M471.395 169.113V168.817L423.199 67.6944L322.076 19.4983L273.88 -81.6246L172.462 -129.821V-130.116L124.266 -231.239L125.449 -232.126L173.645 -131.003L274.767 -82.8073L275.063 -82.5116L323.259 18.6113L424.382 66.8073L472.578 167.93L573.701 216.126L572.814 217.309L471.395 169.113Z" fill="url(#paint4_linear_15013_11273)"/>
<path d="M462.821 177.688V177.392L414.625 76.2691L313.502 28.0731L265.306 -73.0498L163.887 -121.246V-121.542L115.691 -222.664L116.874 -223.551L165.07 -122.429L266.193 -74.2326L266.488 -73.9369L314.684 27.1861L415.807 75.382L464.003 176.505L565.126 224.701L564.239 225.884L462.821 177.688Z" fill="url(#paint5_linear_15013_11273)"/>
<path d="M454.246 186.262V185.967L406.05 84.8439L304.927 36.6478L256.731 -64.4751L155.312 -112.671V-112.967L107.116 -214.09L108.299 -214.977L156.495 -113.854L257.618 -65.6578L257.914 -65.3621L306.11 35.7608L407.233 83.9568L455.429 185.08L556.551 233.276L555.664 234.458L454.246 186.262Z" fill="url(#paint6_linear_15013_11273)"/>
<path d="M445.671 194.837V194.542L397.475 93.4186L296.352 45.2226L248.156 -55.9003L146.738 -104.096V-104.392L98.5415 -205.515L99.7242 -206.402L147.92 -105.279L249.043 -57.0831L249.339 -56.7874L297.535 44.3355L398.658 92.5316L446.854 193.654L547.977 241.851L547.09 243.033L445.671 194.837Z" fill="url(#paint7_linear_15013_11273)"/>
<path d="M437.096 203.412V203.116L388.9 101.993L287.777 53.7974L239.581 -47.3256L138.163 -95.5216V-95.8173L89.9668 -196.94L91.1495 -197.827L139.346 -96.7043L240.468 -48.5083L240.764 -48.2126L288.96 52.9103L390.083 101.106L438.279 202.229L539.402 250.425L538.515 251.608L437.096 203.412Z" fill="url(#paint8_linear_15013_11273)"/>
<path d="M428.522 211.987V211.691L380.326 110.568L279.203 62.3721L231.007 -38.7508L129.588 -86.9468V-87.2425L81.392 -188.365L82.5748 -189.252L130.771 -88.1296L231.894 -39.9336L232.189 -39.6379L280.385 61.485L381.508 109.681L429.704 210.804L530.827 259L529.94 260.183L428.522 211.987Z" fill="url(#paint9_linear_15013_11273)"/>
<path d="M419.947 220.562V220.266L371.751 119.143L270.628 70.9469L222.432 -30.1761L121.013 -78.3721V-78.6678L72.8173 -179.791L74 -180.678L122.196 -79.5548L223.319 -31.3588L223.615 -31.0631L271.811 70.0598L372.934 118.256L421.13 219.379L522.252 267.575L521.365 268.757L419.947 220.562Z" fill="url(#paint10_linear_15013_11273)"/>
<path d="M411.372 229.136V228.841L363.176 127.718L262.053 79.5216L213.857 -21.6013L112.439 -69.7973V-70.093L64.2425 -171.216L65.4252 -172.103L113.621 -70.9801L214.744 -22.7841L215.04 -22.4884L263.236 78.6345L364.359 126.831L412.555 227.954L513.678 276.15L512.791 277.332L411.372 229.136Z" fill="url(#paint11_linear_15013_11273)"/>
<path d="M402.797 237.711V237.415L354.601 136.292L253.478 88.0964L205.282 -13.0266L103.864 -61.2226V-61.5183L55.6678 -162.641L56.8505 -163.528L105.046 -62.4053L206.169 -14.2093L206.465 -13.9136L254.661 87.2093L355.784 135.405L403.98 236.528L505.103 284.724L504.216 285.907L402.797 237.711Z" fill="url(#paint12_linear_15013_11273)"/>
<path d="M394.223 246.286V245.99L346.027 144.867L244.904 96.6711L196.708 -4.45184L95.289 -52.6479V-52.9435L47.093 -154.066L48.2757 -154.953L96.4718 -53.8306L197.595 -5.63455L197.89 -5.3389L246.086 95.7841L347.209 143.98L395.405 245.103L496.528 293.299L495.641 294.482L394.223 246.286Z" fill="url(#paint13_linear_15013_11273)"/>
<path d="M385.648 254.86V254.565L337.452 153.442L236.329 105.246L188.133 4.12296L86.7142 -44.0731V-44.3688L38.5183 -145.492L39.701 -146.379L87.897 -45.2558L189.02 2.94022L189.316 3.2359L237.512 104.359L338.635 152.555L386.831 253.678L487.953 301.874L487.066 303.057L385.648 254.86Z" fill="url(#paint14_linear_15013_11273)"/>
<path d="M377.073 263.435V263.14L328.877 162.017L227.754 113.821L179.558 12.6977L78.1395 -35.4983V-35.794L29.9435 -136.917L31.1262 -137.804L79.3222 -36.6811L180.445 11.515L180.741 11.8106L228.937 112.934L330.06 161.13L378.256 262.253L479.379 310.448L478.492 311.631L377.073 263.435Z" fill="url(#paint15_linear_15013_11273)"/>
<path d="M368.498 272.01V271.714L320.302 170.591L219.179 122.395L170.983 21.2724L69.5648 -26.9236V-27.2193L21.3688 -128.342L22.5515 -129.229L70.7475 -28.1063L171.87 20.0897L172.166 20.3854L220.362 121.508L321.485 169.704L369.681 270.827L470.804 319.023L469.917 320.206L368.498 272.01Z" fill="url(#paint16_linear_15013_11273)"/>
<path d="M359.924 280.585V280.289L311.728 179.166L210.605 130.97L162.409 29.8472L60.99 -18.3488V-18.6445L12.794 -119.767L13.9767 -120.654L62.1727 -19.5316L163.296 28.6645L163.591 28.9601L211.787 130.083L312.91 178.279L361.106 279.402L462.229 327.598L461.342 328.781L359.924 280.585Z" fill="url(#paint17_linear_15013_11273)"/>
<path d="M351.349 289.159V288.864L303.153 187.741L202.03 139.545L153.834 38.422L52.4153 -9.77411V-10.0698L4.21924 -111.193L5.40198 -112.08L53.598 -10.9568L154.721 37.2392L155.017 37.5349L203.213 138.658L304.336 186.854L352.532 287.977L453.654 336.173L452.767 337.356L351.349 289.159Z" fill="url(#paint18_linear_15013_11273)"/>
<path d="M342.774 297.734V297.439L294.578 196.316L193.455 148.12L145.259 46.9967L43.8405 -1.19931V-1.495L-4.3555 -102.618L-3.17276 -103.505L45.0233 -2.38208L146.146 45.814L146.442 46.1097L194.638 147.233L295.761 195.429L343.957 296.551L445.08 344.747L444.193 345.93L342.774 297.734Z" fill="url(#paint19_linear_15013_11273)"/>
<path d="M334.199 306.309V306.013L286.003 204.89L184.88 156.694L136.684 55.5714L35.2658 7.37543V7.07977L-12.9302 -94.0432L-11.7475 -94.9302L36.4485 6.19269L137.571 54.3887L137.867 54.6844L186.063 155.807L287.186 204.003L335.382 305.126L436.505 353.322L435.618 354.505L334.199 306.309Z" fill="url(#paint20_linear_15013_11273)"/>
<path d="M325.625 314.884V314.588L277.429 213.465L176.306 165.269L128.11 64.1462L26.691 15.9502V15.6545L-21.505 -85.4684L-20.3223 -86.3555L27.8737 14.7675L128.997 62.9634L129.292 63.2592L177.488 164.382L278.611 212.578L326.807 313.701L427.93 361.897L427.043 363.08L325.625 314.884Z" fill="url(#paint21_linear_15013_11273)"/>
<path d="M317.05 323.459V323.163L268.854 222.04L167.731 173.844L119.535 72.7209L18.1163 24.5249V24.2292L-30.0797 -76.8937L-28.897 -77.7807L19.299 23.3422L120.422 71.5382L120.718 71.8339L168.914 172.957L270.037 221.153L318.233 322.276L419.356 370.472L418.468 371.655L317.05 323.459Z" fill="url(#paint22_linear_15013_11273)"/>
<path d="M308.475 332.033V331.738L260.279 230.615L159.156 182.419L110.96 81.2957L9.54152 33.0997V32.804L-38.6545 -68.3189L-37.4718 -69.206L10.7242 31.9169L111.847 80.1129L112.143 80.4087L160.339 181.532L261.462 229.728L309.658 330.851L410.781 379.047L409.894 380.229L308.475 332.033Z" fill="url(#paint23_linear_15013_11273)"/>
<path d="M299.9 340.608V340.312L251.704 239.189L150.581 190.993L102.385 89.8705L0.966782 41.6744V41.3787L-47.2293 -59.7442L-46.0465 -60.6312L2.14951 40.4917L103.272 88.6877L103.568 88.9834L151.764 190.106L252.887 238.302L301.083 339.425L402.206 387.621L401.319 388.804L299.9 340.608Z" fill="url(#paint24_linear_15013_11273)"/>
<path d="M291.326 349.183V348.887L243.13 247.764L142.007 199.568L93.8106 98.4452L-7.608 50.2492V49.9535L-55.804 -51.1694L-54.6213 -52.0565L-6.42526 49.0664L94.6977 97.2625L94.9933 97.5581L143.189 198.681L244.312 246.877L292.508 348L393.631 396.196L392.744 397.379L291.326 349.183Z" fill="url(#paint25_linear_15013_11273)"/>
<path d="M282.751 357.757V357.462L234.555 256.339L133.432 208.143L85.2359 107.02L-16.1827 58.8239V58.5283L-64.3787 -42.5947L-63.196 -43.4817L-15 57.6412L86.123 105.837L86.4186 106.133L134.615 207.256L235.738 255.452L283.934 356.575L385.056 404.771L384.169 405.953L282.751 357.757Z" fill="url(#paint26_linear_15013_11273)"/>
<path d="M274.176 366.332V366.037L225.98 264.914L124.857 216.718L76.6611 115.595L-24.7575 67.3987V67.103L-72.9535 -34.0199L-71.7708 -34.907L-23.5748 66.2159L77.5482 114.412L77.8438 114.708L126.04 215.831L227.163 264.027L275.359 365.15L376.482 413.346L375.595 414.528L274.176 366.332Z" fill="url(#paint27_linear_15013_11273)"/>
<path d="M265.601 374.907V374.611L217.405 273.488L116.282 225.292L68.0864 124.169L-33.3322 75.9734V75.6778L-81.5282 -25.4452L-80.3455 -26.3322L-32.1495 74.7907L68.9734 122.987L69.2691 123.282L117.465 224.405L218.588 272.601L266.784 373.724L367.907 421.92L367.02 423.103L265.601 374.907Z" fill="url(#paint28_linear_15013_11273)"/>
<path d="M257.027 383.482V383.186L208.831 282.063L107.708 233.867L59.5116 132.744L-41.907 84.5482V84.2525L-90.103 -16.8704L-88.9203 -17.7575L-40.7243 83.3655L60.3987 131.561L60.6944 131.857L108.89 232.98L210.013 281.176L258.209 382.299L359.332 430.495L358.445 431.678L257.027 383.482Z" fill="url(#paint29_linear_15013_11273)"/>
<path d="M248.452 392.056V391.761L200.256 290.638L99.1329 242.442L50.9369 141.319L-50.4817 93.1229V92.8272L-98.6777 -8.29568L-97.495 -9.18271L-49.299 91.9402L51.8239 140.136L52.1196 140.432L100.316 241.555L201.439 289.751L249.635 390.874L350.757 439.07L349.87 440.252L248.452 392.056Z" fill="url(#paint30_linear_15013_11273)"/>
<path d="M239.877 400.631V400.336L191.681 299.213L90.5581 251.017L42.3621 149.894L-59.0565 101.698V101.402L-107.252 0.279083L-106.07 -0.607971L-57.8738 100.515L43.2492 148.711L43.5449 149.007L91.7408 250.13L192.864 298.326L241.06 399.449L342.183 447.644L341.296 448.827L239.877 400.631Z" fill="url(#paint31_linear_15013_11273)"/>
<path d="M231.302 409.206V408.91L183.106 307.787L81.9833 259.591L33.7874 158.468L-67.6312 110.272V109.977L-115.827 8.85382L-114.645 7.96677L-66.4485 109.09L34.6744 157.286L34.9701 157.581L83.1661 258.704L184.289 306.9L232.485 408.023L333.608 456.219L332.721 457.402L231.302 409.206Z" fill="url(#paint32_linear_15013_11273)"/>
<path d="M222.728 417.781V417.485L174.532 316.362L73.4086 268.166L25.2126 167.043L-76.206 118.847V118.551L-124.402 17.4286L-123.219 16.5415L-75.0233 117.664L26.0997 165.86L26.3953 166.156L74.5914 267.279L175.714 315.475L223.91 416.598L325.033 464.794L324.146 465.977L222.728 417.781Z" fill="url(#paint33_linear_15013_11273)"/>
<path d="M214.153 426.356V426.06L165.957 324.937L64.8339 276.741L16.6379 175.618L-84.7807 127.422V127.126L-132.977 26.0033L-131.794 25.1163L-83.598 126.239L17.5249 174.435L17.8206 174.731L66.0166 275.854L167.139 324.05L215.336 425.173L316.458 473.369L315.571 474.552L214.153 426.356Z" fill="url(#paint34_linear_15013_11273)"/>
<path d="M205.578 434.93V434.635L157.382 333.512L56.2591 285.316L8.06313 184.193L-93.3555 135.997V135.701L-141.552 34.578L-140.369 33.6911L-92.1728 134.814L8.95016 183.01L9.24583 183.306L57.4419 284.429L158.565 332.625L206.761 433.747L307.884 481.943L306.997 483.126L205.578 434.93Z" fill="url(#paint35_linear_15013_11273)"/>
<path d="M197.003 443.505V443.209L148.807 342.086L47.6844 293.89L-0.511642 192.767L-101.93 144.571V144.276L-150.126 43.1528L-148.944 42.2657L-100.748 143.389L0.375427 191.585L0.671097 191.88L48.8671 293.003L149.99 341.199L198.186 442.322L299.309 490.518L298.422 491.701L197.003 443.505Z" fill="url(#paint36_linear_15013_11273)"/>
<path d="M188.429 452.08V451.784L140.233 350.661L39.1096 302.465L-9.08638 201.342L-110.505 153.146V152.851L-158.701 51.7276L-157.518 50.8405L-109.322 151.963L-8.19934 200.16L-7.90367 200.455L40.2924 301.578L141.415 349.774L189.611 450.897L290.734 499.093L289.847 500.276L188.429 452.08Z" fill="url(#paint37_linear_15013_11273)"/>
<path d="M179.854 460.655V460.359L131.658 359.236L30.5349 311.04L-17.6611 209.917L-119.08 161.721V161.425L-167.276 60.3024L-166.093 59.4153L-117.897 160.538L-16.7741 208.734L-16.4784 209.03L31.7176 310.153L132.841 358.349L181.036 459.472L282.16 507.668L281.272 508.851L179.854 460.655Z" fill="url(#paint38_linear_15013_11273)"/>
<path d="M171.279 469.229V468.934L123.083 367.811L21.9601 319.615L-26.2359 218.492L-127.654 170.296V170L-175.851 68.8771L-174.668 67.99L-126.472 169.113L-25.3489 217.309L-25.0532 217.605L23.1428 318.728L124.266 366.924L172.462 468.047L273.585 516.243L272.698 517.425L171.279 469.229Z" fill="url(#paint39_linear_15013_11273)"/>
<path d="M162.704 477.804V477.508L114.508 376.385L13.3854 328.189L-34.8106 227.066L-136.229 178.87V178.575L-184.425 77.4519L-183.243 76.5648L-135.047 177.688L-33.9236 225.884L-33.6279 226.179L14.5681 327.302L115.691 375.498L163.887 476.621L265.01 524.817L264.123 526L162.704 477.804Z" fill="url(#paint40_linear_15013_11273)"/>
</g>
</g>
<defs>
<linearGradient id="paint0_linear_15013_11273" x1="369" y1="12" x2="13" y2="292" gradientUnits="userSpaceOnUse">
<stop stop-color="#AA0003"/>
<stop offset="1" stop-color="#8A0002" stop-opacity="0"/>
</linearGradient>
<linearGradient id="paint1_linear_15013_11273" x1="369" y1="12" x2="13" y2="292" gradientUnits="userSpaceOnUse">
<stop stop-color="#AA0003"/>
<stop offset="1" stop-color="#8A0002" stop-opacity="0"/>
</linearGradient>
<linearGradient id="paint2_linear_15013_11273" x1="369" y1="12" x2="13" y2="292" gradientUnits="userSpaceOnUse">
<stop stop-color="#AA0003"/>
<stop offset="1" stop-color="#8A0002" stop-opacity="0"/>
</linearGradient>
<linearGradient id="paint3_linear_15013_11273" x1="369" y1="12" x2="13" y2="292" gradientUnits="userSpaceOnUse">
<stop stop-color="#AA0003"/>
<stop offset="1" stop-color="#8A0002" stop-opacity="0"/>
</linearGradient>
<linearGradient id="paint4_linear_15013_11273" x1="369" y1="12" x2="13" y2="292" gradientUnits="userSpaceOnUse">
<stop stop-color="#AA0003"/>
<stop offset="1" stop-color="#8A0002" stop-opacity="0"/>
</linearGradient>
<linearGradient id="paint5_linear_15013_11273" x1="369" y1="12" x2="13" y2="292" gradientUnits="userSpaceOnUse">
<stop stop-color="#AA0003"/>
<stop offset="1" stop-color="#8A0002" stop-opacity="0"/>
</linearGradient>
<linearGradient id="paint6_linear_15013_11273" x1="369" y1="12" x2="13" y2="292" gradientUnits="userSpaceOnUse">
<stop stop-color="#AA0003"/>
<stop offset="1" stop-color="#8A0002" stop-opacity="0"/>
</linearGradient>
<linearGradient id="paint7_linear_15013_11273" x1="369" y1="12" x2="13" y2="292" gradientUnits="userSpaceOnUse">
<stop stop-color="#AA0003"/>
<stop offset="1" stop-color="#8A0002" stop-opacity="0"/>
</linearGradient>
<linearGradient id="paint8_linear_15013_11273" x1="369" y1="12" x2="13" y2="292" gradientUnits="userSpaceOnUse">
<stop stop-color="#AA0003"/>
<stop offset="1" stop-color="#8A0002" stop-opacity="0"/>
</linearGradient>
<linearGradient id="paint9_linear_15013_11273" x1="369" y1="12" x2="13" y2="292" gradientUnits="userSpaceOnUse">
<stop stop-color="#AA0003"/>
<stop offset="1" stop-color="#8A0002" stop-opacity="0"/>
</linearGradient>
<linearGradient id="paint10_linear_15013_11273" x1="369" y1="12" x2="13" y2="292" gradientUnits="userSpaceOnUse">
<stop stop-color="#AA0003"/>
<stop offset="1" stop-color="#8A0002" stop-opacity="0"/>
</linearGradient>
<linearGradient id="paint11_linear_15013_11273" x1="369" y1="12" x2="13" y2="292" gradientUnits="userSpaceOnUse">
<stop stop-color="#AA0003"/>
<stop offset="1" stop-color="#8A0002" stop-opacity="0"/>
</linearGradient>
<linearGradient id="paint12_linear_15013_11273" x1="369" y1="12" x2="13" y2="292" gradientUnits="userSpaceOnUse">
<stop stop-color="#AA0003"/>
<stop offset="1" stop-color="#8A0002" stop-opacity="0"/>
</linearGradient>
<linearGradient id="paint13_linear_15013_11273" x1="369" y1="12" x2="13" y2="292" gradientUnits="userSpaceOnUse">
<stop stop-color="#AA0003"/>
<stop offset="1" stop-color="#8A0002" stop-opacity="0"/>
</linearGradient>
<linearGradient id="paint14_linear_15013_11273" x1="369" y1="12" x2="13" y2="292" gradientUnits="userSpaceOnUse">
<stop stop-color="#AA0003"/>
<stop offset="1" stop-color="#8A0002" stop-opacity="0"/>
</linearGradient>
<linearGradient id="paint15_linear_15013_11273" x1="369" y1="12" x2="13" y2="292" gradientUnits="userSpaceOnUse">
<stop stop-color="#AA0003"/>
<stop offset="1" stop-color="#8A0002" stop-opacity="0"/>
</linearGradient>
<linearGradient id="paint16_linear_15013_11273" x1="369" y1="12" x2="13" y2="292" gradientUnits="userSpaceOnUse">
<stop stop-color="#AA0003"/>
<stop offset="1" stop-color="#8A0002" stop-opacity="0"/>
</linearGradient>
<linearGradient id="paint17_linear_15013_11273" x1="369" y1="12" x2="13" y2="292" gradientUnits="userSpaceOnUse">
<stop stop-color="#AA0003"/>
<stop offset="1" stop-color="#8A0002" stop-opacity="0"/>
</linearGradient>
<linearGradient id="paint18_linear_15013_11273" x1="369" y1="12" x2="13" y2="292" gradientUnits="userSpaceOnUse">
<stop stop-color="#AA0003"/>
<stop offset="1" stop-color="#8A0002" stop-opacity="0"/>
</linearGradient>
<linearGradient id="paint19_linear_15013_11273" x1="369" y1="12" x2="13" y2="292" gradientUnits="userSpaceOnUse">
<stop stop-color="#AA0003"/>
<stop offset="1" stop-color="#8A0002" stop-opacity="0"/>
</linearGradient>
<linearGradient id="paint20_linear_15013_11273" x1="369" y1="12" x2="13" y2="292" gradientUnits="userSpaceOnUse">
<stop stop-color="#AA0003"/>
<stop offset="1" stop-color="#8A0002" stop-opacity="0"/>
</linearGradient>
<linearGradient id="paint21_linear_15013_11273" x1="369" y1="12" x2="13" y2="292" gradientUnits="userSpaceOnUse">
<stop stop-color="#AA0003"/>
<stop offset="1" stop-color="#8A0002" stop-opacity="0"/>
</linearGradient>
<linearGradient id="paint22_linear_15013_11273" x1="369" y1="12" x2="13" y2="292" gradientUnits="userSpaceOnUse">
<stop stop-color="#AA0003"/>
<stop offset="1" stop-color="#8A0002" stop-opacity="0"/>
</linearGradient>
<linearGradient id="paint23_linear_15013_11273" x1="369" y1="12" x2="13" y2="292" gradientUnits="userSpaceOnUse">
<stop stop-color="#AA0003"/>
<stop offset="1" stop-color="#8A0002" stop-opacity="0"/>
</linearGradient>
<linearGradient id="paint24_linear_15013_11273" x1="369" y1="12" x2="13" y2="292" gradientUnits="userSpaceOnUse">
<stop stop-color="#AA0003"/>
<stop offset="1" stop-color="#8A0002" stop-opacity="0"/>
</linearGradient>
<linearGradient id="paint25_linear_15013_11273" x1="369" y1="12" x2="13" y2="292" gradientUnits="userSpaceOnUse">
<stop stop-color="#AA0003"/>
<stop offset="1" stop-color="#8A0002" stop-opacity="0"/>
</linearGradient>
<linearGradient id="paint26_linear_15013_11273" x1="369" y1="12" x2="13" y2="292" gradientUnits="userSpaceOnUse">
<stop stop-color="#AA0003"/>
<stop offset="1" stop-color="#8A0002" stop-opacity="0"/>
</linearGradient>
<linearGradient id="paint27_linear_15013_11273" x1="369" y1="12" x2="13" y2="292" gradientUnits="userSpaceOnUse">
<stop stop-color="#AA0003"/>
<stop offset="1" stop-color="#8A0002" stop-opacity="0"/>
</linearGradient>
<linearGradient id="paint28_linear_15013_11273" x1="369" y1="12" x2="13" y2="292" gradientUnits="userSpaceOnUse">
<stop stop-color="#AA0003"/>
<stop offset="1" stop-color="#8A0002" stop-opacity="0"/>
</linearGradient>
<linearGradient id="paint29_linear_15013_11273" x1="369" y1="12" x2="13" y2="292" gradientUnits="userSpaceOnUse">
<stop stop-color="#AA0003"/>
<stop offset="1" stop-color="#8A0002" stop-opacity="0"/>
</linearGradient>
<linearGradient id="paint30_linear_15013_11273" x1="369" y1="12" x2="13" y2="292" gradientUnits="userSpaceOnUse">
<stop stop-color="#AA0003"/>
<stop offset="1" stop-color="#8A0002" stop-opacity="0"/>
</linearGradient>
<linearGradient id="paint31_linear_15013_11273" x1="369" y1="12" x2="13" y2="292" gradientUnits="userSpaceOnUse">
<stop stop-color="#AA0003"/>
<stop offset="1" stop-color="#8A0002" stop-opacity="0"/>
</linearGradient>
<linearGradient id="paint32_linear_15013_11273" x1="369" y1="12" x2="13" y2="292" gradientUnits="userSpaceOnUse">
<stop stop-color="#AA0003"/>
<stop offset="1" stop-color="#8A0002" stop-opacity="0"/>
</linearGradient>
<linearGradient id="paint33_linear_15013_11273" x1="369" y1="12" x2="13" y2="292" gradientUnits="userSpaceOnUse">
<stop stop-color="#AA0003"/>
<stop offset="1" stop-color="#8A0002" stop-opacity="0"/>
</linearGradient>
<linearGradient id="paint34_linear_15013_11273" x1="369" y1="12" x2="13" y2="292" gradientUnits="userSpaceOnUse">
<stop stop-color="#AA0003"/>
<stop offset="1" stop-color="#8A0002" stop-opacity="0"/>
</linearGradient>
<linearGradient id="paint35_linear_15013_11273" x1="369" y1="12" x2="13" y2="292" gradientUnits="userSpaceOnUse">
<stop stop-color="#AA0003"/>
<stop offset="1" stop-color="#8A0002" stop-opacity="0"/>
</linearGradient>
<linearGradient id="paint36_linear_15013_11273" x1="369" y1="12" x2="13" y2="292" gradientUnits="userSpaceOnUse">
<stop stop-color="#AA0003"/>
<stop offset="1" stop-color="#8A0002" stop-opacity="0"/>
</linearGradient>
<linearGradient id="paint37_linear_15013_11273" x1="369" y1="12" x2="13" y2="292" gradientUnits="userSpaceOnUse">
<stop stop-color="#AA0003"/>
<stop offset="1" stop-color="#8A0002" stop-opacity="0"/>
</linearGradient>
<linearGradient id="paint38_linear_15013_11273" x1="369" y1="12" x2="13" y2="292" gradientUnits="userSpaceOnUse">
<stop stop-color="#AA0003"/>
<stop offset="1" stop-color="#8A0002" stop-opacity="0"/>
</linearGradient>
<linearGradient id="paint39_linear_15013_11273" x1="369" y1="12" x2="13" y2="292" gradientUnits="userSpaceOnUse">
<stop stop-color="#AA0003"/>
<stop offset="1" stop-color="#8A0002" stop-opacity="0"/>
</linearGradient>
<linearGradient id="paint40_linear_15013_11273" x1="369" y1="12" x2="13" y2="292" gradientUnits="userSpaceOnUse">
<stop stop-color="#AA0003"/>
<stop offset="1" stop-color="#8A0002" stop-opacity="0"/>
</linearGradient>
</defs>
</svg>
