<svg width="384" height="300" viewBox="0 0 384 300" fill="none" xmlns="http://www.w3.org/2000/svg">
<path d="M0 38.4C0 24.9587 0 18.2381 2.61584 13.1042C4.9168 8.58834 8.58834 4.9168 13.1042 2.61584C18.2381 0 24.9587 0 38.4 0H345.6C359.041 0 365.762 0 370.896 2.61584C375.412 4.9168 379.083 8.58834 381.384 13.1042C384 18.2381 384 24.9587 384 38.4V261.6C384 275.041 384 281.762 381.384 286.896C379.083 291.412 375.412 295.083 370.896 297.384C365.762 300 359.041 300 345.6 300H38.4C24.9587 300 18.2381 300 13.1042 297.384C8.58834 295.083 4.9168 291.412 2.61584 286.896C0 281.762 0 275.041 0 261.6V38.4Z" fill="#6C5DD3"/>
<g opacity="0.6">
<mask id="mask0_15013_11205" style="mask-type:alpha" maskUnits="userSpaceOnUse" x="0" y="0" width="384" height="300">
<path d="M0 38.4C0 24.9587 0 18.2381 2.61584 13.1042C4.9168 8.58834 8.58834 4.9168 13.1042 2.61584C18.2381 0 24.9587 0 38.4 0H345.6C359.041 0 365.762 0 370.896 2.61584C375.412 4.9168 379.083 8.58834 381.384 13.1042C384 18.2381 384 24.9587 384 38.4V261.6C384 275.041 384 281.762 381.384 286.896C379.083 291.412 375.412 295.083 370.896 297.384C365.762 300 359.041 300 345.6 300H38.4C24.9587 300 18.2381 300 13.1042 297.384C8.58834 295.083 4.9168 291.412 2.61584 286.896C0 281.762 0 275.041 0 261.6V38.4Z" fill="#0B0058"/>
</mask>
<g mask="url(#mask0_15013_11205)">
<path d="M-176.993 160.535C-176.993 171.599 -176.993 183.4 -176.993 196.203V211.323C-176.993 220.965 -176.993 230.5 -176.993 239.826V395.456H-177.52V239.773C-177.52 230.448 -177.52 220.912 -177.52 211.271V196.15C-177.467 159.798 -177.467 131.506 -177.573 104.426V88.1465C-177.573 78.2945 -177.573 68.6532 -177.573 59.1699V-96.5132H-177.045V59.1172C-177.045 68.5478 -177.045 78.2418 -177.045 88.0938V104.373C-176.993 121.97 -176.993 140.041 -176.993 160.535Z" fill="url(#paint0_linear_15013_11205)"/>
<path d="M-156.839 221.544C-156.839 230.817 -157.63 239.457 -159.108 247.412C-161.429 269.54 -161.588 295.724 -161.588 318.589V395.456H-162.115V318.589C-162.115 295.777 -161.904 269.54 -159.635 247.36C-157.103 234.241 -156.681 219.226 -158.316 202.788C-159.002 194.148 -159.794 185.455 -160.585 176.973C-163.856 140.937 -167.18 103.688 -164.173 66.4404C-162.959 49.2652 -162.643 35.4618 -162.274 22.1326L-162.168 17.6017V-96.5132H-161.64V17.6017L-161.746 22.1326C-162.062 35.4618 -162.432 49.2652 -163.645 66.4931C-166.706 103.688 -163.329 140.937 -160.057 176.973C-159.319 185.402 -158.527 194.148 -157.789 202.788C-157.156 209.216 -156.839 215.538 -156.839 221.544Z" fill="url(#paint1_linear_15013_11205)"/>
<path d="M-133.992 240.774C-133.992 243.777 -134.573 247.043 -135.786 250.573L-136.208 252.259C-142.012 274.703 -147.5 295.935 -146.233 318.537V395.403H-146.761V318.589C-148.027 295.882 -142.54 274.65 -136.683 252.154L-136.261 250.468C-134.626 245.568 -134.151 241.248 -134.784 237.349C-137.053 222.598 -139.796 207.899 -142.434 193.727C-150.507 150.683 -158.105 109.958 -153.198 66.0716C-149.557 37.8853 -145.864 8.8034 -146.761 -19.5936V-96.5132H-146.233V-19.6463C-145.284 8.75072 -149.03 37.8853 -152.67 66.1243C-157.63 109.958 -149.979 150.578 -141.907 193.621C-139.269 207.846 -136.472 222.545 -134.256 237.297C-134.098 238.403 -133.992 239.562 -133.992 240.774Z" fill="url(#paint2_linear_15013_11205)"/>
<path d="M-108.191 259.159C-108.191 268.379 -110.143 277.599 -115.156 286.661C-116.949 290.032 -119.007 293.194 -121.012 296.249C-125.708 303.414 -130.14 310.158 -130.826 318.588V395.455H-131.354V318.588C-130.668 310 -126.183 303.151 -121.487 295.986C-119.482 292.93 -117.424 289.769 -115.63 286.45C-101.279 260.424 -112.148 233.291 -122.648 207.001C-126.605 197.149 -130.668 186.981 -133.306 177.129C-141.642 146.888 -144.861 114.487 -143.278 78.0821C-141.853 45.7337 -136.841 13.3853 -131.354 -19.6479V-96.4622H-130.826V-19.5953C-136.313 13.438 -141.326 45.7337 -142.75 78.0294C-144.333 114.382 -141.115 146.73 -132.778 176.919C-130.14 186.771 -126.077 196.939 -122.173 206.738C-115.261 224.019 -108.191 241.668 -108.191 259.159Z" fill="url(#paint3_linear_15013_11205)"/>
<path d="M-80.862 279.603C-80.862 286.926 -82.4449 293.88 -85.6634 299.939C-89.7261 307.578 -98.1682 317.009 -115.422 318.853V395.456H-115.949V318.326H-115.685C-98.4847 316.64 -90.0955 307.262 -86.0855 299.675C-79.0153 286.399 -79.9123 268.433 -88.3543 252.839C-112.098 207.425 -126.977 162.221 -132.675 118.387C-139.112 68.9166 -133.466 22.4487 -115.949 -19.699V-96.5132H-115.422V-19.5409C-132.939 22.5014 -138.584 68.9166 -132.147 118.335C-126.449 162.116 -111.57 207.267 -87.8794 252.575C-83.2363 261.268 -80.862 270.646 -80.862 279.603Z" fill="url(#paint4_linear_15013_11205)"/>
<path d="M-52.1597 297.357C-52.1597 301.361 -52.5818 305.313 -53.4788 309.106C-56.5918 322.804 -65.4032 334.131 -78.9105 341.876C-99.8573 364.53 -100.068 395.14 -100.068 395.456H-100.596C-100.596 395.14 -100.332 364.319 -79.2271 341.507L-79.1743 341.454C-65.8253 333.762 -57.0667 322.541 -54.0064 309.001C-50.2603 292.721 -54.6396 274.387 -66.3529 257.317C-93.9479 216.697 -112.52 175.024 -121.437 133.35C-131.04 88.1992 -129.193 44.1021 -115.897 2.21782C-104.342 -35.9259 -102.337 -57.1051 -100.86 -72.5944C-100.754 -73.5427 -100.701 -74.491 -100.596 -75.3867V-96.5132H-100.068V-75.3867C-100.174 -74.4384 -100.227 -73.5427 -100.332 -72.5944C-101.81 -57.1051 -103.814 -35.8732 -115.37 2.32319C-128.666 44.1548 -130.512 88.1992 -120.857 133.192C-111.94 174.813 -93.4202 216.434 -65.8781 257.001C-56.8556 270.172 -52.1597 284.133 -52.1597 297.357Z" fill="url(#paint5_linear_15013_11205)"/>
<path d="M-20.8188 310.897C-20.8188 314.48 -21.452 318.062 -22.7183 321.592C-27.0449 333.604 -38.6527 344.194 -53.0569 349.252C-69.3606 357.312 -77.1167 369.43 -80.7046 378.228C-84.609 387.711 -84.6618 395.403 -84.6618 395.456H-85.1894C-85.1894 395.403 -85.1367 387.606 -81.1795 378.017C-77.5388 369.166 -69.7299 356.891 -53.2679 348.777C-38.9692 343.772 -27.467 333.288 -23.2459 321.434C-19.9219 312.162 -21.0827 302.415 -26.6227 293.301C-34.5899 280.287 -42.9264 267.643 -50.9991 255.42C-78.5941 213.536 -104.712 174.075 -114.948 121.97C-120.118 96.0492 -120.013 68.8639 -114.526 38.8336C-109.671 12.0698 -101.071 -14.4832 -92.7873 -40.1933L-91.8375 -43.1437C-88.1969 -55.7353 -86.0336 -66.2722 -85.1894 -75.3867V-96.5132H-84.6618V-75.3867C-85.506 -66.2196 -87.722 -55.6299 -91.3627 -42.9856L-92.3124 -40.0353C-100.596 -14.3778 -109.144 12.1752 -114.051 38.8863C-119.485 68.8639 -119.644 95.9438 -114.473 121.812C-104.29 173.812 -78.2247 213.273 -50.6298 255.051C-42.5571 267.274 -34.1678 279.919 -26.2006 292.984C-22.6128 298.78 -20.8188 304.838 -20.8188 310.897Z" fill="url(#paint6_linear_15013_11205)"/>
<path d="M9.78535 320.966C9.78535 322.915 9.62706 324.917 9.25772 326.972C6.25024 340.881 -5.93796 350.258 -26.9375 354.737C-38.9675 357.634 -55.2184 364.167 -63.9242 378.919C-69.1478 387.717 -69.2005 395.409 -69.2005 395.462H-69.7281C-69.7281 395.409 -69.6754 387.612 -64.3991 378.655C-55.5877 363.746 -39.2313 357.16 -27.0958 354.21C-6.30729 349.784 5.72261 340.564 8.67732 326.866C11.632 310.534 1.81817 297.416 -8.20676 286.668C-57.4344 228.135 -99.0115 173.817 -109.089 102.061C-116.107 51.431 -99.3281 5.59537 -83.0771 -38.7124C-78.8033 -50.4611 -74.3713 -62.5786 -70.4141 -74.5907C-69.8337 -88.7102 -69.8337 -96.4548 -69.8337 -96.5602H-69.306C-69.306 -96.5075 -69.306 -88.7102 -69.8864 -74.538V-74.4853C-73.8436 -62.4205 -78.2757 -50.3031 -82.5495 -38.5544C-98.7477 5.70074 -115.473 51.4837 -108.509 101.956C-98.4838 173.554 -56.9595 227.819 -7.73187 286.247C1.07951 295.782 9.78535 307.162 9.78535 320.966Z" fill="url(#paint7_linear_15013_11205)"/>
<path d="M39.8614 326.385C39.8614 329.283 39.4393 332.18 38.6479 335.078C34.7962 351.305 16.4875 357.627 3.08578 360.999C-10.1577 364.212 -28.8357 370.535 -42.8178 382.494C-51.1543 389.659 -53.898 395.507 -53.9508 395.56L-54.4256 395.349C-54.3729 395.296 -51.6292 389.343 -43.1872 382.125C-35.431 375.487 -21.1323 366.32 2.92749 360.525C16.2237 357.205 34.2686 350.936 38.0675 334.973C43.9769 313.53 26.2486 296.355 12.4248 285.291C-15.2757 263.427 -38.7551 237.506 -57.3276 208.213C-75.689 179.184 -88.4576 148.153 -95.264 116.015C-102.229 83.0871 -102.651 50.3173 -96.4248 18.6011C-89.935 -14.6956 -76.2694 -45.8322 -55.903 -73.9131C-54.9005 -88.3487 -54.4256 -96.4095 -54.4256 -96.4622L-53.898 -96.4095C-53.898 -96.3041 -54.3201 -88.2434 -55.3754 -73.7551V-73.7024L-55.4281 -73.6497C-75.7946 -45.6215 -89.4074 -14.5375 -95.9499 18.7065C-102.123 50.3173 -101.701 82.9818 -94.7892 115.91C-87.9828 148.047 -75.2669 178.973 -56.9055 207.95C-38.3858 237.19 -14.9591 263.111 12.6886 284.922C18.8091 289.769 27.5677 297.303 33.3716 306.365C37.7509 312.95 39.8614 319.694 39.8614 326.385Z" fill="url(#paint8_linear_15013_11205)"/>
<path d="M71.6219 329.969C71.6219 332.603 71.1998 335.29 70.3029 338.03C65.2904 351.096 53.4188 360.526 35.0046 366.058C-11.1629 381.021 -38.3357 395.509 -38.5995 395.667L-38.8633 395.193C-38.5995 395.035 -11.3739 380.546 34.8463 365.584C53.1022 360.105 64.8683 350.78 69.7752 337.872C74.4183 323.91 65.607 310.686 56.6373 303.627C49.9364 297.621 43.0245 291.615 36.3764 285.767C11.8945 264.324 -13.4317 242.144 -34.8533 217.593C-58.8604 190.039 -75.1641 162.379 -84.7669 133.034C-94.8974 101.002 -96.7441 66.7038 -90.3598 31.1944C-84.6086 -0.679838 -72.4732 -32.6067 -54.27 -63.7961C-40.2879 -87.8203 -39.0744 -96.4079 -39.0744 -96.5132L-38.5467 -96.4605C-38.5995 -96.0918 -39.813 -87.7149 -53.8479 -63.5326C-71.9456 -32.4487 -84.081 -0.574463 -89.7794 31.2471C-96.1637 66.7038 -94.317 100.896 -84.2393 132.876C-74.6365 162.168 -58.3855 189.723 -34.4312 217.224C-13.0623 241.775 12.2638 263.902 36.7457 285.345C43.3938 291.193 50.3058 297.199 57.0066 303.205C64.3406 309.001 71.6219 318.853 71.6219 329.969Z" fill="url(#paint9_linear_15013_11205)"/>
<path d="M100.537 329.756C100.537 333.497 99.7985 337.238 98.2684 341.031C93.4142 353.464 81.8064 363.527 66.347 368.585C20.2851 387.551 -22.8221 395.665 -23.2442 395.718L-23.3497 395.191C-22.9276 395.085 20.1268 387.025 66.1887 368.058C81.4899 363.053 93.0449 353.096 97.7936 340.82C102.067 330.389 100.273 319.904 92.5173 309.736C84.6029 299.41 72.6785 292.298 66.2942 288.978C31.0487 270.96 -1.08387 244.934 -26.5683 213.692C-52.1582 182.292 -70.4669 146.466 -79.3838 110.061C-86.454 81.2955 -87.6676 52.7931 -83.0772 25.239C-78.1175 -4.21168 -66.5097 -31.9238 -48.6231 -57.2124C-30.3144 -84.7138 -23.6136 -96.5152 -23.5608 -96.6206L-23.0859 -96.3571C-23.1387 -96.2518 -29.8396 -84.4504 -48.201 -56.8963C-66.0876 -31.7131 -77.6426 -4.00093 -82.6023 25.3444C-87.2455 52.7931 -85.9792 81.2955 -78.9089 109.956C-69.992 146.308 -51.7361 182.029 -26.1989 213.376C-0.767273 244.565 31.3125 270.539 66.5052 288.557C72.9423 291.929 84.9722 299.094 92.8866 309.473C98.0046 316.111 100.537 322.907 100.537 329.756Z" fill="url(#paint10_linear_15013_11205)"/>
<path d="M129.027 326.703C129.027 331.444 127.602 336.239 124.753 341.033C102.223 380.072 54.7369 388.818 12.8961 396.457C8.09466 397.353 3.50431 398.196 -0.98053 399.039L-1.08606 398.512C3.45154 397.616 7.98916 396.773 12.8433 395.93C54.5787 388.291 101.96 379.598 124.331 340.717C128.447 333.815 129.555 326.913 127.602 320.17C123.012 304.154 102.646 291.931 85.4449 283.027C45.7145 261.69 14.5845 239.984 -9.73915 216.592C-40.1305 187.352 -60.0748 155.688 -70.7329 119.757C-81.1799 83.879 -80.9689 44.5763 -70.0997 6.22182C-59.9165 -29.6564 -40.8164 -64.0068 -14.8571 -93.1941L-14.4878 -92.8253C-40.3943 -63.6907 -59.4944 -29.393 -69.6249 6.37988C-80.494 44.6816 -80.7051 83.8263 -70.258 119.652C-59.6527 155.477 -39.7612 187.088 -9.42258 216.276C14.8483 239.615 45.9256 261.321 85.6559 282.658C102.962 291.615 123.434 303.943 128.077 320.117C128.71 322.277 129.027 324.49 129.027 326.703Z" fill="url(#paint11_linear_15013_11205)"/>
<path d="M151.612 328.443C151.612 335.345 149.976 341.878 146.652 347.936C130.982 376.702 81.1737 390.348 44.8202 400.305C39.069 401.886 33.6345 403.361 28.7276 404.836L28.5693 404.309C33.4762 402.887 38.9108 401.359 44.7147 399.778C80.9627 389.873 130.665 376.281 146.23 347.673C151.823 337.4 152.615 325.756 148.552 313.059C141.429 289.72 117.738 280.237 92.6233 270.227C81.8597 265.959 70.7795 261.481 61.0711 255.896C33.5817 240.144 11.2103 223.811 -7.3094 205.899C-28.4145 185.457 -44.5599 162.697 -55.2708 138.199C-71.2051 102.531 -74.9513 61.806 -66.0344 20.4486C-57.8034 -17.7478 -39.4947 -54.7324 -13.1133 -86.4486L-12.6912 -86.1325C-39.0198 -54.469 -57.3285 -17.5897 -65.5067 20.554C-74.4237 61.806 -70.6775 102.426 -54.7959 137.988C-44.0851 162.434 -27.9924 185.141 -6.94008 205.53C11.5269 223.39 33.8983 239.722 61.3349 255.475C70.9905 261.059 82.0707 265.485 92.8343 269.805C118.055 279.868 141.851 289.351 149.027 312.954C150.768 318.275 151.612 323.438 151.612 328.443Z" fill="url(#paint12_linear_15013_11205)"/>
<path d="M179.259 314.903C179.259 315.483 179.259 316.062 179.206 316.694C177.729 339.349 165.435 357.841 141.586 373.278C121.009 386.607 95.3132 395.511 72.5724 403.361C67.3489 405.152 62.442 406.891 57.6933 408.577L57.535 408.102C62.2837 406.416 67.1906 404.678 72.4141 402.887C95.1021 395.037 120.798 386.186 141.27 372.856C164.96 357.525 177.148 339.138 178.626 316.642C179.259 305.683 174.088 296.464 162.744 288.561C152.614 281.501 139.159 276.707 130.242 273.546C84.5496 257.214 48.0905 238.352 18.7544 215.909C-17.4936 188.197 -42.1866 154.847 -54.6386 116.862C-65.1912 83.7756 -66.0354 48.7403 -57.1184 12.6513C-48.993 -20.1712 -32.7948 -52.5196 -10.2651 -80.864L-9.843 -80.5478C-32.3199 -52.2562 -48.4654 -20.0132 -56.5908 12.7567C-65.5077 48.7403 -64.6635 83.6702 -54.111 116.651C-41.659 154.531 -17.0715 187.775 19.1238 215.435C48.4071 237.826 84.8134 256.634 130.453 272.966C148.867 279.604 179.259 290.458 179.259 314.903Z" fill="url(#paint13_linear_15013_11205)"/>
<path d="M204.166 312.01C204.166 315.75 203.48 319.544 202.055 323.337C194.141 344.727 178.418 362.745 154.041 378.445C133.305 391.774 109.984 401.257 85.9244 410.583L85.7134 410.109C109.773 400.783 133.042 391.353 153.777 378.024C178.048 362.429 193.666 344.463 201.58 323.179C204.693 314.907 204.324 306.583 200.525 298.522C195.143 287.143 182.955 277.027 168.604 272.127C163.539 270.441 158.473 268.756 153.408 267.122C124.388 257.586 94.3665 247.734 66.7716 234.458C35.8526 219.548 11.3706 201.846 -8.15158 180.245C-24.5608 162.596 -36.9601 142.154 -44.9272 119.553C-52.4723 98.1099 -55.9019 75.2975 -55.1632 51.6421C-54.4245 28.6715 -49.8342 5.91179 -41.4449 -16.0577C-33.0028 -38.1326 -21.184 -58.3108 -6.19934 -76.1182L-5.77725 -75.8021C-20.6564 -58.0474 -32.528 -37.8692 -40.9173 -15.847C-49.3065 6.06984 -53.8969 28.7769 -54.6356 51.6948C-55.3743 75.2975 -51.9447 98.0572 -44.3996 119.447C-36.4324 142.049 -24.1387 162.385 -7.72948 179.982C11.6872 201.53 36.1691 219.232 67.0354 234.089C94.5775 247.366 124.6 257.218 153.566 266.754C158.632 268.439 163.697 270.073 168.762 271.759C183.219 276.711 195.565 286.984 200.947 298.47C203.111 302.79 204.166 307.373 204.166 312.01Z" fill="url(#paint14_linear_15013_11205)"/>
<path d="M225.692 307.58C225.692 316.431 222.948 325.335 217.461 333.659C205.378 351.888 190.077 367.377 170.66 380.864C154.831 391.875 135.995 401.727 112.938 411L112.727 410.526C135.731 401.253 154.568 391.401 170.344 380.443C189.708 366.956 204.956 351.572 216.986 333.396C226.008 319.539 227.591 304.208 221.365 290.194C214.031 273.651 197.2 261.376 177.414 258.162C121.696 249.258 75.0012 232.768 38.7004 209.27C-6.25344 180.136 -34.2177 140.675 -44.2954 91.889C-50.2048 63.1232 -48.833 33.6198 -40.2854 4.22175C-32.7404 -21.6991 -19.6024 -47.62 -1.241 -72.8032L-0.818893 -72.4871C-19.1803 -47.3565 -32.2655 -21.4884 -39.8106 4.3798C-48.3581 33.6725 -49.6772 63.0705 -43.8205 91.7836C-33.7429 140.412 -5.88411 179.767 38.9642 208.796C75.265 232.294 121.855 248.731 177.467 257.635C197.464 260.901 214.453 273.282 221.84 289.983C224.425 295.673 225.692 301.627 225.692 307.58Z" fill="url(#paint15_linear_15013_11205)"/>
<path d="M245.056 298.569C245.056 304.892 243.737 311.266 241.046 317.483C220.415 365.005 172.823 393.138 138.844 410.156L138.633 409.681C209.441 374.225 230.757 339.98 240.571 317.272C246.639 303.311 245.689 288.296 238.038 275.072C229.649 260.636 214.084 250.468 197.358 248.572C118.214 239.826 -17.5446 206.74 -37.6472 82.9837C-45.7199 31.4582 -30.9991 -21.5953 4.77403 -70.4866L5.19614 -70.1705C-19.7079 -36.1362 -47.2501 17.9709 -37.1196 82.9311C-17.0697 206.319 118.425 239.352 197.411 248.045C214.295 249.941 230.018 260.215 238.46 274.809C242.84 282.343 245.056 290.403 245.056 298.569Z" fill="url(#paint16_linear_15013_11205)"/>
<path d="M260.724 288.398C260.724 311.632 250.91 334.233 231.494 355.781C210.811 378.647 182.741 396.612 163.377 408.15L163.113 407.676C182.424 396.191 210.494 378.278 231.072 355.413C241.36 344.033 249.011 332.231 253.812 320.43C259.247 307.048 261.199 293.192 259.669 279.178C256.767 250.149 226.85 235.344 200.311 233.869C169.708 231.393 129.82 226.862 93.0441 214.112C54.9494 200.888 25.455 180.868 2.87254 152.945C-22.4536 121.756 -34.2197 82.8748 -31.1067 40.4637C-28.3103 1.63509 -13.1146 -37.2989 11.6839 -69.1204L12.106 -68.8043C-12.6397 -37.0881 -27.7826 1.74046 -30.5791 40.4637C-33.6393 82.7695 -21.926 121.545 3.29465 152.577C25.8243 180.447 55.2132 200.414 93.2024 213.585C129.925 226.335 169.708 230.813 200.311 233.342C227.062 234.817 257.242 249.78 260.144 279.125C260.513 282.234 260.724 285.342 260.724 288.398Z" fill="url(#paint17_linear_15013_11205)"/>
<path d="M277.872 283.973C277.872 291.876 276.394 299.726 273.387 307.154C265.314 327.122 253.284 345.93 237.666 363C223.473 378.489 206.272 392.661 186.486 405.148L186.223 404.726C205.956 392.292 223.157 378.12 237.297 362.684C252.915 345.667 264.892 326.911 272.912 306.996C280.51 288.188 278.294 266.482 266.897 248.938C256.239 232.553 239.46 222.753 220.888 222.121C149.078 220.277 112.355 210.109 90.9858 202.628C69.2476 195.041 50.253 184.873 34.5297 172.439C16.9597 158.583 2.81926 141.355 -7.52225 121.283C-22.7179 91.9373 -27.5721 57.8503 -21.5571 22.7096C-15.9643 -9.53339 -1.77112 -41.1442 19.545 -68.8036L19.9672 -68.4875C-1.29623 -40.8808 -15.4367 -9.32264 -20.9767 22.815C-26.9917 57.8503 -22.1375 91.7792 -6.99461 121.072C3.29413 141.092 17.3818 158.215 34.899 172.071C50.5696 184.452 69.5114 194.567 91.1969 202.154C135.729 217.748 186.539 220.699 220.941 221.594C239.671 222.279 256.608 232.131 267.372 248.674C274.336 259.422 277.872 271.697 277.872 283.973Z" fill="url(#paint18_linear_15013_11205)"/>
<path d="M292.172 277.548C292.172 284.871 291.064 292.142 288.848 299.096C275.815 339.453 247.904 374.909 208.173 401.568L207.857 401.146C247.534 374.541 275.34 339.242 288.32 298.991C295.338 277.285 291.011 252.101 277.082 233.346C265.157 217.277 248.326 208.637 229.701 208.953C203.267 209.163 180.579 208.268 160.265 206.16C134.147 203.473 111.67 198.837 91.6205 192.041C68.4049 184.191 48.6716 173.285 32.8955 159.693C15.1145 144.361 1.76548 125.026 -6.78209 102.214C-16.9125 74.3434 -18.5482 43.154 -11.5307 12.0174C-4.93537 -17.0645 8.83572 -45.1981 28.3579 -69.4331L28.78 -69.117C9.31057 -44.9874 -4.40774 -16.9065 -11.0031 12.1228C-18.0205 43.1541 -16.3849 74.238 -6.30722 102.003C2.18759 124.71 15.4838 143.993 33.2121 159.271C48.9354 172.811 68.6159 183.664 91.7788 191.514C138.368 207.267 192.819 208.689 229.701 208.426C248.484 208.11 265.474 216.855 277.504 233.03C287.107 245.885 292.172 261.795 292.172 277.548Z" fill="url(#paint19_linear_15013_11205)"/>
<path d="M304.781 270.698C304.781 273.543 304.623 276.388 304.306 279.233C301.563 302.046 292.699 324.384 277.925 345.616C265.684 363.265 249.011 380.651 228.381 397.405L228.064 396.983C248.694 380.282 265.315 362.896 277.556 345.3C292.276 324.12 301.088 301.835 303.832 279.128C306.47 255.525 297.922 231.237 281.038 214.062C265.579 198.362 245.529 190.776 224.635 192.725C163.746 198.731 131.245 193.621 112.144 189.248C71.6226 179.975 40.9146 160.377 18.3322 129.451C-2.98401 99.9472 -11.3733 64.1743 -5.99149 25.978C-1.19007 -8.16171 14.5332 -42.6175 38.2765 -70.9618L38.6986 -70.6457C15.0081 -42.3541 -0.662439 -8.05635 -5.46385 26.0306C-10.8457 64.0689 -2.45638 99.7365 18.7543 129.135C41.2312 159.955 71.8336 179.448 112.25 188.721C152.086 197.835 195.457 195.096 224.582 192.198C245.634 190.249 265.79 197.835 281.407 213.693C296.339 228.919 304.781 249.73 304.781 270.698Z" fill="url(#paint20_linear_15013_11205)"/>
<path d="M316.443 268.122C316.443 286.562 311.641 305.423 302.038 324.6C287.212 354.314 263.997 378.18 247.165 392.932L246.796 392.51C263.574 377.759 286.737 353.945 301.564 324.336C316.126 295.202 319.609 266.647 311.905 239.514C306.84 221.075 295.707 204.742 280.564 193.52C264.999 181.983 246.427 176.977 228.329 179.401C180.579 186.039 139.476 185.038 106.183 176.451C62.9176 165.334 32.368 141.31 15.3784 105.01C2.34598 77.2454 -0.608738 45.0024 6.88358 11.7584C13.6372 -18.2192 28.2525 -47.6699 49.1466 -73.4327L49.5686 -73.1166C28.9912 -47.7753 14.0593 -17.5869 7.41121 11.8638C-0.0283413 45.0024 2.8736 77.1401 15.8532 104.799C32.7901 140.888 63.1815 164.86 106.289 175.924C139.529 184.459 180.579 185.46 228.276 178.874C246.532 176.398 265.21 181.456 280.881 193.046C296.129 204.321 307.315 220.758 312.433 239.303C315.124 248.839 316.443 258.428 316.443 268.122Z" fill="url(#paint21_linear_15013_11205)"/>
<path d="M327.841 263.116C327.841 280.239 323.989 297.993 316.286 316.222C305.575 341.563 287.214 367.221 264.526 388.4L264.156 388.031C286.739 366.852 305.1 341.3 315.758 316.011C328.527 285.77 330.69 256.847 322.195 229.977C315.442 208.745 300.563 189.726 281.357 177.872C261.518 165.597 238.988 161.751 217.989 166.966C191.766 173.447 164.118 175.449 138.106 172.656C110.406 169.706 85.2905 161.382 65.3989 148.527C51.9972 139.834 40.8642 129.139 32.3167 116.653C23.1359 103.271 16.9099 87.7288 13.7969 70.5009C8.94275 44.6327 11.3171 18.027 20.8144 -8.57879C29.0981 -31.8127 42.6582 -54.6252 61.0196 -76.3839L61.4417 -76.0678C43.0803 -54.3618 29.573 -31.602 21.342 -8.42074C11.8975 18.0796 9.52314 44.58 14.3773 70.3955C17.4903 87.518 23.7163 103.007 32.7915 116.337C41.2863 128.77 52.3665 139.465 65.7155 148.105C85.5015 160.908 110.564 169.232 138.159 172.13C164.118 174.869 191.66 172.92 217.831 166.44C238.988 161.171 261.624 165.07 281.621 177.398C300.932 189.357 315.917 208.429 322.67 229.819C326.153 240.62 327.841 251.736 327.841 263.116Z" fill="url(#paint22_linear_15013_11205)"/>
<path d="M339.66 259.793C339.66 274.597 336.97 289.928 331.588 305.365C322.038 333.077 303.887 361 280.461 384.023L280.091 383.654C303.412 360.684 321.51 332.814 331.06 305.207C336.389 289.823 339.08 274.544 339.08 259.793V259.74C339.08 243.724 335.862 228.287 329.53 213.904C322.882 199.205 313.226 186.877 300.88 177.288C289.536 168.49 275.923 162.01 260.358 157.9C232.763 150.683 199.206 151.315 165.754 159.639C149.292 163.801 132.197 163.907 114.838 159.955C98.4819 156.215 82.5475 148.891 68.6709 138.618C39.7569 117.333 22.1869 86.0386 20.4457 52.7946C19.3905 29.1392 24.0863 5.0623 34.3751 -18.7512C43.5558 -39.9831 56.9575 -60.6355 74.211 -80.0761L74.5803 -79.7073C57.3797 -60.3194 43.9779 -39.7724 34.8499 -18.5404C24.614 5.16766 19.9181 29.1919 20.9733 52.7419C22.7145 85.8279 40.179 116.912 68.9875 138.144C82.8113 148.312 98.6929 155.635 114.997 159.376C132.25 163.274 149.292 163.169 165.649 159.06C199.153 150.683 232.869 150.05 260.516 157.321C276.134 161.43 289.852 167.963 301.249 176.762C313.648 186.403 323.357 198.784 330.058 213.588C336.442 228.076 339.66 243.566 339.66 259.635C339.66 259.74 339.66 259.74 339.66 259.793Z" fill="url(#paint23_linear_15013_11205)"/>
<path d="M349.628 257.11C349.628 266.804 348.52 276.762 346.357 286.93C339.287 319.647 320.662 353.523 295.177 379.865L294.808 379.497C320.187 353.207 338.812 319.436 345.829 286.824C354.06 248.628 346.674 213.487 324.46 185.301C282.567 131.931 216.93 137.937 153.245 148.632C139.21 151.056 125.017 150.424 110.982 146.683C97.5805 143.101 85.023 136.936 73.679 128.296C49.3026 109.857 33.6848 82.6185 30.7829 53.5893C28.7251 28.6694 33.3682 3.48618 44.6595 -21.3283C54.5789 -43.0871 69.3524 -64.2136 88.6108 -84.0757L88.9802 -83.7069C69.7745 -63.8975 55.001 -42.8236 45.1343 -21.1176C33.8959 3.59155 29.2527 28.7221 31.3105 53.5366C34.2124 82.4078 49.7775 109.488 73.9956 127.875C85.3396 136.462 97.8443 142.626 111.141 146.156C125.07 149.897 139.21 150.529 153.14 148.106C216.983 137.358 282.778 131.352 324.883 184.932C341.292 205.795 349.628 230.346 349.628 257.11Z" fill="url(#paint24_linear_15013_11205)"/>
<path d="M359.708 254.158C359.708 264.906 358.389 275.97 355.804 287.192C348.734 317.749 331.955 349.359 308.581 376.123L308.159 375.754C331.533 349.043 348.259 317.591 355.276 287.086C359.233 270.016 360.13 253.315 358.073 237.457C355.804 220.177 349.947 203.897 340.608 188.987C322.036 159.642 294.441 140.728 258.615 132.878C228.857 126.345 194.403 127.452 156.15 136.197C128.027 142.309 98.7436 134.195 75.7391 114.07C51.9431 93.2067 39.2272 62.913 41.7599 33.0408C45.9281 -11.3724 68.0885 -54.4684 104.178 -88.3973L104.548 -88.0285C68.5633 -54.205 46.4557 -11.2143 42.2875 33.0408C39.8076 62.7022 52.4179 92.8379 76.1084 113.648C98.9547 133.668 128.08 141.729 156.044 135.671C194.35 126.925 228.909 125.818 258.72 132.351C294.652 140.254 322.352 159.168 341.03 188.671C350.369 203.634 356.279 220.019 358.548 237.352C359.339 242.831 359.708 248.468 359.708 254.158Z" fill="url(#paint25_linear_15013_11205)"/>
<path d="M368.887 252.261C368.887 260.428 368.201 268.804 366.776 277.287C361.183 310.689 344.879 344.67 320.872 372.909L320.45 372.593C344.405 344.407 360.708 310.583 366.248 277.234C372.633 239.038 364.56 203.686 342.875 174.973C325.674 152.055 302.564 134.88 276.024 125.186C249.748 115.597 221.309 113.806 193.767 119.97C164.8 126.714 135.781 125.924 112.143 117.758C84.4953 108.222 65.7645 89.0971 58.0083 62.4913C49.8829 35.148 52.9431 6.2768 67.0308 -23.2266C81.4878 -53.5203 104.492 -77.8606 121.271 -92.9284L121.64 -92.5596C104.914 -77.4918 81.9626 -53.2042 67.5584 -23.0159C53.5235 6.38218 50.516 35.0953 58.5887 62.3333C66.2921 88.781 84.8646 107.8 112.354 117.283C135.939 125.397 164.8 126.187 193.714 119.496C221.362 113.332 249.959 115.123 276.288 124.765C302.933 134.459 326.096 151.739 343.402 174.71C360.181 197.101 368.887 223.548 368.887 252.261Z" fill="url(#paint26_linear_15013_11205)"/>
<path d="M376.803 251.264C376.803 268.492 373.954 285.984 368.203 303.475C360.711 326.445 348.522 348.942 331.955 370.384L331.533 370.068C348.047 348.678 360.236 326.235 367.728 303.317C376.012 277.87 378.281 252.476 374.482 227.767C369.205 190.73 349.947 159.593 318.817 137.729C298.45 123.399 273.124 113.283 245.688 108.489C218.99 103.853 190.867 104.222 164.328 109.648C141.217 114.284 117.21 109.332 98.4796 96.1608C81.49 84.2013 70.5681 66.4993 67.6134 46.2157C63.1813 19.4519 68.7742 -7.78607 84.0754 -34.7079C96.6329 -56.7828 115.891 -78.4889 139.687 -97.4554L140.004 -97.0339C116.208 -78.0674 97.055 -56.414 84.4975 -34.4445C69.1963 -7.62801 63.7089 19.5046 68.0882 46.163C70.9902 66.2359 81.9121 83.8852 98.7434 95.7393C117.369 108.858 141.217 113.757 164.169 109.174C190.762 103.747 218.99 103.326 245.74 107.962C273.283 112.756 298.662 122.925 319.081 137.255C350.316 159.224 369.627 190.466 374.956 227.662C376.17 235.512 376.803 243.362 376.803 251.264Z" fill="url(#paint27_linear_15013_11205)"/>
<path d="M386.405 249.421C386.405 258.535 385.614 267.755 384.031 277.133C378.544 309.271 363.665 341.777 342.032 368.646L341.61 368.33C363.19 341.514 378.069 309.113 383.503 277.028C389.571 241.255 383.925 206.957 367.147 177.875C339.816 130.564 287.317 100.639 223.105 95.6871C211.549 94.8968 199.203 95.5291 187.226 96.1613C155.568 97.8472 122.802 99.5857 99.3231 75.0347C82.65 57.28 75.5271 36.3115 78.218 12.7614C80.5395 -7.83826 90.6172 -30.3346 107.237 -52.1987C121.642 -71.1125 140.214 -88.6565 159.631 -101.67L159.947 -101.248C108.873 -67.0031 82.3335 -19.2708 78.6928 12.8668C76.0547 36.2588 83.0721 57.0692 99.6924 74.7186C123.066 99.1116 155.674 97.373 187.226 95.6871C199.203 95.0549 211.602 94.37 223.157 95.2129C287.528 100.165 340.185 130.196 367.622 177.664C380.074 199.212 386.405 223.658 386.405 249.421Z" fill="url(#paint28_linear_15013_11205)"/>
<path d="M394.586 247.678C394.586 252.683 394.375 257.688 393.901 262.799C390.629 299.836 375.434 337.137 351.11 367.852L350.688 367.536C374.959 336.926 390.102 299.678 393.373 262.799C396.961 222.179 386.144 184.72 361.979 154.479C339.238 125.45 308.425 106.009 267.85 94.8926C232.024 85.0932 193.455 82.9332 156.204 80.8785C153.197 80.7204 150.242 80.5624 147.287 80.3516C128.557 79.0345 111.831 68.5503 101.384 51.5858C89.987 33.0408 88.0875 10.4391 96.2657 -8.89619C112.042 -46.5657 141.272 -79.9151 180.897 -105.362L181.161 -104.94C141.642 -79.5463 112.464 -46.2496 96.7406 -8.73814C88.6151 10.4391 90.5146 32.8827 101.806 51.2697C112.147 68.0761 128.715 78.5077 147.287 79.7721C150.242 79.9301 153.197 80.0882 156.204 80.2989C193.508 82.4063 232.077 84.5664 267.956 94.3658C308.689 105.482 339.555 125.028 362.348 154.11C383.612 180.663 394.586 212.748 394.586 247.678Z" fill="url(#paint29_linear_15013_11205)"/>
<path d="M402.658 245.782C402.658 249.575 402.553 253.368 402.289 257.214C399.809 296.57 384.508 335.873 359.234 367.905L358.812 367.589C384.033 335.609 399.281 296.412 401.761 257.162C404.452 214.434 392 175.606 365.724 144.891C315.652 85.5151 239.305 73.0815 164.276 68.5506C145.703 67.3389 128.292 58.3298 117.634 44.4737C108.242 32.1982 104.918 17.5519 108.083 2.11527C118.794 -51.9919 164.803 -85.4466 203.742 -108.523L204.006 -108.048C130.086 -64.2674 114.151 -26.1237 108.558 2.16796C105.445 17.4465 108.717 31.9348 118.003 44.1049C128.503 57.8556 145.809 66.812 164.223 68.0238C239.41 72.5547 315.863 84.9882 366.041 144.522C390.1 172.603 402.658 207.427 402.658 245.782Z" fill="url(#paint30_linear_15013_11205)"/>
<path d="M410.308 243.939C410.308 247.048 410.255 250.156 410.097 253.265C408.039 294.569 392.474 335.663 366.357 368.96L365.934 368.644C391.999 335.4 407.459 294.411 409.569 253.212C410.624 231.822 408.039 211.222 401.813 191.94C395.165 171.393 384.507 152.848 370.155 136.726C334.171 96.1589 284.733 71.5025 223.106 63.3891L221.364 63.1783C191.237 59.4377 149.976 54.2746 132.776 31.0934C125.706 21.5574 123.331 9.54534 125.758 -4.52146C129.768 -28.4403 142.167 -49.5142 163.695 -68.9021C182.848 -86.1827 206.96 -99.7753 227.96 -110.839L228.224 -110.365C207.171 -99.3538 183.164 -85.7612 164.011 -68.5333C142.537 -49.2507 130.19 -28.2822 126.233 -4.41609C123.806 9.49266 126.128 21.3467 133.145 30.7773C150.187 53.8004 191.342 58.9109 221.417 62.6515L223.158 62.8622C284.944 70.9757 334.488 95.7374 370.525 136.41C384.929 152.584 395.64 171.182 402.288 191.782C407.617 208.325 410.308 225.816 410.308 243.939Z" fill="url(#paint31_linear_15013_11205)"/>
<path d="M418.59 242.304C418.59 260.428 415.899 278.657 410.464 296.78C402.919 322.069 390.151 347.041 372.528 371.118L372.106 370.802C389.676 346.831 402.392 321.858 409.937 296.622C418.273 268.752 420.172 240.618 415.635 213.064C411.097 186.248 400.967 162.013 385.56 141.15C371.684 122.394 353.111 105.693 330.37 91.6262C293.858 69.0245 245.739 52.3234 183.268 40.5748C164.906 37.0449 144.804 23.5049 144.065 2.11497C141.849 -57.5241 209.016 -90.2939 253.495 -112L253.706 -111.526C232.337 -101.094 203.054 -86.8167 180.841 -68.1137C155.514 -46.8291 143.696 -23.8586 144.645 2.11497C145.173 16.9194 157.519 35.0956 183.426 40.1006C245.95 51.8493 294.122 68.603 330.687 91.2047C353.48 105.324 372.106 122.025 385.982 140.834C401.442 161.802 411.625 186.09 416.163 212.959C417.798 222.706 418.59 232.505 418.59 242.304Z" fill="url(#paint32_linear_15013_11205)"/>
<path d="M425.716 239.144C425.716 251.999 424.397 265.012 421.811 278.13C415.005 312.217 399.809 345.461 377.807 374.28L377.385 373.964C399.334 345.198 414.53 312.006 421.284 278.025C428.565 241.514 425.61 205.32 412.736 173.446C396.643 133.774 367.36 102.374 323.25 77.4016C283.995 55.2214 237.933 40.7858 197.253 28.0888C191.554 26.4029 183.323 23.0837 176.359 17.025C169.763 11.2824 166.123 4.53873 165.437 -2.99518C163.643 -27.8097 174.248 -49.0416 197.886 -67.9027C218.2 -84.1296 244.423 -95.8255 267.586 -106.152C272.018 -108.101 276.186 -109.998 280.249 -111.842L280.46 -111.368C276.45 -109.524 272.229 -107.68 267.797 -105.678C244.687 -95.3514 218.463 -83.7081 198.203 -67.4812C174.723 -48.6728 164.171 -27.5989 165.965 -2.99518C166.65 4.38067 170.238 11.0189 176.728 16.6562C182.11 21.3451 189.444 25.2438 197.411 27.6146C238.091 40.3116 284.206 54.7472 323.514 76.9802C367.729 102.005 397.065 133.511 413.211 173.288C421.495 193.782 425.716 216.12 425.716 239.144Z" fill="url(#paint33_linear_15013_11205)"/>
<path d="M434.315 238.454C434.315 247.094 433.734 255.787 432.521 264.585C427.139 304.678 409.147 345.193 381.974 378.595L381.552 378.279C408.672 344.929 426.611 304.573 431.993 264.533C437.903 220.699 428.933 178.551 406.139 142.62C388.675 114.434 364.457 91.0948 332.008 71.2327C303.147 53.5306 270.697 40.3068 239.356 27.4517C231.073 24.0799 222.525 20.55 214.136 17.0201C205.008 13.2795 189.284 4.32315 186.752 -13.3262C184.166 -30.5014 192.556 -43.6726 200.048 -51.7333C231.706 -83.3441 272.439 -99.0968 308.106 -110.266L308.264 -109.739C272.65 -98.57 231.97 -82.87 200.417 -51.3119C193.031 -43.3565 184.694 -30.2907 187.227 -13.3262C189.707 4.05973 205.272 12.8581 214.294 16.5987C222.631 20.1285 231.231 23.6057 239.515 27.0302C270.908 39.8853 303.305 53.1091 332.219 70.8112C364.668 90.6733 388.992 114.118 406.509 142.357C424.923 171.175 434.315 203.998 434.315 238.454Z" fill="url(#paint34_linear_15013_11205)"/>
<path d="M441.329 235.767C441.329 250.466 439.694 265.376 436.422 280.338C428.297 317.375 410.569 353.201 385.19 383.969L384.768 383.653C410.094 352.937 427.769 317.165 435.895 280.233C444.601 240.561 441.699 201.1 427.453 166.065C412.785 130.134 387.775 99.5243 350.894 72.3917C317.759 47.9987 279.348 29.6117 242.836 13.3322C236.821 10.5926 225.635 4.53385 217.985 -4.94939C210.651 -14.0638 208.804 -23.5998 212.497 -33.2937C220.253 -52.6817 235.343 -68.0129 258.612 -80.0777C278.926 -90.6146 302.933 -97.3583 324.143 -103.312C328.575 -104.576 332.796 -105.735 336.965 -106.947L337.123 -106.42C332.955 -105.208 328.734 -104.049 324.302 -102.785C303.144 -96.8314 279.137 -90.0878 258.876 -79.6035C235.713 -67.5914 220.728 -52.3656 212.972 -33.1357C209.331 -23.5998 211.178 -14.2219 218.354 -5.2655C225.899 4.11237 237.032 10.1184 242.994 12.858C279.559 29.1376 317.917 47.5245 351.105 71.9702C388.039 99.1555 413.101 129.871 427.822 165.854C436.844 187.824 441.329 211.427 441.329 235.767Z" fill="url(#paint35_linear_15013_11205)"/>
<path d="M449.244 233.245C449.244 248.787 447.45 264.592 443.757 280.503C434.735 319.964 415.16 358.002 387.248 390.403L386.826 390.034C414.685 357.633 434.207 319.753 443.229 280.345C452.99 237.67 449.561 195.628 433.31 158.696C419.011 125.61 395.848 96.4226 362.397 69.4481C332.639 45.4239 297.868 25.5091 264.205 6.22651L261.198 4.48792C250.909 -1.67619 237.455 -11.4228 238.985 -25.1735C242.784 -74.5391 299.609 -86.92 345.249 -96.8774C352.847 -98.5106 359.97 -100.091 366.565 -101.777L366.671 -101.25C360.075 -99.5643 352.899 -98.0364 345.302 -96.3505C299.82 -86.4458 243.258 -74.0649 239.46 -25.1209C237.982 -11.6863 251.278 -2.04498 261.409 4.01376L264.416 5.75235C331.953 44.4756 401.758 84.5159 433.732 158.485C444.073 181.825 449.244 207.06 449.244 233.245Z" fill="url(#paint36_linear_15013_11205)"/>
<path d="M456.792 233.14C456.792 236.301 456.739 239.462 456.581 242.676C454.839 282.137 442.387 320.755 420.596 354.367C402.393 382.027 392.685 395.514 392.579 395.619L392.157 395.303C392.263 395.145 401.918 381.711 420.121 354.051C441.86 320.544 454.312 281.979 456.053 242.623C457.847 201.845 447.98 162.174 427.456 127.929C399.966 80.9867 359.603 52.4316 316.812 22.1906C304.835 13.7084 292.488 4.96275 280.3 -4.25706C269.009 -12.6866 260.778 -28.1232 267.69 -43.5071C272.702 -54.2021 282.938 -62.7897 298.978 -69.7968C344.987 -89.7116 391.788 -96.666 392.263 -96.7186L392.315 -96.1918C391.841 -96.1391 345.146 -89.1847 299.189 -69.2699C283.308 -62.3156 273.124 -53.7806 268.165 -43.2437C261.358 -28.1232 269.484 -12.95 280.617 -4.62585C292.805 4.59396 305.151 13.3396 317.129 21.8218C359.919 52.1155 400.335 80.7233 427.878 127.718C446.872 159.329 456.792 195.576 456.792 233.14Z" fill="url(#paint37_linear_15013_11205)"/>
<path d="M464.653 229.554C464.653 247.625 462.384 265.906 457.899 284.241C451.41 310.688 440.382 336.662 425.186 361.371C409.463 386.66 408.039 395.353 408.039 395.458L407.511 395.405C407.564 395.036 408.936 386.554 424.712 361.107C439.907 336.451 450.882 310.53 457.372 284.135C464.336 255.738 465.919 227.341 462.015 199.84C449.088 110.381 381.235 52.1119 318.606 4.53769C305.995 -4.52407 291.961 -17.2738 294.968 -35.3973C298.556 -56.9453 320.822 -65.3222 330.214 -67.9564C376.381 -83.8672 407.353 -96.6169 407.669 -96.7749L407.88 -96.3008C407.564 -96.1954 376.592 -83.393 330.372 -67.4822C321.033 -64.9007 299.031 -56.5765 295.496 -35.3446C292.541 -17.5372 306.47 -4.89285 318.922 4.06354C349.419 27.2448 384.243 55.3784 411.415 88.6224C440.066 123.658 456.791 160.01 462.543 199.734C463.967 209.586 464.653 219.544 464.653 229.554Z" fill="url(#paint38_linear_15013_11205)"/>
<path d="M472.253 225.079C472.253 269.229 459.009 316.751 432.575 367.064C424.08 387.137 423.394 395.409 423.394 395.461L422.867 395.409C422.867 395.303 423.552 387.032 432.1 366.801C469.878 294.834 480.695 228.504 464.233 169.708C456.899 142.628 443.813 116.812 424.186 90.628C406.616 67.236 385.458 45.5826 364.933 24.6668C355.963 15.4997 346.624 5.96375 337.707 -3.62486C329.371 -11.949 322.037 -25.489 326.627 -38.4494C330.743 -50.1454 342.298 -58.3642 361.978 -63.58C407.935 -75.5921 422.761 -96.5079 422.919 -96.7186L423.341 -96.4025C423.183 -96.1918 408.251 -75.0652 362.084 -63.0531C342.562 -57.89 331.112 -49.7766 327.102 -38.2387C322.617 -25.5417 329.846 -12.2124 338.077 -3.99364C347.046 5.59497 356.333 15.1309 365.302 24.298C385.827 45.2665 407.038 66.9199 424.608 90.3119C444.288 116.496 457.373 142.417 464.707 169.55C469.773 187.41 472.253 205.955 472.253 225.079Z" fill="url(#paint39_linear_15013_11205)"/>
<path d="M480.059 218.389C480.059 231.613 478.898 245.258 476.524 259.483C469.559 301.367 453.044 342.409 439.484 373.493C438.851 387.612 438.851 395.357 438.851 395.462H438.323C438.323 395.409 438.323 387.612 438.957 373.44V373.335C464.863 314.222 472.355 281.4 475.996 259.43C483.225 215.86 479.373 177.4 464.283 141.891C442.703 90.6287 406.56 49.482 371.578 9.70504C361.395 -2.5178 349.049 -20.7994 359.76 -38.3434C367.727 -49.934 380.232 -53.6746 393.475 -56.7303C406.244 -59.3645 423.444 -65.5287 432.731 -80.0169C438.271 -88.7099 438.323 -96.2965 438.323 -96.4019H438.851C438.851 -96.3492 438.798 -88.5518 433.205 -79.7535C423.866 -65.0545 406.507 -58.8377 393.633 -56.2035C380.548 -53.1478 368.149 -49.4598 360.287 -38.0273C349.735 -20.7467 361.976 -2.67586 372.053 9.44161C407.035 49.2712 443.23 90.4179 464.81 141.785C474.941 165.704 480.059 191.046 480.059 218.389Z" fill="url(#paint40_linear_15013_11205)"/>
<path d="M488.079 229.978C488.079 238.881 487.604 247.68 486.707 256.425C483.647 285.613 475.468 313.904 462.383 340.563C457.74 354.788 455.049 365.851 454.205 374.334V395.46H453.677V374.334C454.522 365.799 457.212 354.735 461.856 340.405C474.941 313.799 483.066 285.507 486.126 256.373C489.028 228.766 487.34 200.316 481.114 171.814C469.348 117.707 441.647 64.3898 400.967 17.7638C392.314 7.80644 383.028 -7.41943 387.671 -23.6463C391.312 -38.1873 405.399 -45.5104 419.487 -51.7272C429.248 -55.784 442.281 -63.8447 449.351 -79.4394C453.572 -88.7645 453.625 -96.4038 453.625 -96.5092H454.152C454.152 -96.4565 454.099 -88.6592 449.826 -79.2286C445.921 -70.5357 437.479 -58.6289 419.698 -51.2531C405.716 -45.089 391.734 -37.8185 388.146 -23.4882C383.556 -7.52479 392.789 7.59569 401.337 17.4477C442.017 64.179 469.77 117.496 481.589 171.708C485.915 191.202 488.079 210.748 488.079 229.978Z" fill="url(#paint41_linear_15013_11205)"/>
<path d="M498.207 225.236C498.207 249.102 494.356 271.967 486.599 294.253C473.673 334.451 471.457 355.947 469.874 371.594C469.768 372.542 469.663 373.438 469.61 374.334V395.46H469.082V374.334C469.188 373.438 469.293 372.49 469.346 371.594C470.929 355.894 473.145 334.399 486.072 294.148C501.584 249.576 501.531 202.424 485.914 150.108C471.351 101.269 445.233 54.6958 421.596 15.5511C414.842 4.38194 414.42 -7.20868 420.435 -18.9574C425.184 -28.2825 434.101 -37.5024 445.497 -44.8255C468.818 -65.636 469.082 -96.1931 469.082 -96.5092H469.61C469.61 -96.1931 469.346 -65.4252 445.814 -44.4567C413.998 -23.9624 412.679 -0.201632 422.071 15.1823C445.708 54.327 471.879 100.953 486.441 149.844C494.303 176.239 498.207 201.212 498.207 225.236Z" fill="url(#paint42_linear_15013_11205)"/>
<path d="M506.492 224.335C506.492 252.31 502.482 279.39 494.409 305.206C487.656 336.079 486.231 356.31 485.229 371.061C485.176 372.168 485.07 373.274 485.017 374.328V395.454H484.49V374.328C484.543 373.274 484.648 372.168 484.701 371.061C485.756 356.257 487.128 336.026 493.882 305.1C507.231 262.268 509.499 216.116 500.688 167.857C492.985 125.814 476.786 81.7173 452.463 36.83C445.498 24.291 444.654 11.4886 449.772 -2.20939C454.415 -14.5376 463.174 -25.9175 470.93 -35.9803C484.279 -65.431 484.437 -96.1461 484.437 -96.4622H484.965C484.965 -96.1461 484.806 -65.3256 471.405 -35.7168L471.352 -35.6641C455.418 -14.9591 437.373 8.48561 452.938 36.6192C477.261 81.5592 493.46 125.709 501.216 167.804C504.751 186.929 506.492 205.842 506.492 224.335Z" fill="url(#paint43_linear_15013_11205)"/>
<path d="M514.038 219.179C514.038 253.371 509.447 286.668 500.372 318.595V395.409H499.845V318.437C512.086 275.393 516.148 229.769 511.822 182.932C507.759 139.098 496.468 94.369 478.212 49.9558C473.727 38.892 473.463 27.9863 477.368 16.6064C480.586 7.38658 486.654 -2.25472 495.887 -12.7916C497.206 -14.1088 499.475 -17.0591 499.792 -19.746V-96.5603H500.319V-19.6933C500.003 -16.8484 497.629 -13.7927 496.257 -12.4229C487.023 -1.9386 481.008 7.59732 477.842 16.7645C473.938 28.039 474.202 38.7866 478.687 49.745C496.943 94.2109 508.287 138.993 512.297 182.879C513.51 195.102 514.038 207.219 514.038 219.179Z" fill="url(#paint44_linear_15013_11205)"/>
<path d="M525.011 209.116C525.011 217.651 524.589 226.291 523.639 235.09C522.848 242.729 521.898 250.526 521.001 258.06C518.627 277.922 516.147 298.522 515.778 318.542V395.409H515.25V318.595C515.619 298.522 518.047 277.922 520.474 258.008C521.371 250.474 522.32 242.676 523.112 235.037C527.649 192.204 519.893 153.007 511.715 111.491C508.074 93.1572 504.328 74.1907 501.796 55.0662C500.529 43.0541 504.117 32.5698 507.916 21.4007C510.607 13.6034 513.351 5.54262 514.3 -3.04498C514.828 -7.47049 514.986 -11.4218 515.145 -15.5839C515.197 -16.9537 515.25 -18.2709 515.303 -19.6933V-96.5603H515.831V-19.6933C515.778 -18.3235 515.725 -16.9537 515.672 -15.5839C515.514 -11.4218 515.408 -7.4705 514.828 -2.9923C513.878 5.64798 511.135 13.7614 508.444 21.5587C504.645 32.6225 501.057 43.1068 502.323 54.9608C504.856 74.0854 508.602 93.0518 512.243 111.386C518.732 144.472 525.011 176.03 525.011 209.116Z" fill="url(#paint45_linear_15013_11205)"/>
<path d="M535.46 199.473C535.46 209.641 534.986 219.862 533.772 230.083C531.925 250.103 531.556 264.275 531.239 277.973L531.134 281.398V395.513H530.606V281.345L530.712 277.921C531.028 264.223 531.345 250.05 533.244 230.03C537.307 195.575 533.297 161.277 529.445 128.086C527.546 111.648 525.541 94.6307 524.591 77.8243C523.853 68.025 525.383 57.4881 526.966 48.3736C530.395 29.3545 530.712 3.32824 530.712 -19.6423V-96.5092H531.239V-19.6423C531.239 3.32824 530.976 29.4072 527.493 48.479C525.963 57.5408 524.38 68.025 525.172 77.8243C526.121 94.6307 528.126 111.595 530.026 128.033C532.717 151.372 535.46 175.344 535.46 199.473Z" fill="url(#paint46_linear_15013_11205)"/>
<path d="M547.225 177.872C547.225 181.929 547.172 186.039 547.066 190.095C546.75 207.007 546.591 222.338 546.591 239.777V395.407H546.064V239.777C546.064 222.338 546.222 207.007 546.539 190.095C546.961 175.028 546.486 159.802 546.011 145.155C545.536 129.982 545.009 114.282 545.536 98.7402C546.064 87.2549 546.117 72.2925 546.117 59.174V-96.5092H546.644V59.1213C546.644 72.2398 546.591 87.2022 546.064 98.6875C545.536 114.229 546.064 129.877 546.539 145.05C546.855 155.85 547.225 166.809 547.225 177.872Z" fill="url(#paint47_linear_15013_11205)"/>
<path d="M562 -96.5092H561.472V395.46H562V-96.5092Z" fill="url(#paint48_linear_15013_11205)"/>
<path d="M561.734 -96.7698V-96.243H446.289C431.357 -96.5591 415.423 -96.7172 400.069 -96.8225C343.613 -108.413 285.785 -111.627 223.261 -106.622C168.441 -102.249 110.665 -91.6068 46.6642 -74.0101C34.1066 -70.6909 21.2325 -70.849 9.41367 -74.4842C-2.72177 -78.1722 -13.0633 -85.39 -20.6084 -95.2947L-27.8896 -95.4C-54.06 -95.8215 -78.753 -96.243 -100.386 -96.243H-177.314V-96.7698H-100.438C-78.8057 -96.7698 -54.1127 -96.3484 -27.9424 -95.9269L-20.3973 -95.8215L-20.3446 -95.7162C-12.905 -85.8641 -2.56351 -78.699 9.4664 -75.0111C21.1797 -71.4285 33.9483 -71.2705 46.4003 -74.5369C110.454 -92.1336 168.282 -102.776 223.156 -107.149C285.785 -112.154 343.666 -108.94 400.069 -97.3494C415.423 -97.1913 431.305 -97.0333 446.237 -96.7698H561.734Z" fill="url(#paint49_linear_15013_11205)"/>
<path d="M561.734 -81.3938V-80.867H446.289C444.812 -80.9724 443.387 -81.0777 441.91 -81.1831C426.345 -82.3422 410.305 -83.5012 383.818 -89.2438C329.578 -101.783 271.223 -104.154 210.334 -96.2509C156.675 -89.2438 99.849 -74.1233 41.4407 -51.3109C25.2425 -45.0941 8.83326 -42.4599 -4.72678 -43.935C-21.8219 -45.779 -34.485 -53.7344 -42.3994 -67.4851C-50.8942 -79.866 -76.8007 -80.9197 -100.438 -80.9197H-177.314V-81.4465H-100.438C-76.6952 -81.4465 -50.6304 -80.3928 -41.9773 -67.8012C-34.1156 -54.1559 -21.5581 -46.3058 -4.67401 -44.4619C8.7805 -42.9867 25.0842 -45.6209 41.2296 -51.785C99.6908 -74.5975 156.516 -89.7707 210.229 -96.7251C271.223 -104.68 329.631 -102.31 383.924 -89.7707C410.358 -84.0807 426.398 -82.869 441.963 -81.7626C443.44 -81.6572 444.865 -81.5519 446.289 -81.4465L561.734 -81.3938Z" fill="url(#paint50_linear_15013_11205)"/>
<path d="M561.734 -66.0012V-65.4744H484.859C473.093 -65.4744 459.586 -65.9485 443.44 -66.8969H443.387C373.266 -90.3415 298.448 -97.1379 220.992 -87.0751C149.921 -77.908 77.3721 -54.7267 5.40367 -18.2162C-3.35495 -13.8434 -13.5909 -11.6306 -22.6133 -12.1048C-33.4297 -12.737 -42.1884 -17.1625 -47.9395 -24.9072C-50.1028 -27.7522 -52.3188 -30.8606 -54.4293 -33.8636C-66.2482 -50.5119 -78.4364 -67.7398 -100.438 -65.5271H-177.314V-66.0539H-100.438C-78.1726 -68.3193 -65.8788 -50.9861 -53.9544 -34.1797C-51.8439 -31.1767 -49.6279 -28.1209 -47.4646 -25.2233C-41.819 -17.584 -33.2187 -13.2639 -22.5606 -12.6317C-13.6437 -12.1048 -3.51322 -14.3176 5.19264 -18.6904C77.2138 -55.2009 149.763 -78.3821 220.94 -87.6019C298.448 -97.6647 373.318 -90.8684 443.546 -67.4237C459.638 -66.4754 473.198 -66.0012 484.912 -66.0012H561.734Z" fill="url(#paint51_linear_15013_11205)"/>
<path d="M561.734 -50.6233V-50.0965H484.859C483.804 -50.1492 482.801 -50.2018 481.799 -50.2545C475.731 -50.518 470.033 -50.8341 463.701 -52.7307L459.005 -53.8898C386.826 -72.1187 318.603 -89.3465 245.21 -83.5512C205.955 -80.1267 165.591 -69.6952 121.693 -51.6243C82.4901 -35.5028 43.9205 -14.7451 6.61723 5.32779C2.02687 7.80397 -2.51074 10.2275 -7.1011 12.7036C-19.0783 19.0258 -32.7966 20.0795 -45.6179 15.654C-58.8614 11.0704 -69.3612 1.37643 -75.1651 -11.6894C-76.5897 -14.7451 -77.9615 -18.0115 -79.2278 -21.2253C-83.9237 -32.7632 -88.7251 -44.67 -100.491 -50.0965H-177.314V-50.6233H-100.333C-88.3558 -45.1441 -83.5016 -33.0793 -78.7529 -21.436C-77.4866 -18.2749 -76.1148 -14.9558 -74.6902 -11.9001C-68.9391 1.00765 -58.5448 10.6489 -45.4596 15.1271C-32.7438 19.5 -19.2365 18.499 -7.36491 12.2295C-2.77455 9.75331 1.81579 7.32981 6.35339 4.85363C43.6567 -15.2192 82.279 -35.9243 121.482 -52.0985C165.433 -70.222 205.902 -80.6536 245.158 -84.0781C318.656 -89.8207 386.879 -72.5928 459.111 -54.4166L463.807 -53.2576C470.085 -51.3609 475.784 -51.0975 481.799 -50.8341C482.801 -50.7814 483.804 -50.7287 484.859 -50.676L561.734 -50.6233Z" fill="url(#paint52_linear_15013_11205)"/>
<path d="M561.734 -35.2925V-34.7657H484.806C447.239 -47.0939 413.26 -57.9469 377.698 -65.9023C337.07 -75.0168 300.717 -78.5993 266.579 -76.9661C182.001 -72.2245 100.218 -39.56 16.5366 22.924C-1.24443 36.4113 -21.3998 51.7425 -46.1983 47.2117C-63.8211 44.5774 -77.5922 34.1985 -87.0895 16.4438C-96.1647 -0.467958 -99.436 -20.6989 -100.597 -34.7657H-177.314V-35.2925H-100.227V-35.0291C-99.1194 -21.015 -95.8481 -0.731386 -86.7729 16.1804C-77.3284 33.7771 -63.7156 44.0506 -46.2511 46.6848C-21.6636 51.163 -1.61377 35.9371 16.1145 22.5025C99.9546 -40.0341 181.842 -72.7513 266.527 -77.4929C300.717 -79.1262 337.07 -75.5436 377.803 -66.4292C413.365 -58.4738 447.345 -47.6207 484.912 -35.2925H561.734Z" fill="url(#paint53_linear_15013_11205)"/>
<path d="M561.735 -19.9047V-19.3779H541.052C539.786 -19.5359 538.52 -19.6413 537.201 -19.7993C522.427 -21.3799 502.166 -23.4873 470.667 -32.7598C430.092 -47.3534 393.211 -57.2054 357.807 -62.9481C316.863 -69.5336 278.61 -70.5347 240.832 -66.0038C142.271 -54.6766 65.2376 2.48627 -3.35396 62.5995C-17.0195 74.8223 -31.371 79.88 -45.9863 77.72C-60.1795 75.6126 -74.953 66.6035 -89.7794 50.9562C-100.543 39.629 -111.254 25.088 -122.651 6.33226C-147.555 -19.1144 -176.996 -19.4305 -177.26 -19.4305V-19.9574C-176.943 -19.9574 -147.291 -19.6413 -122.228 5.96346L-122.176 6.01614C-110.832 24.7192 -100.121 39.2602 -89.3573 50.5347C-74.5837 66.0767 -59.9156 75.0331 -45.828 77.1404C-31.371 79.3005 -17.1778 74.2428 -3.61777 62.1253C64.9211 2.0648 142.06 -55.2034 240.779 -66.4779C278.61 -71.0088 316.916 -70.0078 357.913 -63.4222C393.317 -57.7323 430.303 -47.8276 470.825 -33.2339C502.219 -24.0141 522.48 -21.854 537.253 -20.3262C538.572 -20.1681 539.839 -20.0628 541.105 -19.9047H561.735Z" fill="url(#paint54_linear_15013_11205)"/>
<path d="M561.735 -4.5182V-3.99136H541.052C539.997 -4.14942 538.942 -4.30746 537.887 -4.46552C522.427 -6.67827 501.216 -9.734 462.594 -25.9082C424.024 -44.1371 382.975 -55.6223 340.659 -60.1532C298.977 -64.5787 257.241 -62.0499 216.614 -52.672C175.512 -43.1887 136.784 -26.9619 101.486 -4.41283C64.8683 19.0318 32.8413 48.6933 6.24887 83.8866C-7.04735 101.009 -26.4113 108.859 -46.9888 105.277C-85.6639 98.8491 -106.294 64.6041 -124.497 34.4158L-126.186 31.5708C-137.371 13.1838 -150.668 4.49087 -159.848 0.434151C-169.821 -3.99136 -177.207 -4.04405 -177.26 -4.04405V-4.57089C-177.207 -4.57089 -169.715 -4.5182 -159.637 -0.0926895C-150.404 4.01671 -137.002 12.7624 -125.711 31.2547L-124.022 34.0997C-105.872 64.1826 -85.2946 98.3223 -46.8833 104.697C-26.5168 108.227 -7.31118 100.482 5.82675 83.4652C32.472 48.2718 64.5517 18.505 101.222 -4.88699C136.573 -27.4887 175.354 -43.7156 216.508 -53.2515C257.136 -62.5767 298.924 -65.1056 340.659 -60.6274C383.028 -56.1492 424.13 -44.6112 462.752 -26.3823C501.269 -10.2608 522.427 -7.20512 537.887 -4.99236C538.942 -4.83431 539.997 -4.67626 541.052 -4.5182H561.735Z" fill="url(#paint55_linear_15013_11205)"/>
<path d="M561.734 10.8669V11.3937H540.999C537.991 10.6561 534.825 9.91857 531.501 9.18098C525.328 7.81118 518.311 6.23064 509.921 3.80714H509.868C474.57 -15.7915 436.792 -30.7013 397.589 -40.5007C356.856 -50.7215 316.387 -54.9362 277.343 -53.0396C190.232 -48.8248 116.047 -14.4217 62.9151 46.429C55.159 55.2274 48.1943 65.5536 41.4407 75.5637C24.451 100.747 6.88103 126.773 -24.8294 130.988C-46.8842 133.359 -67.8838 126.404 -87.195 110.283C-102.918 97.1644 -117.111 77.9345 -127.136 56.1757C-137.847 33.0471 -150.932 22.0887 -160.008 16.9783C-169.821 11.4464 -177.208 11.3937 -177.314 11.3937V10.8669C-177.261 10.8669 -169.716 10.9196 -159.797 16.5042C-150.616 21.6672 -137.478 32.6783 -126.662 55.965C-116.689 77.671 -102.549 96.8483 -86.8784 109.914C-67.6728 125.93 -46.8315 132.832 -24.9349 130.461C6.51169 126.299 24.0289 100.325 40.913 75.2475C47.6666 65.2375 54.6841 54.8586 62.4402 46.0602C115.678 -14.9486 189.915 -49.4044 277.237 -53.6191C316.335 -55.5158 356.856 -51.301 397.642 -41.0802C436.898 -31.2808 474.676 -16.3184 510.027 3.2803C518.363 5.70379 525.381 7.28433 531.554 8.65413C534.878 9.39171 537.991 10.1293 541.051 10.8669H561.734Z" fill="url(#paint56_linear_15013_11205)"/>
<path d="M561.734 26.2429V26.7698H541.051C532.293 25.3473 521.371 21.3959 507.6 14.7577C466.709 -11.4793 419.064 -30.2877 369.731 -39.7183C318.973 -49.4123 267.898 -48.8327 221.995 -37.927C149.604 -20.8045 92.0401 20.7637 55.5811 82.3521C51.8877 88.4108 48.4581 94.9437 45.0813 101.213C33.7373 122.761 21.9712 144.994 -1.98309 153.002C-32.3744 163.276 -59.1252 151.738 -76.1676 140.253C-97.3254 126.028 -115.37 104.058 -125.712 79.9286C-137.267 52.5326 -150.721 39.4668 -159.955 33.408C-169.927 26.8225 -177.261 26.7171 -177.314 26.7171V26.1902C-177.261 26.1902 -169.769 26.2956 -159.638 32.9866C-150.352 39.098 -136.792 52.2164 -125.237 79.7705C-114.948 103.795 -96.9561 125.659 -75.9038 139.884C-58.9669 151.264 -32.4272 162.749 -2.19415 152.528C21.5491 144.625 33.2624 122.445 44.5536 101.002C47.8777 94.6803 51.3601 88.1474 55.0535 82.0886C91.6181 20.3949 149.288 -21.3313 221.784 -38.4538C267.74 -49.3596 318.92 -49.9391 369.783 -40.2451C419.169 -30.8146 466.92 -11.9535 507.811 14.2835C521.529 20.8691 532.398 24.7677 541.051 26.2429H561.734Z" fill="url(#paint57_linear_15013_11205)"/>
<path d="M561.736 41.5742V42.1011C561.683 42.1011 554.191 42.1011 540.314 41.1527H540.209C539.048 40.6259 537.571 40.4678 536.093 40.2571C533.877 39.9937 531.661 39.6776 529.867 38.3604C478.318 3.79931 425.714 -19.3819 373.584 -30.5511C316.706 -42.7212 260.46 -40.5612 206.273 -24.0182C168.337 -12.4276 134.938 8.75168 107.026 38.94C81.3837 66.7048 61.3338 100.844 47.4572 140.463C43.8166 150.684 37.274 159.693 28.6209 166.595C19.8623 173.549 9.52076 177.764 -1.29561 178.87C-25.3027 180.978 -50.0484 174.603 -72.7891 160.483C-93.6832 147.523 -111.886 128.557 -124.022 107.009C-139.27 79.6652 -152.936 63.491 -161.747 54.7454C-171.297 45.2621 -177.312 42.2064 -177.365 42.2064L-177.154 41.7323C-177.101 41.785 -171.033 44.8407 -161.431 54.3766C-152.566 63.1749 -138.848 79.3491 -123.547 106.798C-111.464 128.24 -93.3139 147.154 -72.4726 160.062C-49.7846 174.129 -25.1971 180.451 -1.29561 178.344C9.41523 177.29 19.6512 173.075 28.3571 166.173C36.9574 159.377 43.4472 150.421 47.0351 140.305C60.9117 100.634 81.0143 66.4414 106.71 38.6239C134.621 8.27751 168.073 -12.9544 206.115 -24.545C260.355 -41.088 316.706 -43.2481 373.689 -31.0779C425.925 -19.9088 478.529 3.32516 530.184 37.939C531.872 39.2034 534.035 39.4668 536.199 39.7303C537.729 39.941 539.206 40.0991 540.42 40.6259C554.191 41.5742 561.63 41.5742 561.736 41.5742Z" fill="url(#paint58_linear_15013_11205)"/>
<path d="M561.734 56.9647V57.4916C561.681 57.4916 554.083 57.2808 540.154 56.0164H540.101L540.048 55.9637C488.341 17.0297 430.407 -10.1029 372.474 -22.5364C341.291 -29.2274 310.425 -31.5455 280.614 -29.4381C248.851 -27.2254 218.196 -20.0076 189.44 -7.94279C157.782 5.33374 131.084 25.9334 110.137 53.1714C89.8238 79.5664 75.9471 110.914 68.8769 146.213C65.0253 166.233 54.4199 180.879 37.3776 189.677C25.0838 196.052 9.6771 199.055 -7.15422 198.37C-22.5609 197.738 -38.8119 193.892 -52.8995 187.57C-95.954 168.551 -122.072 131.514 -147.398 95.7406C-152.357 88.7336 -157.423 81.5158 -162.541 74.6141C-171.774 62.2332 -177.42 57.4916 -177.472 57.4389L-177.156 57.0174C-177.103 57.0701 -171.405 61.8117 -162.171 74.298C-157.053 81.1997 -151.935 88.4175 -147.028 95.4245C-121.755 131.145 -95.6901 168.129 -52.7412 187.096C-38.7064 193.418 -22.5609 197.211 -7.15422 197.896C9.57158 198.581 24.8728 195.631 37.1138 189.309C53.9978 180.563 64.4976 166.022 68.3493 146.213C75.4195 110.808 89.3489 79.4611 109.715 52.9607C130.715 25.67 157.466 5.01764 189.229 -8.31158C218.037 -20.3764 248.798 -27.6469 280.614 -29.8596C310.478 -31.967 341.449 -29.5962 372.632 -22.9052C430.618 -10.4716 488.605 16.661 540.365 55.6476C554.136 56.754 561.628 56.9647 561.734 56.9647Z" fill="url(#paint59_linear_15013_11205)"/>
<path d="M561.734 72.3468L561.681 72.8737C561.365 72.8737 553.82 72.1887 536.777 62.8636C510.712 42.6853 482.748 25.6155 453.623 12.0229C423.021 -2.20198 391.838 -12.1594 360.919 -17.6386C327.942 -23.4339 295.599 -24.0661 264.68 -19.4299C231.545 -14.4775 199.992 -3.41372 170.973 13.34C144.486 28.5659 124.594 50.7988 110.085 81.3559C97.4744 108.014 90.2458 137.465 82.8063 170.393C78.427 188.516 68.1383 201.477 52.1512 209.064C37.7469 215.86 18.8051 218.02 -2.72214 215.386C-21.1891 213.068 -40.6058 207.378 -57.3844 199.264C-104.765 177.137 -135.843 135.516 -162.33 93.8422C-171.616 78.1948 -177.42 72.8737 -177.472 72.821L-177.103 72.4522C-177.05 72.5049 -171.194 77.8787 -161.855 93.6314C-135.421 135.147 -104.396 176.715 -57.1733 198.843C-40.4475 206.903 -21.0836 212.646 -2.66937 214.911C18.7523 217.546 37.6414 215.386 51.9401 208.642C67.7689 201.161 77.9521 188.306 82.2787 170.34C89.771 137.36 96.9467 107.909 109.61 81.1978C124.172 50.5354 144.117 28.1971 170.709 12.9185C199.781 -3.88789 231.386 -14.9517 264.574 -19.904C295.493 -24.5403 327.942 -23.9081 360.972 -18.1127C391.943 -12.6335 423.179 -2.67614 453.781 11.6014C482.959 25.1414 510.976 42.2639 536.988 62.4421C553.978 71.6619 561.681 72.3468 561.734 72.3468Z" fill="url(#paint60_linear_15013_11205)"/>
<path d="M561.786 87.7272L561.68 88.2541C561.575 88.2541 553.502 86.3047 535.457 73.5023C491.928 37.6241 442.331 11.3344 391.995 -2.5743C365.086 -10.0028 337.966 -13.9015 311.426 -14.1649C283.357 -14.4284 255.656 -10.5824 229.116 -2.78505C192.657 8.01531 160.578 30.1956 138.839 59.5936C116.257 90.1507 105.81 126.187 108.606 163.751C108.659 164.91 108.712 166.069 108.712 167.228C108.712 188.671 95.9433 209.218 76.0517 219.123C50.9366 231.293 23.3417 234.928 -5.99442 229.818C-31.9009 225.287 -59.1265 213.749 -84.6637 196.363C-113.103 176.975 -136.741 151.581 -161.328 113.911C-171.933 96.7363 -177.473 88.2014 -177.526 88.096L-177.104 87.8326C-177.051 87.9379 -171.511 96.4728 -160.906 113.648C-136.371 151.212 -112.786 176.606 -84.3999 195.941C-58.9155 213.275 -31.7954 224.813 -5.94165 229.344C23.2362 234.454 50.7256 230.871 75.7879 218.701C96.5237 208.375 109.45 186.3 108.026 163.857C106.601 144.785 108.606 125.976 113.935 107.958C119.106 90.5722 127.337 74.2399 138.312 59.3302C160.156 29.8268 192.288 7.64652 228.853 -3.20652C255.445 -11.0565 283.198 -14.9025 311.321 -14.6391C337.913 -14.3757 365.086 -10.477 392.048 -3.04846C442.436 10.8603 492.139 37.2026 535.668 73.0809C553.66 85.7779 561.68 87.7272 561.786 87.7272Z" fill="url(#paint61_linear_15013_11205)"/>
<path d="M561.786 103.115L561.627 103.642C561.311 103.537 553.449 101.166 535.457 85.6768C514.352 66.3415 490.925 49.4297 465.863 35.521C440.115 21.2434 413.311 10.3904 386.086 3.38335C327.097 -11.8952 268.741 -8.68144 217.298 12.7085C178.992 28.672 150.025 55.7519 135.726 88.9959C126.968 108.805 128.023 128.509 129.184 149.32C129.817 161.279 130.503 173.608 129.131 185.883C127.39 199.634 120.583 211.593 108.817 221.445C98.7396 229.822 85.6017 236.197 70.8282 239.779C27.2461 250.158 -18.4992 244.31 -61.3953 222.92C-100.387 203.48 -135.369 171.711 -160.009 133.462C-171.881 115.128 -177.473 103.59 -177.526 103.484L-177.051 103.273C-176.999 103.379 -171.406 114.864 -159.481 133.146C-134.947 171.289 -100.018 203.006 -61.0787 222.393C-18.2881 243.731 27.2989 249.579 70.7754 239.253C85.4962 235.67 98.5814 229.348 108.554 221.024C120.214 211.277 127.021 199.423 128.709 185.83C130.081 173.555 129.395 161.279 128.762 149.32C127.601 128.404 126.546 108.647 135.357 88.7325C149.708 55.3831 178.728 28.1451 217.192 12.1817C268.741 -9.26098 327.255 -12.4747 386.297 2.8565C413.522 9.91624 440.431 20.7693 466.18 35.0468C491.295 49.0083 514.721 65.8673 535.879 85.2553C553.713 100.639 561.733 103.063 561.786 103.115Z" fill="url(#paint62_linear_15013_11205)"/>
<path d="M561.787 118.5L561.628 118.974C561.312 118.869 553.556 116.129 536.144 98.6909C497.891 60.2837 451.46 31.676 402.021 16.0813C349.153 -0.619722 294.649 -1.56805 244.524 13.3944C215.03 22.0347 187.91 38.1562 170.129 57.5968C149.024 80.7254 141.215 107.753 147.546 135.781C152.453 159.436 152.242 181.195 146.913 198.844C140.529 220.076 127.074 234.828 106.919 242.625C80.6959 253.426 52.7316 258.062 23.9231 256.376C-2.98589 254.795 -30.0004 247.841 -56.3818 235.618C-106.718 212.384 -151.038 171.185 -178 122.662L-177.525 122.399C-150.669 170.816 -106.401 211.963 -56.118 235.197C-29.7894 247.367 -2.88039 254.321 23.9759 255.902C52.7316 257.588 80.5903 252.952 106.761 242.204C126.758 234.407 140.107 219.813 146.438 198.739C151.715 181.195 151.978 159.489 147.071 135.939C140.687 107.7 148.549 80.5146 169.759 57.2807C187.593 37.7874 214.766 21.6132 244.366 12.9202C294.596 -2.04221 349.153 -1.14657 402.179 15.6071C451.724 31.2545 498.208 59.8623 536.513 98.3747C553.82 115.655 561.734 118.448 561.787 118.5Z" fill="url(#paint63_linear_15013_11205)"/>
<path d="M561.787 133.829L561.629 134.303C561.312 134.197 553.714 131.247 537.253 112.702C504.276 76.3496 464.018 48.1106 420.752 31.0408C398.223 22.1371 374.954 16.2891 351.58 13.6022C327.204 10.8099 302.564 11.4948 278.346 15.6042C258.348 18.818 237.665 25.7197 220.148 35.0975C200.679 45.5291 185.219 58.8056 175.458 73.5047C163.428 91.6809 159.946 111.648 165.222 132.828C171.554 156.957 173.084 178.084 169.707 195.575C165.539 217.281 153.825 233.613 134.884 244.045C107.816 258.902 78.2691 266.963 47.1919 267.964C18.2779 268.912 -11.2165 263.854 -40.4471 252.896C-96.2701 232.033 -146.395 191.044 -177.841 140.572L-177.419 140.309C-146.025 190.675 -96.0063 231.559 -40.2361 252.474C-11.0582 263.433 18.3834 268.491 47.1919 267.542C78.2164 266.489 107.605 258.48 134.62 243.676C153.403 233.297 165.011 217.07 169.179 195.522C172.503 178.084 171.026 157.062 164.695 132.986C159.418 111.648 162.901 91.5755 175.036 73.2412C184.85 58.4895 200.362 45.1076 219.884 34.6234C237.454 25.1928 258.19 18.2911 278.24 15.0774C302.458 10.968 327.151 10.2831 351.58 13.0753C375.007 15.7623 398.328 21.6103 420.858 30.5667C464.176 47.6892 504.54 75.9808 537.569 112.386C553.978 130.826 561.734 133.829 561.787 133.829Z" fill="url(#paint64_linear_15013_11205)"/>
<path d="M561.84 149.214L561.629 149.688C561.313 149.583 553.926 146.527 538.73 127.613C520.052 105.38 499.053 86.1503 476.312 70.3449C452.041 53.4858 426.24 40.9995 399.648 33.2022C372.633 25.2468 331.584 17.0807 289.268 23.4028C249.01 29.3562 216.877 47.0056 193.873 75.7714C173.401 102.377 181.474 132.565 189.283 161.753C189.863 163.913 190.443 166.02 190.971 168.128C195.931 185.724 192.343 204.111 180.629 221.234C160.158 249.157 131.296 267.122 94.8372 274.709C64.4986 280.978 28.9365 279.819 -8.05019 271.284C-42.3987 263.803 -74.6896 249.683 -104.078 229.4C-132.043 210.117 -156.683 185.672 -177.419 156.748L-176.997 156.432C-156.314 185.25 -131.673 209.696 -103.762 228.926C-74.4258 249.209 -42.1877 263.276 -7.89191 270.757C28.9893 279.24 64.4987 280.451 94.7317 274.182C131.085 266.648 159.841 248.735 180.207 220.918C191.815 203.9 195.35 185.672 190.443 168.233C189.863 166.126 189.335 163.966 188.755 161.858C180.893 132.513 172.821 102.219 193.451 75.4026C216.561 46.5314 248.799 28.8294 289.215 22.876C331.637 16.6065 372.739 24.7726 399.806 32.728C426.451 40.5253 452.252 53.0643 476.629 69.9234C499.422 85.7288 520.422 105.011 539.152 127.244C554.19 146.105 561.735 149.214 561.84 149.214Z" fill="url(#paint65_linear_15013_11205)"/>
<path d="M561.838 164.594L561.575 165.068C561.522 165.016 554.135 160.59 540.153 142.625C512.452 107.431 477.787 78.5602 440.009 59.2249C420.118 49.0041 399.487 41.5756 378.699 37.0447C356.802 32.2504 334.695 30.7752 312.904 32.5138C294.753 33.8309 275.706 38.1511 259.297 44.684C240.355 52.2706 225.106 62.6495 215.293 74.7669C204.054 88.623 199.569 104.744 202.049 122.552C202.788 128.716 203.79 135.091 204.793 141.308C209.805 173.024 214.923 205.846 190.969 232.241C177.514 247.467 161.369 259.795 143.008 268.91C125.965 277.392 106.971 283.082 86.4987 285.98C49.0899 291.196 8.04043 286.875 -32.2703 273.493C-89.1486 255.37 -139.168 220.019 -176.999 171.338L-176.577 171.022C-138.798 219.597 -88.8848 254.896 -32.1648 273.019C8.09318 286.401 49.0371 290.721 86.3931 285.506C106.812 282.661 125.754 276.918 142.744 268.488C161.052 259.374 177.145 247.098 190.547 231.925C214.343 205.688 209.225 173.024 204.265 141.413C203.315 135.196 202.26 128.769 201.521 122.657C199.042 104.692 203.526 88.4649 214.923 74.4508C224.843 62.228 240.144 51.7964 259.191 44.2098C275.653 37.6769 294.701 33.3041 312.956 31.987C334.747 30.1957 356.961 31.7236 378.91 36.5179C399.698 41.0487 420.381 48.53 440.326 58.7508C478.209 78.1387 512.875 107.063 540.628 142.309C554.452 160.169 561.786 164.594 561.838 164.594Z" fill="url(#paint66_linear_15013_11205)"/>
<path d="M561.839 179.981L561.576 180.455C561.312 180.297 554.4 176.293 541.684 159.382C518.416 128.034 493.089 103.588 462.118 82.4619C406.559 43.4753 342.346 32.2535 281.3 50.9038C257.082 58.2797 236.293 73.6636 226.954 91.1549C220.886 102.535 219.673 114.336 223.366 126.243C228.59 143.734 230.12 161.225 227.957 178.348C225.899 194.522 220.517 210.011 212.022 224.289C192.236 257.586 157.096 281.715 115.73 290.461C61.8594 301.788 5.71984 297.363 -46.5153 277.711C-97.0093 258.745 -142.121 226.396 -176.945 184.196L-176.523 183.88C-141.752 226.028 -96.6927 258.271 -46.3042 277.237C5.87813 296.836 61.9122 301.261 115.677 289.934C156.885 281.241 191.867 257.217 211.6 224.026C220.095 209.801 225.424 194.364 227.482 178.295C229.645 161.278 228.115 143.84 222.891 126.454C219.198 114.389 220.412 102.429 226.532 90.9442C235.924 73.3475 256.871 57.8055 281.194 50.4297C342.399 31.7266 406.77 43.0011 462.434 82.0405C493.459 103.167 518.785 127.665 542.106 159.065C554.769 175.872 561.787 179.929 561.839 179.981Z" fill="url(#paint67_linear_15013_11205)"/>
<path d="M561.891 195.361L561.575 195.782C561.522 195.729 554.768 191.041 542.949 176.078C523.955 147.523 499.631 121.444 472.564 100.686C442.806 77.8739 410.831 62.5953 380.018 56.4312C338.494 48.1597 299.608 55.9044 264.467 79.4544C253.387 86.8303 246.634 97.1565 243.89 111.065C241.78 121.813 242.043 134.299 244.734 150.473C247.109 166.489 246.212 182.137 242.149 196.994C238.35 210.85 231.755 224.021 222.574 236.191C209.33 253.735 190.547 269.225 168.175 280.973C147.018 292.09 123.327 299.676 99.5311 302.837C55.9491 308.527 10.2038 304.365 -32.6924 290.72C-74.6915 277.391 -114.264 254.947 -147.188 225.812C-167.237 207.267 -177.421 195.782 -177.526 195.624L-177.104 195.255C-176.999 195.361 -166.815 206.899 -146.818 225.391C-114 254.473 -74.4805 276.864 -32.5341 290.193C10.3093 303.786 55.949 308 99.4256 302.258C123.116 299.097 146.807 291.51 167.859 280.446C190.125 268.75 208.856 253.261 222.099 235.822C231.227 223.705 237.822 210.587 241.621 196.783C245.684 181.979 246.581 166.437 244.207 150.473C241.516 134.246 241.252 121.655 243.362 110.907C246.159 96.893 252.965 86.4088 264.151 78.9803C299.449 55.3248 338.441 47.5275 380.124 55.8517C410.99 62.0158 443.069 77.347 472.88 100.159C500 120.97 524.377 147.049 543.371 175.657C555.138 190.619 561.786 195.308 561.891 195.361Z" fill="url(#paint68_linear_15013_11205)"/>
<path d="M561.84 210.751L561.577 211.225C561.524 211.172 554.876 207.431 544.007 194.471C508.761 146.739 484.279 124.98 468.872 112.757C436.793 87.2577 403.816 73.0329 368.096 69.3449C326.413 64.9721 295.863 77.8271 282.303 90.208C271.804 99.7966 266.58 111.967 266.844 126.402C266.844 127.14 266.844 127.878 266.844 128.615C266.844 165.494 257.61 200.424 240.04 229.717C220.887 261.644 192.712 284.983 158.469 297.153C108.344 315.119 52.7325 318.385 -2.35184 306.637C-55.1674 295.257 -105.186 270.916 -147.133 236.092C-167.974 217.758 -177.366 211.225 -177.419 211.172L-177.102 210.751C-176.997 210.803 -167.605 217.336 -146.764 235.67C-104.923 270.442 -54.9563 294.783 -2.24631 306.004C52.7853 317.753 108.292 314.487 158.311 296.521C192.396 284.351 220.518 261.117 239.565 229.296C257.452 199.529 266.686 163.914 266.316 126.297C266.052 111.703 271.381 99.3752 281.987 89.6812C291.484 80.9882 305.361 74.5607 322.139 70.9781C336.649 67.9224 353.005 67.0795 368.201 68.66C404.027 72.3479 437.109 86.6255 469.295 112.178C501.427 137.73 527.597 171.132 544.482 193.997C555.245 207.01 561.788 210.698 561.84 210.751Z" fill="url(#paint69_linear_15013_11205)"/>
<path d="M561.84 226.078L561.629 226.552C561.576 226.499 555.033 223.444 544.375 212.801C536.725 203.845 529.285 194.415 522.004 185.247C490.821 145.945 458.636 105.272 405.556 89.7828C376.273 81.0371 335.488 79.7727 310.214 96.7372C297.129 105.535 289.689 118.18 288.159 134.407C284.044 175.237 269.745 212.96 246.793 243.464C222.733 275.391 189.915 298.256 151.82 309.53C101.379 324.071 46.7169 325.494 -6.36246 313.64C-57.7534 302.207 -106.77 278.605 -148.136 245.413C-169.241 228.08 -177.261 226.605 -177.314 226.605L-177.208 226.078C-176.892 226.131 -169.03 227.553 -147.767 244.992C-106.453 278.13 -57.5423 301.68 -6.20416 313.113C46.7697 324.914 101.379 323.492 151.715 309.004C189.704 297.782 222.47 274.969 246.424 243.148C269.323 212.696 283.622 175.079 287.684 134.354C289.267 117.969 296.76 105.167 309.95 96.3157C335.329 79.2458 376.379 80.5103 405.768 89.3086C458.952 104.851 491.243 145.576 522.479 184.931C529.707 194.046 537.2 203.476 544.797 212.433C555.297 223.022 561.787 226.078 561.84 226.078Z" fill="url(#paint70_linear_15013_11205)"/>
<path d="M561.787 241.462L561.682 241.989C561.629 241.989 554.664 240.566 543.848 232.137C533.876 224.392 518.522 208.903 501.796 179.189C490.082 159.537 474.517 142.836 455.523 129.56C436.475 116.231 414.948 107.064 391.574 102.322C374.901 99.1608 357.595 99.9511 344.035 104.535C327.784 110.014 317.126 120.603 313.116 135.197C299.714 182.561 280.35 221.916 255.499 252.157C226.321 287.614 189.44 310.637 145.911 320.594C94.7838 332.659 42.3376 332.554 -10.0558 320.226C-59.1252 308.74 -106.031 287.087 -149.455 256.003C-169.294 243.043 -177.261 241.989 -177.314 241.936L-177.261 241.409C-176.944 241.462 -169.188 242.463 -149.191 255.529C-105.82 286.613 -58.9669 308.161 -9.95029 319.646C42.3376 331.922 94.731 332.027 145.753 320.015C189.176 310.11 225.952 287.14 255.077 251.788C279.876 221.6 299.24 182.35 312.589 135.039C316.599 120.287 327.415 109.54 343.877 104.008C357.49 99.4243 374.901 98.634 391.68 101.795C415.107 106.537 436.686 115.757 455.787 129.086C474.834 142.415 490.452 159.116 502.218 178.873C518.838 208.429 534.192 223.865 544.059 231.61C554.822 240.04 561.682 241.462 561.787 241.462Z" fill="url(#paint71_linear_15013_11205)"/>
<path d="M561.734 256.851V257.378C561.682 257.378 554.137 257.325 543.478 250.582C533.665 244.365 518.996 231.088 505.12 203.008C495.359 184.621 482.432 168.394 466.603 154.854C450.616 141.156 432.571 130.935 412.943 124.402C397.537 119.397 381.391 118.501 367.462 121.82C351.738 125.614 339.814 134.57 333.06 147.794C329.578 154.485 326.096 161.387 322.719 168.025C296.074 220.657 268.479 275.08 212.234 304.425C155.408 333.665 89.6658 343.939 22.0767 334.087C-9.47541 329.503 -40.922 320.6 -71.3662 307.692C-101.23 294.995 -129.511 278.715 -155.47 259.275C-169.558 257.852 -177.208 257.378 -177.314 257.378L-177.261 256.851C-177.208 256.851 -169.452 257.378 -155.312 258.748H-155.259L-155.206 258.801C-129.3 278.241 -101.019 294.521 -71.1551 307.218C-40.7638 320.125 -9.3699 328.976 22.1295 333.56C89.5603 343.412 155.25 333.139 211.97 303.951C237.138 290.833 258.718 271.498 277.976 244.839C295.177 221.131 308.895 193.998 322.191 167.761C325.568 161.123 329.051 154.221 332.533 147.531C339.392 134.201 351.422 125.14 367.304 121.294C381.338 117.922 397.589 118.817 413.049 123.875C432.782 130.461 450.88 140.734 466.92 154.432C482.801 168.025 495.781 184.252 505.595 202.744C519.419 230.667 533.928 243.891 543.689 250.055C554.242 256.746 561.629 256.851 561.734 256.851Z" fill="url(#paint72_linear_15013_11205)"/>
<path d="M561.734 272.18V272.707C561.682 272.707 554.136 272.654 543.689 266.859C534.087 261.537 519.893 250.158 506.967 226.081C482.854 181.088 437.161 136.148 381.391 144.894C363.452 147.264 348.573 160.225 335.962 184.46C318.445 219.442 296.338 249.525 270.326 273.813C242.467 299.787 210.545 318.753 175.405 330.08C76.5807 362.376 -34.8543 343.409 -155.892 273.655C-169.769 272.759 -177.261 272.707 -177.314 272.707V272.18C-177.261 272.18 -169.769 272.18 -155.787 273.128H-155.734L-155.681 273.181C-34.8016 342.83 76.5279 361.849 175.194 329.659C210.282 318.332 242.15 299.47 269.956 273.497C295.968 249.262 317.97 219.232 335.488 184.302C348.203 159.909 363.188 146.896 381.338 144.472C437.372 135.621 483.223 180.719 507.441 225.923C520.316 249.842 534.403 261.169 543.953 266.437C554.242 272.127 561.629 272.18 561.734 272.18Z" fill="url(#paint73_linear_15013_11205)"/>
<path d="M561.735 287.564V288.091C561.683 288.091 554.19 288.038 543.796 283.297C534.246 278.924 520.158 269.599 507.442 249.947C490.294 221.708 473.727 201.319 456.79 187.621C432.941 168.286 408.829 163.07 385.138 172.132C358.493 182.669 343.297 205.218 327.258 229.084C317.919 242.94 308.316 257.27 296.18 269.072C242.995 320.492 172.557 349.363 92.516 352.63C19.7561 355.58 -56.4861 336.93 -122.176 299.998C-135.894 293.36 -146.869 289.566 -156.63 288.038H-177.26V287.511H-156.577C-146.71 289.039 -135.683 292.833 -121.912 299.524C-56.275 336.403 19.8617 355.053 92.516 352.05C172.399 348.784 242.732 319.913 295.811 268.598C307.894 256.796 317.496 242.519 326.783 228.715C342.875 204.797 358.124 182.195 384.927 171.553C408.776 162.438 433.047 167.654 457.107 187.095C474.096 200.845 490.717 221.287 507.865 249.579C520.475 269.125 534.457 278.397 543.954 282.717C554.243 287.511 561.63 287.564 561.735 287.564Z" fill="url(#paint74_linear_15013_11205)"/>
<path d="M561.735 302.941V303.468C561.683 303.468 554.19 303.415 543.585 299.833C533.771 296.566 519.261 289.506 505.543 274.597C497.629 264.85 489.398 254.418 482.697 242.564C465.074 212.007 436.74 195.938 416.479 193.62C399.965 191.724 384.875 197.466 372.739 210.321C331.848 254.524 295.336 286.187 257.874 310.001C211.813 339.241 165.54 355.415 116.47 359.524C76.0012 363.002 35.0573 359.84 -8.63023 349.936C-45.9863 341.453 -84.6086 328.072 -126.661 309.158C-139.06 305.891 -147.871 304.627 -156.577 303.468H-177.26V302.941H-156.577C-147.871 304.1 -139.007 305.365 -126.555 308.631C-84.4503 327.597 -45.8807 340.927 -8.57747 349.409C35.1101 359.366 75.9485 362.475 116.365 358.998C165.381 354.888 211.549 338.714 257.558 309.527C295.019 285.766 331.479 254.102 372.317 209.9C384.558 196.94 399.806 191.092 416.479 193.041C429.037 194.516 442.175 200.259 454.469 209.742C465.865 218.488 475.996 230.025 483.119 242.301C489.767 254.102 497.998 264.534 505.912 274.281C519.525 289.085 533.982 296.092 543.69 299.358C554.243 302.888 561.63 302.941 561.735 302.941Z" fill="url(#paint75_linear_15013_11205)"/>
<path d="M561.736 318.334V318.86C561.42 318.86 531.767 318.65 501.059 299.894C488.871 291.412 481.695 279.189 474.097 266.176C471.248 261.329 468.293 256.271 465.075 251.424C453.889 234.302 437.374 223.975 418.538 222.237C400.124 220.551 381.815 227.716 368.361 241.888C339.974 272.024 307.261 297.523 271.172 317.649C236.032 337.247 198.201 351.42 158.734 359.849C119.479 368.226 79.3263 370.702 39.4904 367.172C-1.08417 363.59 -40.6563 353.896 -78.0651 338.301C-116.687 323.971 -137.898 321.231 -153.358 319.282C-154.466 319.124 -155.521 319.019 -156.523 318.86H-177.206V318.334H-156.523C-155.468 318.492 -154.413 318.597 -153.305 318.755C-137.793 320.757 -116.529 323.497 -77.854 337.827C-40.4452 353.369 -0.925892 363.063 39.5959 366.645C79.379 370.123 119.479 367.699 158.681 359.322C198.095 350.945 235.873 336.773 270.961 317.175C306.998 297.102 339.658 271.655 367.991 241.519C381.551 227.242 400.018 220.024 418.644 221.71C437.638 223.449 454.311 233.88 465.55 251.108C468.821 256.008 471.776 261.013 474.625 265.912C482.17 278.82 489.346 291.043 501.428 299.42C531.873 318.123 561.42 318.334 561.736 318.334Z" fill="url(#paint76_linear_15013_11205)"/>
<path d="M561.734 334.24H484.806L484.753 334.187C479.266 330.447 476.522 323.018 475.309 318.961C463.279 279.922 442.332 259.48 426.714 253.369C414.526 248.575 401.81 249.945 388.831 257.373C369.783 268.332 351.422 280.08 333.641 291.46C281.933 324.599 233.128 355.841 169.443 368.327C123.698 377.231 76.95 378.601 30.466 372.331C-13.5909 366.378 -57.6478 353.575 -100.491 334.24H-177.314V333.713H-100.333C-57.5423 353.048 -13.4854 365.904 30.5715 371.804C76.95 378.074 123.645 376.704 169.338 367.8C232.917 355.314 281.67 324.072 333.324 290.986C351.105 279.606 369.52 267.805 388.514 256.846C401.599 249.312 414.526 247.943 426.82 252.79C437.795 257.11 448.031 266.119 457.211 279.553C464.756 290.617 471.352 304.526 475.731 318.698C476.892 322.702 479.583 329.973 484.859 333.608H561.734V334.24Z" fill="url(#paint77_linear_15013_11205)"/>
<path d="M561.734 349.049V349.576H484.859C474.148 350.787 464.07 343.517 460.588 335.825C453.518 319.914 438.111 291.939 414.737 283.772C403.235 279.716 391.047 280.98 378.542 287.46C362.133 295.627 345.935 304.478 330.264 313.012C296.865 331.241 262.306 350.102 224.686 363.116C174.403 380.185 120.849 386.297 60.8574 381.819C12.7377 378.236 -38.5477 367.963 -100.491 349.523H-177.314V348.996H-100.386C-9.84476 375.971 108.924 401.839 224.475 362.641C262.095 349.628 296.601 330.767 330 312.538C345.671 304.003 361.869 295.152 378.278 286.934C390.889 280.401 403.235 279.136 414.896 283.246C438.48 291.517 453.94 319.598 461.063 335.561C464.493 343.095 474.306 350.155 484.806 348.996L561.734 349.049Z" fill="url(#paint78_linear_15013_11205)"/>
<path d="M561.736 364.428V364.954H484.861C470.932 364.954 460.168 363.69 451.99 361.056C441.543 357.684 435.106 352.257 432.415 344.355C429.249 331.921 420.279 321.174 408.46 315.694C397.433 310.531 385.139 310.479 374.851 315.431C298.292 351.573 228.487 374.28 161.372 384.764C123.489 390.717 86.2382 392.667 50.6233 390.559C12.4231 388.294 -25.144 381.339 -60.9699 369.801C-72.9471 365.797 -85.0298 365.429 -96.7431 365.06C-97.9566 365.007 -99.1702 365.007 -100.384 364.954H-177.206V364.428H-100.436C-99.2229 364.48 -98.0094 364.533 -96.7959 364.533C-85.0825 364.902 -72.9471 365.271 -60.8644 369.275C-25.0385 380.76 12.4231 387.767 50.6233 390.032C86.1854 392.14 123.436 390.19 161.267 384.237C228.328 373.7 298.134 351.046 374.587 314.904C385.034 309.846 397.433 309.952 408.619 315.167C420.649 320.752 429.671 331.605 432.89 344.197C439.116 362.32 465.497 364.428 484.808 364.428H561.736Z" fill="url(#paint79_linear_15013_11205)"/>
<path d="M561.734 380.338H484.859C461.116 380.338 434.682 379.442 421.86 369.01C412.152 358.631 401.283 350.834 390.466 346.461C377.698 341.298 364.982 340.719 352.741 344.828C298.976 363.32 241.253 381.813 183.425 392.086C119.741 403.413 62.9678 403.466 9.78297 392.35C3.97907 391.296 -1.61376 390.242 -6.99556 389.189C-28.9449 385.027 -47.8867 381.497 -61.8689 380.285H-177.314V379.758H-61.8689C-47.8867 380.917 -28.8921 384.5 -6.94281 388.662C-1.56101 389.663 4.03185 390.716 9.83575 391.823C62.9679 402.939 119.741 402.887 183.32 391.559C241.095 381.286 298.765 362.794 352.53 344.301C364.929 340.192 377.751 340.719 390.625 345.935C401.547 350.36 412.416 358.157 422.177 368.589C434.84 378.915 461.168 379.758 484.806 379.758H561.734V380.338Z" fill="url(#paint80_linear_15013_11205)"/>
<path d="M561.735 395.726H484.86C462.172 395.726 436.213 395.463 404.133 395.094H404.08L401.6 393.724C374.744 378.972 349.418 365.011 317.391 374.231C257.769 391.933 203.634 402.681 151.927 407.053C93.2546 412.058 37.1678 408.529 -14.8035 396.569C-30.8961 396.358 -46.6194 396.148 -61.8151 395.673H-177.26V395.147H-61.8151C-46.6194 395.621 -30.8961 395.831 -14.8035 396.042H-14.7507C37.1679 407.949 93.2547 411.479 151.874 406.527C203.529 402.154 257.663 391.406 317.233 373.704C349.471 364.431 374.902 378.393 401.864 393.197L404.238 394.514C436.265 394.883 462.225 395.147 484.86 395.147H561.735V395.726Z" fill="url(#paint81_linear_15013_11205)"/>
</g>
</g>
<defs>
<linearGradient id="paint0_linear_15013_11205" x1="390" y1="-6.58015e-06" x2="22" y2="269" gradientUnits="userSpaceOnUse">
<stop stop-color="#9485FF"/>
<stop offset="1" stop-color="#9485FF" stop-opacity="0"/>
</linearGradient>
<linearGradient id="paint1_linear_15013_11205" x1="390" y1="-6.58015e-06" x2="22" y2="269" gradientUnits="userSpaceOnUse">
<stop stop-color="#9485FF"/>
<stop offset="1" stop-color="#9485FF" stop-opacity="0"/>
</linearGradient>
<linearGradient id="paint2_linear_15013_11205" x1="390" y1="-6.58015e-06" x2="22" y2="269" gradientUnits="userSpaceOnUse">
<stop stop-color="#9485FF"/>
<stop offset="1" stop-color="#9485FF" stop-opacity="0"/>
</linearGradient>
<linearGradient id="paint3_linear_15013_11205" x1="390" y1="-6.58015e-06" x2="22" y2="269" gradientUnits="userSpaceOnUse">
<stop stop-color="#9485FF"/>
<stop offset="1" stop-color="#9485FF" stop-opacity="0"/>
</linearGradient>
<linearGradient id="paint4_linear_15013_11205" x1="390" y1="-6.58015e-06" x2="22" y2="269" gradientUnits="userSpaceOnUse">
<stop stop-color="#9485FF"/>
<stop offset="1" stop-color="#9485FF" stop-opacity="0"/>
</linearGradient>
<linearGradient id="paint5_linear_15013_11205" x1="390" y1="-6.58015e-06" x2="22" y2="269" gradientUnits="userSpaceOnUse">
<stop stop-color="#9485FF"/>
<stop offset="1" stop-color="#9485FF" stop-opacity="0"/>
</linearGradient>
<linearGradient id="paint6_linear_15013_11205" x1="390" y1="-6.58015e-06" x2="22" y2="269" gradientUnits="userSpaceOnUse">
<stop stop-color="#9485FF"/>
<stop offset="1" stop-color="#9485FF" stop-opacity="0"/>
</linearGradient>
<linearGradient id="paint7_linear_15013_11205" x1="390" y1="-6.58015e-06" x2="22" y2="269" gradientUnits="userSpaceOnUse">
<stop stop-color="#9485FF"/>
<stop offset="1" stop-color="#9485FF" stop-opacity="0"/>
</linearGradient>
<linearGradient id="paint8_linear_15013_11205" x1="390" y1="-6.58015e-06" x2="22" y2="269" gradientUnits="userSpaceOnUse">
<stop stop-color="#9485FF"/>
<stop offset="1" stop-color="#9485FF" stop-opacity="0"/>
</linearGradient>
<linearGradient id="paint9_linear_15013_11205" x1="390" y1="-6.58015e-06" x2="22" y2="269" gradientUnits="userSpaceOnUse">
<stop stop-color="#9485FF"/>
<stop offset="1" stop-color="#9485FF" stop-opacity="0"/>
</linearGradient>
<linearGradient id="paint10_linear_15013_11205" x1="390" y1="-6.58015e-06" x2="22" y2="269" gradientUnits="userSpaceOnUse">
<stop stop-color="#9485FF"/>
<stop offset="1" stop-color="#9485FF" stop-opacity="0"/>
</linearGradient>
<linearGradient id="paint11_linear_15013_11205" x1="390" y1="-6.58015e-06" x2="22" y2="269" gradientUnits="userSpaceOnUse">
<stop stop-color="#9485FF"/>
<stop offset="1" stop-color="#9485FF" stop-opacity="0"/>
</linearGradient>
<linearGradient id="paint12_linear_15013_11205" x1="390" y1="-6.58015e-06" x2="22" y2="269" gradientUnits="userSpaceOnUse">
<stop stop-color="#9485FF"/>
<stop offset="1" stop-color="#9485FF" stop-opacity="0"/>
</linearGradient>
<linearGradient id="paint13_linear_15013_11205" x1="390" y1="-6.58015e-06" x2="22" y2="269" gradientUnits="userSpaceOnUse">
<stop stop-color="#9485FF"/>
<stop offset="1" stop-color="#9485FF" stop-opacity="0"/>
</linearGradient>
<linearGradient id="paint14_linear_15013_11205" x1="390" y1="-6.58015e-06" x2="22" y2="269" gradientUnits="userSpaceOnUse">
<stop stop-color="#9485FF"/>
<stop offset="1" stop-color="#9485FF" stop-opacity="0"/>
</linearGradient>
<linearGradient id="paint15_linear_15013_11205" x1="390" y1="-6.58015e-06" x2="22" y2="269" gradientUnits="userSpaceOnUse">
<stop stop-color="#9485FF"/>
<stop offset="1" stop-color="#9485FF" stop-opacity="0"/>
</linearGradient>
<linearGradient id="paint16_linear_15013_11205" x1="390" y1="-6.58015e-06" x2="22" y2="269" gradientUnits="userSpaceOnUse">
<stop stop-color="#9485FF"/>
<stop offset="1" stop-color="#9485FF" stop-opacity="0"/>
</linearGradient>
<linearGradient id="paint17_linear_15013_11205" x1="390" y1="-6.58015e-06" x2="22" y2="269" gradientUnits="userSpaceOnUse">
<stop stop-color="#9485FF"/>
<stop offset="1" stop-color="#9485FF" stop-opacity="0"/>
</linearGradient>
<linearGradient id="paint18_linear_15013_11205" x1="390" y1="-6.58015e-06" x2="22" y2="269" gradientUnits="userSpaceOnUse">
<stop stop-color="#9485FF"/>
<stop offset="1" stop-color="#9485FF" stop-opacity="0"/>
</linearGradient>
<linearGradient id="paint19_linear_15013_11205" x1="390" y1="-6.58015e-06" x2="22" y2="269" gradientUnits="userSpaceOnUse">
<stop stop-color="#9485FF"/>
<stop offset="1" stop-color="#9485FF" stop-opacity="0"/>
</linearGradient>
<linearGradient id="paint20_linear_15013_11205" x1="390" y1="-6.58015e-06" x2="22" y2="269" gradientUnits="userSpaceOnUse">
<stop stop-color="#9485FF"/>
<stop offset="1" stop-color="#9485FF" stop-opacity="0"/>
</linearGradient>
<linearGradient id="paint21_linear_15013_11205" x1="390" y1="-6.58015e-06" x2="22" y2="269" gradientUnits="userSpaceOnUse">
<stop stop-color="#9485FF"/>
<stop offset="1" stop-color="#9485FF" stop-opacity="0"/>
</linearGradient>
<linearGradient id="paint22_linear_15013_11205" x1="390" y1="-6.58015e-06" x2="22" y2="269" gradientUnits="userSpaceOnUse">
<stop stop-color="#9485FF"/>
<stop offset="1" stop-color="#9485FF" stop-opacity="0"/>
</linearGradient>
<linearGradient id="paint23_linear_15013_11205" x1="390" y1="-6.58015e-06" x2="22" y2="269" gradientUnits="userSpaceOnUse">
<stop stop-color="#9485FF"/>
<stop offset="1" stop-color="#9485FF" stop-opacity="0"/>
</linearGradient>
<linearGradient id="paint24_linear_15013_11205" x1="390" y1="-6.58015e-06" x2="22" y2="269" gradientUnits="userSpaceOnUse">
<stop stop-color="#9485FF"/>
<stop offset="1" stop-color="#9485FF" stop-opacity="0"/>
</linearGradient>
<linearGradient id="paint25_linear_15013_11205" x1="390" y1="-6.58015e-06" x2="22" y2="269" gradientUnits="userSpaceOnUse">
<stop stop-color="#9485FF"/>
<stop offset="1" stop-color="#9485FF" stop-opacity="0"/>
</linearGradient>
<linearGradient id="paint26_linear_15013_11205" x1="390" y1="-6.58015e-06" x2="22" y2="269" gradientUnits="userSpaceOnUse">
<stop stop-color="#9485FF"/>
<stop offset="1" stop-color="#9485FF" stop-opacity="0"/>
</linearGradient>
<linearGradient id="paint27_linear_15013_11205" x1="390" y1="-6.58015e-06" x2="22" y2="269" gradientUnits="userSpaceOnUse">
<stop stop-color="#9485FF"/>
<stop offset="1" stop-color="#9485FF" stop-opacity="0"/>
</linearGradient>
<linearGradient id="paint28_linear_15013_11205" x1="390" y1="-6.58015e-06" x2="22" y2="269" gradientUnits="userSpaceOnUse">
<stop stop-color="#9485FF"/>
<stop offset="1" stop-color="#9485FF" stop-opacity="0"/>
</linearGradient>
<linearGradient id="paint29_linear_15013_11205" x1="390" y1="-6.58015e-06" x2="22" y2="269" gradientUnits="userSpaceOnUse">
<stop stop-color="#9485FF"/>
<stop offset="1" stop-color="#9485FF" stop-opacity="0"/>
</linearGradient>
<linearGradient id="paint30_linear_15013_11205" x1="390" y1="-6.58015e-06" x2="22" y2="269" gradientUnits="userSpaceOnUse">
<stop stop-color="#9485FF"/>
<stop offset="1" stop-color="#9485FF" stop-opacity="0"/>
</linearGradient>
<linearGradient id="paint31_linear_15013_11205" x1="390" y1="-6.58015e-06" x2="22" y2="269" gradientUnits="userSpaceOnUse">
<stop stop-color="#9485FF"/>
<stop offset="1" stop-color="#9485FF" stop-opacity="0"/>
</linearGradient>
<linearGradient id="paint32_linear_15013_11205" x1="390" y1="-6.58015e-06" x2="22" y2="269" gradientUnits="userSpaceOnUse">
<stop stop-color="#9485FF"/>
<stop offset="1" stop-color="#9485FF" stop-opacity="0"/>
</linearGradient>
<linearGradient id="paint33_linear_15013_11205" x1="390" y1="-6.58015e-06" x2="22" y2="269" gradientUnits="userSpaceOnUse">
<stop stop-color="#9485FF"/>
<stop offset="1" stop-color="#9485FF" stop-opacity="0"/>
</linearGradient>
<linearGradient id="paint34_linear_15013_11205" x1="390" y1="-6.58015e-06" x2="22" y2="269" gradientUnits="userSpaceOnUse">
<stop stop-color="#9485FF"/>
<stop offset="1" stop-color="#9485FF" stop-opacity="0"/>
</linearGradient>
<linearGradient id="paint35_linear_15013_11205" x1="390" y1="-6.58015e-06" x2="22" y2="269" gradientUnits="userSpaceOnUse">
<stop stop-color="#9485FF"/>
<stop offset="1" stop-color="#9485FF" stop-opacity="0"/>
</linearGradient>
<linearGradient id="paint36_linear_15013_11205" x1="390" y1="-6.58015e-06" x2="22" y2="269" gradientUnits="userSpaceOnUse">
<stop stop-color="#9485FF"/>
<stop offset="1" stop-color="#9485FF" stop-opacity="0"/>
</linearGradient>
<linearGradient id="paint37_linear_15013_11205" x1="390" y1="-6.58015e-06" x2="22" y2="269" gradientUnits="userSpaceOnUse">
<stop stop-color="#9485FF"/>
<stop offset="1" stop-color="#9485FF" stop-opacity="0"/>
</linearGradient>
<linearGradient id="paint38_linear_15013_11205" x1="390" y1="-6.58015e-06" x2="22" y2="269" gradientUnits="userSpaceOnUse">
<stop stop-color="#9485FF"/>
<stop offset="1" stop-color="#9485FF" stop-opacity="0"/>
</linearGradient>
<linearGradient id="paint39_linear_15013_11205" x1="390" y1="-6.58015e-06" x2="22" y2="269" gradientUnits="userSpaceOnUse">
<stop stop-color="#9485FF"/>
<stop offset="1" stop-color="#9485FF" stop-opacity="0"/>
</linearGradient>
<linearGradient id="paint40_linear_15013_11205" x1="390" y1="-6.58015e-06" x2="22" y2="269" gradientUnits="userSpaceOnUse">
<stop stop-color="#9485FF"/>
<stop offset="1" stop-color="#9485FF" stop-opacity="0"/>
</linearGradient>
<linearGradient id="paint41_linear_15013_11205" x1="390" y1="-6.58015e-06" x2="22" y2="269" gradientUnits="userSpaceOnUse">
<stop stop-color="#9485FF"/>
<stop offset="1" stop-color="#9485FF" stop-opacity="0"/>
</linearGradient>
<linearGradient id="paint42_linear_15013_11205" x1="390" y1="-6.58015e-06" x2="22" y2="269" gradientUnits="userSpaceOnUse">
<stop stop-color="#9485FF"/>
<stop offset="1" stop-color="#9485FF" stop-opacity="0"/>
</linearGradient>
<linearGradient id="paint43_linear_15013_11205" x1="390" y1="-6.58015e-06" x2="22" y2="269" gradientUnits="userSpaceOnUse">
<stop stop-color="#9485FF"/>
<stop offset="1" stop-color="#9485FF" stop-opacity="0"/>
</linearGradient>
<linearGradient id="paint44_linear_15013_11205" x1="390" y1="-6.58015e-06" x2="22" y2="269" gradientUnits="userSpaceOnUse">
<stop stop-color="#9485FF"/>
<stop offset="1" stop-color="#9485FF" stop-opacity="0"/>
</linearGradient>
<linearGradient id="paint45_linear_15013_11205" x1="390" y1="-6.58015e-06" x2="22" y2="269" gradientUnits="userSpaceOnUse">
<stop stop-color="#9485FF"/>
<stop offset="1" stop-color="#9485FF" stop-opacity="0"/>
</linearGradient>
<linearGradient id="paint46_linear_15013_11205" x1="390" y1="-6.58015e-06" x2="22" y2="269" gradientUnits="userSpaceOnUse">
<stop stop-color="#9485FF"/>
<stop offset="1" stop-color="#9485FF" stop-opacity="0"/>
</linearGradient>
<linearGradient id="paint47_linear_15013_11205" x1="390" y1="-6.58015e-06" x2="22" y2="269" gradientUnits="userSpaceOnUse">
<stop stop-color="#9485FF"/>
<stop offset="1" stop-color="#9485FF" stop-opacity="0"/>
</linearGradient>
<linearGradient id="paint48_linear_15013_11205" x1="390" y1="-6.58015e-06" x2="22" y2="269" gradientUnits="userSpaceOnUse">
<stop stop-color="#9485FF"/>
<stop offset="1" stop-color="#9485FF" stop-opacity="0"/>
</linearGradient>
<linearGradient id="paint49_linear_15013_11205" x1="390" y1="-6.58015e-06" x2="22" y2="269" gradientUnits="userSpaceOnUse">
<stop stop-color="#9485FF"/>
<stop offset="1" stop-color="#9485FF" stop-opacity="0"/>
</linearGradient>
<linearGradient id="paint50_linear_15013_11205" x1="390" y1="-6.58015e-06" x2="22" y2="269" gradientUnits="userSpaceOnUse">
<stop stop-color="#9485FF"/>
<stop offset="1" stop-color="#9485FF" stop-opacity="0"/>
</linearGradient>
<linearGradient id="paint51_linear_15013_11205" x1="390" y1="-6.58015e-06" x2="22" y2="269" gradientUnits="userSpaceOnUse">
<stop stop-color="#9485FF"/>
<stop offset="1" stop-color="#9485FF" stop-opacity="0"/>
</linearGradient>
<linearGradient id="paint52_linear_15013_11205" x1="390" y1="-6.58015e-06" x2="22" y2="269" gradientUnits="userSpaceOnUse">
<stop stop-color="#9485FF"/>
<stop offset="1" stop-color="#9485FF" stop-opacity="0"/>
</linearGradient>
<linearGradient id="paint53_linear_15013_11205" x1="390" y1="-6.58015e-06" x2="22" y2="269" gradientUnits="userSpaceOnUse">
<stop stop-color="#9485FF"/>
<stop offset="1" stop-color="#9485FF" stop-opacity="0"/>
</linearGradient>
<linearGradient id="paint54_linear_15013_11205" x1="390" y1="-6.58015e-06" x2="22" y2="269" gradientUnits="userSpaceOnUse">
<stop stop-color="#9485FF"/>
<stop offset="1" stop-color="#9485FF" stop-opacity="0"/>
</linearGradient>
<linearGradient id="paint55_linear_15013_11205" x1="390" y1="-6.58015e-06" x2="22" y2="269" gradientUnits="userSpaceOnUse">
<stop stop-color="#9485FF"/>
<stop offset="1" stop-color="#9485FF" stop-opacity="0"/>
</linearGradient>
<linearGradient id="paint56_linear_15013_11205" x1="390" y1="-6.58015e-06" x2="22" y2="269" gradientUnits="userSpaceOnUse">
<stop stop-color="#9485FF"/>
<stop offset="1" stop-color="#9485FF" stop-opacity="0"/>
</linearGradient>
<linearGradient id="paint57_linear_15013_11205" x1="390" y1="-6.58015e-06" x2="22" y2="269" gradientUnits="userSpaceOnUse">
<stop stop-color="#9485FF"/>
<stop offset="1" stop-color="#9485FF" stop-opacity="0"/>
</linearGradient>
<linearGradient id="paint58_linear_15013_11205" x1="390" y1="-6.58015e-06" x2="22" y2="269" gradientUnits="userSpaceOnUse">
<stop stop-color="#9485FF"/>
<stop offset="1" stop-color="#9485FF" stop-opacity="0"/>
</linearGradient>
<linearGradient id="paint59_linear_15013_11205" x1="390" y1="-6.58015e-06" x2="22" y2="269" gradientUnits="userSpaceOnUse">
<stop stop-color="#9485FF"/>
<stop offset="1" stop-color="#9485FF" stop-opacity="0"/>
</linearGradient>
<linearGradient id="paint60_linear_15013_11205" x1="390" y1="-6.58015e-06" x2="22" y2="269" gradientUnits="userSpaceOnUse">
<stop stop-color="#9485FF"/>
<stop offset="1" stop-color="#9485FF" stop-opacity="0"/>
</linearGradient>
<linearGradient id="paint61_linear_15013_11205" x1="390" y1="-6.58015e-06" x2="22" y2="269" gradientUnits="userSpaceOnUse">
<stop stop-color="#9485FF"/>
<stop offset="1" stop-color="#9485FF" stop-opacity="0"/>
</linearGradient>
<linearGradient id="paint62_linear_15013_11205" x1="390" y1="-6.58015e-06" x2="22" y2="269" gradientUnits="userSpaceOnUse">
<stop stop-color="#9485FF"/>
<stop offset="1" stop-color="#9485FF" stop-opacity="0"/>
</linearGradient>
<linearGradient id="paint63_linear_15013_11205" x1="390" y1="-6.58015e-06" x2="22" y2="269" gradientUnits="userSpaceOnUse">
<stop stop-color="#9485FF"/>
<stop offset="1" stop-color="#9485FF" stop-opacity="0"/>
</linearGradient>
<linearGradient id="paint64_linear_15013_11205" x1="390" y1="-6.58015e-06" x2="22" y2="269" gradientUnits="userSpaceOnUse">
<stop stop-color="#9485FF"/>
<stop offset="1" stop-color="#9485FF" stop-opacity="0"/>
</linearGradient>
<linearGradient id="paint65_linear_15013_11205" x1="390" y1="-6.58015e-06" x2="22" y2="269" gradientUnits="userSpaceOnUse">
<stop stop-color="#9485FF"/>
<stop offset="1" stop-color="#9485FF" stop-opacity="0"/>
</linearGradient>
<linearGradient id="paint66_linear_15013_11205" x1="390" y1="-6.58015e-06" x2="22" y2="269" gradientUnits="userSpaceOnUse">
<stop stop-color="#9485FF"/>
<stop offset="1" stop-color="#9485FF" stop-opacity="0"/>
</linearGradient>
<linearGradient id="paint67_linear_15013_11205" x1="390" y1="-6.58015e-06" x2="22" y2="269" gradientUnits="userSpaceOnUse">
<stop stop-color="#9485FF"/>
<stop offset="1" stop-color="#9485FF" stop-opacity="0"/>
</linearGradient>
<linearGradient id="paint68_linear_15013_11205" x1="390" y1="-6.58015e-06" x2="22" y2="269" gradientUnits="userSpaceOnUse">
<stop stop-color="#9485FF"/>
<stop offset="1" stop-color="#9485FF" stop-opacity="0"/>
</linearGradient>
<linearGradient id="paint69_linear_15013_11205" x1="390" y1="-6.58015e-06" x2="22" y2="269" gradientUnits="userSpaceOnUse">
<stop stop-color="#9485FF"/>
<stop offset="1" stop-color="#9485FF" stop-opacity="0"/>
</linearGradient>
<linearGradient id="paint70_linear_15013_11205" x1="390" y1="-6.58015e-06" x2="22" y2="269" gradientUnits="userSpaceOnUse">
<stop stop-color="#9485FF"/>
<stop offset="1" stop-color="#9485FF" stop-opacity="0"/>
</linearGradient>
<linearGradient id="paint71_linear_15013_11205" x1="390" y1="-6.58015e-06" x2="22" y2="269" gradientUnits="userSpaceOnUse">
<stop stop-color="#9485FF"/>
<stop offset="1" stop-color="#9485FF" stop-opacity="0"/>
</linearGradient>
<linearGradient id="paint72_linear_15013_11205" x1="390" y1="-6.58015e-06" x2="22" y2="269" gradientUnits="userSpaceOnUse">
<stop stop-color="#9485FF"/>
<stop offset="1" stop-color="#9485FF" stop-opacity="0"/>
</linearGradient>
<linearGradient id="paint73_linear_15013_11205" x1="390" y1="-6.58015e-06" x2="22" y2="269" gradientUnits="userSpaceOnUse">
<stop stop-color="#9485FF"/>
<stop offset="1" stop-color="#9485FF" stop-opacity="0"/>
</linearGradient>
<linearGradient id="paint74_linear_15013_11205" x1="390" y1="-6.58015e-06" x2="22" y2="269" gradientUnits="userSpaceOnUse">
<stop stop-color="#9485FF"/>
<stop offset="1" stop-color="#9485FF" stop-opacity="0"/>
</linearGradient>
<linearGradient id="paint75_linear_15013_11205" x1="390" y1="-6.58015e-06" x2="22" y2="269" gradientUnits="userSpaceOnUse">
<stop stop-color="#9485FF"/>
<stop offset="1" stop-color="#9485FF" stop-opacity="0"/>
</linearGradient>
<linearGradient id="paint76_linear_15013_11205" x1="390" y1="-6.58015e-06" x2="22" y2="269" gradientUnits="userSpaceOnUse">
<stop stop-color="#9485FF"/>
<stop offset="1" stop-color="#9485FF" stop-opacity="0"/>
</linearGradient>
<linearGradient id="paint77_linear_15013_11205" x1="390" y1="-6.58015e-06" x2="22" y2="269" gradientUnits="userSpaceOnUse">
<stop stop-color="#9485FF"/>
<stop offset="1" stop-color="#9485FF" stop-opacity="0"/>
</linearGradient>
<linearGradient id="paint78_linear_15013_11205" x1="390" y1="-6.58015e-06" x2="22" y2="269" gradientUnits="userSpaceOnUse">
<stop stop-color="#9485FF"/>
<stop offset="1" stop-color="#9485FF" stop-opacity="0"/>
</linearGradient>
<linearGradient id="paint79_linear_15013_11205" x1="390" y1="-6.58015e-06" x2="22" y2="269" gradientUnits="userSpaceOnUse">
<stop stop-color="#9485FF"/>
<stop offset="1" stop-color="#9485FF" stop-opacity="0"/>
</linearGradient>
<linearGradient id="paint80_linear_15013_11205" x1="390" y1="-6.58015e-06" x2="22" y2="269" gradientUnits="userSpaceOnUse">
<stop stop-color="#9485FF"/>
<stop offset="1" stop-color="#9485FF" stop-opacity="0"/>
</linearGradient>
<linearGradient id="paint81_linear_15013_11205" x1="390" y1="-6.58015e-06" x2="22" y2="269" gradientUnits="userSpaceOnUse">
<stop stop-color="#9485FF"/>
<stop offset="1" stop-color="#9485FF" stop-opacity="0"/>
</linearGradient>
</defs>
</svg>
